<mxfile host="app.diagrams.net" modified="2023-05-18T00:09:53.917Z" agent="Mozilla/5.0 (Windows NT 10.0; Win64; x64) AppleWebKit/537.36 (KHTML, like Gecko) Chrome/113.0.0.0 Safari/537.36" etag="Z5z39anlZxJphbZ8bGnJ" version="21.3.2" type="device">
  <diagram name="Page-1" id="Eg5TPXUNS997f05-KEj3">
    <mxGraphModel dx="1195" dy="621" grid="0" gridSize="10" guides="1" tooltips="1" connect="1" arrows="1" fold="1" page="1" pageScale="1" pageWidth="1600" pageHeight="900" math="0" shadow="0">
      <root>
        <mxCell id="0" />
        <mxCell id="1" parent="0" />
        <mxCell id="pBvcmqWuUnF4bjznlYPL-54" style="edgeStyle=orthogonalEdgeStyle;rounded=0;orthogonalLoop=1;jettySize=auto;html=1;startArrow=classic;startFill=1;fontColor=#9C9C9C;labelBorderColor=#9C9C9C;strokeColor=#9C9C9C;" edge="1" parent="1" source="pBvcmqWuUnF4bjznlYPL-3" target="pBvcmqWuUnF4bjznlYPL-37">
          <mxGeometry relative="1" as="geometry" />
        </mxCell>
        <mxCell id="pBvcmqWuUnF4bjznlYPL-55" style="edgeStyle=orthogonalEdgeStyle;rounded=0;orthogonalLoop=1;jettySize=auto;html=1;fontColor=#9C9C9C;labelBorderColor=#9C9C9C;strokeColor=#9C9C9C;" edge="1" parent="1" source="pBvcmqWuUnF4bjznlYPL-3" target="pBvcmqWuUnF4bjznlYPL-34">
          <mxGeometry relative="1" as="geometry" />
        </mxCell>
        <mxCell id="pBvcmqWuUnF4bjznlYPL-3" value=".NET Minimal REST API" style="sketch=0;html=1;dashed=0;whitespace=wrap;fillColor=#2875E2;strokeColor=#ffffff;points=[[0.005,0.63,0],[0.1,0.2,0],[0.9,0.2,0],[0.5,0,0],[0.995,0.63,0],[0.72,0.99,0],[0.5,1,0],[0.28,0.99,0]];verticalLabelPosition=bottom;align=center;verticalAlign=top;shape=mxgraph.kubernetes.icon;prIcon=api;fontColor=#9C9C9C;" vertex="1" parent="1">
          <mxGeometry x="979.9" y="377" width="110" height="120" as="geometry" />
        </mxCell>
        <mxCell id="pBvcmqWuUnF4bjznlYPL-22" value="" style="sketch=0;html=1;dashed=0;whitespace=wrap;fillColor=#2875E2;strokeColor=#ffffff;points=[[0.005,0.63,0],[0.1,0.2,0],[0.9,0.2,0],[0.5,0,0],[0.995,0.63,0],[0.72,0.99,0],[0.5,1,0],[0.28,0.99,0]];verticalLabelPosition=bottom;align=center;verticalAlign=top;shape=mxgraph.kubernetes.icon;prIcon=vol;fontColor=#9C9C9C;" vertex="1" parent="1">
          <mxGeometry x="1179.5" y="156" width="160" height="120" as="geometry" />
        </mxCell>
        <mxCell id="pBvcmqWuUnF4bjznlYPL-50" style="edgeStyle=orthogonalEdgeStyle;rounded=0;orthogonalLoop=1;jettySize=auto;html=1;startArrow=classic;startFill=1;fontColor=#9C9C9C;labelBorderColor=#9C9C9C;strokeColor=#9C9C9C;" edge="1" parent="1" source="pBvcmqWuUnF4bjznlYPL-26">
          <mxGeometry relative="1" as="geometry">
            <mxPoint x="975" y="652.8" as="targetPoint" />
          </mxGeometry>
        </mxCell>
        <mxCell id="pBvcmqWuUnF4bjznlYPL-26" value="Arduino MKR WiFi 1010" style="sketch=0;html=1;dashed=0;whitespace=wrap;fillColor=#2875E2;strokeColor=#ffffff;points=[[0.005,0.63,0],[0.1,0.2,0],[0.9,0.2,0],[0.5,0,0],[0.995,0.63,0],[0.72,0.99,0],[0.5,1,0],[0.28,0.99,0]];verticalLabelPosition=bottom;align=center;verticalAlign=top;shape=mxgraph.kubernetes.icon;prIcon=etcd;fontColor=#9C9C9C;" vertex="1" parent="1">
          <mxGeometry x="753" y="600.5" width="120" height="105.5" as="geometry" />
        </mxCell>
        <mxCell id="pBvcmqWuUnF4bjznlYPL-28" value="HiveMQ" style="text;html=1;align=center;verticalAlign=middle;resizable=0;points=[];autosize=1;strokeColor=none;fillColor=none;fontColor=#9C9C9C;" vertex="1" parent="1">
          <mxGeometry x="999.8999999999999" y="712.75" width="70" height="30" as="geometry" />
        </mxCell>
        <mxCell id="pBvcmqWuUnF4bjznlYPL-57" style="edgeStyle=orthogonalEdgeStyle;rounded=0;orthogonalLoop=1;jettySize=auto;html=1;entryX=0.5;entryY=0;entryDx=0;entryDy=0;entryPerimeter=0;startArrow=classic;startFill=1;fontColor=#9C9C9C;labelBorderColor=#9C9C9C;strokeColor=#9C9C9C;" edge="1" parent="1" source="pBvcmqWuUnF4bjznlYPL-30" target="pBvcmqWuUnF4bjznlYPL-3">
          <mxGeometry relative="1" as="geometry" />
        </mxCell>
        <mxCell id="pBvcmqWuUnF4bjznlYPL-30" value=".NET MAUI Application" style="sketch=0;html=1;dashed=0;whitespace=wrap;fillColor=#2875E2;strokeColor=#ffffff;points=[[0.005,0.63,0],[0.1,0.2,0],[0.9,0.2,0],[0.5,0,0],[0.995,0.63,0],[0.72,0.99,0],[0.5,1,0],[0.28,0.99,0]];verticalLabelPosition=bottom;align=center;verticalAlign=top;shape=mxgraph.kubernetes.icon;prIcon=user;fontColor=#9C9C9C;" vertex="1" parent="1">
          <mxGeometry x="770" y="227" width="107" height="106" as="geometry" />
        </mxCell>
        <mxCell id="pBvcmqWuUnF4bjznlYPL-31" value="" style="html=1;verticalLabelPosition=bottom;align=center;labelBackgroundColor=#ffffff;verticalAlign=top;strokeWidth=2;strokeColor=#0080F0;shadow=0;dashed=0;shape=mxgraph.ios7.icons.wifi;pointerEvents=1;rotation=40;fontColor=#9C9C9C;" vertex="1" parent="1">
          <mxGeometry x="863" y="186" width="68.7" height="59" as="geometry" />
        </mxCell>
        <mxCell id="pBvcmqWuUnF4bjznlYPL-56" style="edgeStyle=orthogonalEdgeStyle;rounded=0;orthogonalLoop=1;jettySize=auto;html=1;startArrow=classic;startFill=1;fontColor=#9C9C9C;labelBorderColor=#9C9C9C;strokeColor=#9C9C9C;" edge="1" parent="1" source="pBvcmqWuUnF4bjznlYPL-34" target="pBvcmqWuUnF4bjznlYPL-22">
          <mxGeometry relative="1" as="geometry" />
        </mxCell>
        <mxCell id="pBvcmqWuUnF4bjznlYPL-34" value="&lt;b&gt;GET&amp;nbsp;&lt;/b&gt;&lt;br&gt;&lt;i&gt;Retrieve Telemetry data&lt;/i&gt;" style="rounded=1;whiteSpace=wrap;html=1;fillColor=#1ba1e2;fontColor=#FFFFFF;strokeColor=#006EAF;" vertex="1" parent="1">
          <mxGeometry x="1199.5" y="344" width="120" height="60" as="geometry" />
        </mxCell>
        <mxCell id="pBvcmqWuUnF4bjznlYPL-53" style="edgeStyle=orthogonalEdgeStyle;rounded=0;orthogonalLoop=1;jettySize=auto;html=1;startArrow=none;startFill=0;fontColor=#9C9C9C;labelBorderColor=#9C9C9C;strokeColor=#9C9C9C;" edge="1" parent="1" source="pBvcmqWuUnF4bjznlYPL-37">
          <mxGeometry relative="1" as="geometry">
            <mxPoint x="1259.5" y="600.5" as="targetPoint" />
          </mxGeometry>
        </mxCell>
        <mxCell id="pBvcmqWuUnF4bjznlYPL-37" value="&lt;b&gt;POST&lt;/b&gt;&lt;br&gt;&lt;i&gt;Trigger Peripheral components&lt;/i&gt;" style="rounded=1;whiteSpace=wrap;html=1;fillColor=#1ba1e2;fontColor=#FFFFFF;strokeColor=#006EAF;" vertex="1" parent="1">
          <mxGeometry x="1199.5" y="472" width="120" height="60" as="geometry" />
        </mxCell>
        <mxCell id="pBvcmqWuUnF4bjznlYPL-49" style="edgeStyle=orthogonalEdgeStyle;rounded=0;orthogonalLoop=1;jettySize=auto;html=1;startArrow=classic;startFill=1;fontColor=#9C9C9C;labelBorderColor=#9C9C9C;labelBackgroundColor=#9C9C9C;strokeColor=#9C9C9C;" edge="1" parent="1">
          <mxGeometry relative="1" as="geometry">
            <mxPoint x="1197" y="653.0285714285715" as="sourcePoint" />
            <mxPoint x="1094.8" y="653" as="targetPoint" />
            <Array as="points">
              <mxPoint x="1171" y="653" />
              <mxPoint x="1171" y="653" />
            </Array>
          </mxGeometry>
        </mxCell>
        <mxCell id="pBvcmqWuUnF4bjznlYPL-66" style="edgeStyle=orthogonalEdgeStyle;rounded=0;orthogonalLoop=1;jettySize=auto;html=1;entryX=0.5;entryY=1;entryDx=0;entryDy=0;strokeColor=#9C9C9C;" edge="1" parent="1" target="pBvcmqWuUnF4bjznlYPL-65">
          <mxGeometry relative="1" as="geometry">
            <mxPoint x="1322" y="653.0285714285715" as="sourcePoint" />
          </mxGeometry>
        </mxCell>
        <mxCell id="pBvcmqWuUnF4bjznlYPL-58" value="InfluxDB" style="text;html=1;align=center;verticalAlign=middle;resizable=0;points=[];autosize=1;strokeColor=none;fillColor=none;fontColor=#9C9C9C;" vertex="1" parent="1">
          <mxGeometry x="1228" y="127" width="63" height="26" as="geometry" />
        </mxCell>
        <mxCell id="pBvcmqWuUnF4bjznlYPL-59" value="" style="shape=image;verticalLabelPosition=bottom;labelBackgroundColor=default;verticalAlign=top;aspect=fixed;imageAspect=0;image=data:image/png,iVBORw0KGgoAAAANSUhEUgAABKEAAASjCAYAAACmDyksAAAt4HpUWHRSYXcgcHJvZmlsZSB0eXBlIGV4aWYAAHjarZxpkiS5kaX/4xR9BKwK4DhYReYGc/z5HiwyWVkkpZsyzWRlRHqEm8EA1bcoFO7O//0/1/3Xf/1X8CV7l0tt1s08/8s99zj4pvnvf+P9HXx+f38vff/Sv/943Y3084PIS4mv6ftBs+9r+PX6zxt+fQ2D78pfLtTWzw/mnz/o3+V9bH+7UPy+JI1I3++fC/WfC6X4/SD8XGB8j+Wtt/rXR5jn+/rz/m8a+M/pr9z+HPY//bsye7twnxTjSSF5/o4pfwNI+i+5xCSlwt8hNX6RIfN94qteqT8XY0L+1Tz5v4zK/X1V7v39y3+8/vu7vy1Ksu91xwt/Tqb9/vovXw/lb6//XNC9Kf7LndP6fec/Xj8j1r8/zq//7t3N3Xu+pxvZmFL7eahfjxK+x92TKU/vbcafyn+F7+v70/nTHNG7WPLtl5/8WaGHyLLckMMOI9xw3tcVFkPM8cTK1xhXTO+1lmrscSXvWJusP+HGmnraqbGYi+VNvBp/jyW8+/Z3uxUaN96B34yBiwXeEZ3++t/4828vdK9CPgTffs2T1jcqKRiGVk5/81ssSLi/4qi8Cf715+//07oqtcub5sYDDj+/S8wSfmJLcZTeQid+sfD1ByTq/rkAU8S9C4MJiRXwFlIJFnyNsYbAPDbWZ3ChRtLEyRKEUuJmlDGnZCwOGcO9eU8N73djid/LYBYLUZKlytL0NFirDLARPzU3YmiUVHIpxUotrfQyLFm2YmbVBH6jppprqVZrbbXX0VLLrTRrtTXXehs99gQ4lm699tZ7H4ObDq48ePfgF8aYcaaZZ5k262yzz7EIn5VXWbbqam71NXbcaYMT23bdbfc9TjiE0smnHDv1tNPPuITaTTffcu3W226/4/eqBffSLvzTn//5qoVfqxbfSukX6+9V4621/rpEEJwUrRkrFnNgxatWgICOWjPfQs7Raem0Zr4Dc6lERlm0ODtoxVjBfEIsN/xeu3+s3B/r5nL+/1q3+GvlnJbuf2PlnJbu36zcP6/bv1i1LbZZPrm3QkpDTapPpB+/sAjvQxLYHGf7u8K4LNesYbSemNTDNIbLs3DBPNIKc7gw9lqtljBbWSOGlTNPEoz7rjjn4hIpnjWhlsbDlVIHeDWXGchW7kyj3mQlulk2ycYLoq2ZW8/t3JlDun2XqdsHZnTkOiz2jVKYIFq2OFYv7ca9+qzV1nJr7uvv6b2uUdearJolgq0l63fH2ZizuhKrP3IHNQvLsLNIK7QzJgO/PHhebjAPcY22eDlwE/Mt7TPbhTD9KOWkWTqPN2JjGKNEhrRJoMsNl2Yp87Nsg+wvKdo+5XamgbXZtzGmzQB3GTUSWvCEHeZVSMRE9VzNQi7834xwe9+CkD/f/Edfay7EO5Nlo9RllYlxyS652H1lPNyzDMgnRUYTuPs5ixG8b4nWOfzdvi7oxohWoqFaIcFqujU7S8fqVYbtsftprM7uSsXNSvXAtK9U+bJ2+VEFkFEaTN+4Yy6onzv5Mhyxck5toUxB7Zi7nL6bXVKlAVll1R1H2/u7xRmdidIttLJjNqKkje0HcTQM8iUoSKtDkJG58RANp5Zxbsu8O/HDEzdRto2sUbTELwBCYaD1UYkD4ln6REbxYxaWidzEXAWK+DeXRlQQ4/v0cnV7lpeImlvJOcdI2xbBsJfbBHXn4WoduYw20yYYnq4qGh95WcdkLLpb4MG2cIz8HcQ3+AMw8dAdprU9bX/BUHL+FRVh8ViLhAUgGtECRvBoglqGQSSnOm7JV6iZVpqsv2M+VmVCDlh2U+orM+WnjzPatRmPbYY4F7qD2AZI8s3++97/8dX9/YV/+XXuzEoHa4BW9pPlSX7HyJQRMbMzw4XsP8CN9cLqxM0992YuTrpxXKuxtFELHEtk8jwJGD2Zy+9vLm622s6bDVckC8loAGCwCtYz+LdglDVWY4qPP/UuaGEI1onFWAcIkcF/ISxIE0dABbj+5h10J+DI6Gut24aEuuFU2r4F+FJG9X6bpbJJ9X1qL8DaHiAPeuesfovj3QRqUUI9DYYgQ1bMDc5Kcwtreq1ldn6KGyCcct2Ek2aPrCCu/PgmWze/QfDWiMV2dsh3sX6Wm6LXyHVuWEe3SfAQa2uTri3Pjlycs17iaI/p1jpnbGOlZ68tHngxN9kPxtI7wxe+MiAi2t+c9lzz8DwGXs0ag0ZD/Fl3iMkY8WtPRYeumOlpkpDiyUpug4odHNTYFF01z+sLObZgUAKAGbqBzHTmDyAOKlZYFSgCbPtovkCDo9k5B6Zt9xAq/SBHBkjFjN4JXPNk7QBdTFj1Dg4ZM60bF4sc4JvDKPYMTQgfoCYDJuAEEIt88FuAElZF46FXS7qHRSL9izuzpLeK/ja+bbG2+zI7pw4tL8wSuYmCP8RR3QwGMBhaeOYb0bBIfQT6deeiJsoEhYlgECFAGxkpuqpmCj5kzjpA9zB65DONaOHJDj+zzo3CKADDdZXUWPxoQ2xa7kTG8jTkBmm9JgvJTKBvNDuD+5M+cyGXECIELnIH8DIm39UD6jPY6Rkb8Mzvdx8NzQF68BT6byEdgI1CBKKLjAlA0iwpnIwC9mOGfR0zpMSBR3BGzD8eowi3GnPKTEvTrNt8XOiTjOhieQMK57YEpix02IQnz0aNNEE/BAs5wrAoHNYbkCaQ0RtopXp7OADeqhhWSHQHwnRLuucgmA5h57dqBmkwiF4Jaqh8zu1PAnIvMczU4Y6uQb/KW+Ird8khXBQ+/JIjkHArjGE5qBjdeSB54MrzzLyRn1yej8k4YoNbWZ/NYzFZnYw15utICT3arjuz1s39ZmILVyCW0rDDhOH5NlNMvCUWoYtiCbkZiF3oePmbtIQoItJqkVduQnRhLGRhqAekytn3qx8dZqwg+iwpLa2nTGKsa0yyr9hLprHWiUC2aSlXRyRsCADpHCGDiV4cK/MX7ujaWOizeUS+pe/YKwPYkOdhMKzdIW2RcqA3q4aWGGVDEjeVfjxpyvoEEfFsdeU9EpIQQyrNI8Q9kiK8BcLiIgQb6qsJ/HfuxCa86AlhLmFVqkAaENI8KytWC4ohgGveZvI8KqBGnKbFomYIuwLO2W00MzK9o0QL7uKUyMox2awAIpPkRKTDB4xG2JZvJ+U2U5V57F0nuA6qzLockYAlgGR+MLNtn97ivvn6+WHN65JKICozuRHX2yLCvhJuLCgqfF03mfHOVJARCpjBg2IFkLEd4t8nEdVSCnNe3CXszJTmKCS/qGbSAoMRuEtw0MJYrywmMCUWSdeFGACaEVBQ/pw8IUKAhYNEO9KPCSPWGmqX2yKRe0JHuY4IzbwMAnBb1hF4hghU4kIRPgBAFCFo/EGDIUOJu9niYnmQ2CTYBX/3PQ55ge6JKiMx40hLQRmLRubcUXFRl6v7WlTKIohD1CMfwLCRCRX+OVwAKHBJ9+4THkmnIYHKy2XYAS/Wtgj5bPQUeML1lXdT8BdhyVjg0isdV+eZDiru+lEPaHTIRMTrQSvkV9i7P9TMMlgowt7mRtwL7moqLBbZAtABUK24XGvf5IbeQI5cWPG0XD1agMjmeW+NRACSABfo8UGxVYhtQXs9IQlHYb67RVeJAVwPz01uYzUgjb7I1AzMAVNSzoi9dG8KeerymLDC00CQmK1T0UQDC2QOtQA+5RowA5Xxoz8aMtww040cAG5j0sUgxiPjIXmN0UMt6G5BbgWxVJF+0CgW5xC7CSToAbodERezN7DC64SrlIoim3xmsg7Li6+GIM0yGX4iHmqTtIm5HBvztuXiYL5z5hNuBfVBIMFuxM1i6BuTobghS44unYnXk2BdAtZhYqGawJshWHIWacaSbtgD72tteQSAaGBjVkDVevk5fMdrDEMkOIAzQx63w4uIZ6QZ4olEM2ybOPsg79vJHUdFdiJ+Mo4ac1M2uQqiEmzIAPJ1gfI8Wi+R0CLk4B2Pk2NhJ4DD5TOPg1pP7cWSr6xshWZx7uPxlGd58C4oSVl/R/jHKocO98thZekpAgPLiDfcefTEBEJSK+LWo0qDRaYfLdYx3SiaeWHl4FCrZEImhk+EGSVDmT8FvwztRWkUaU0mDDcOmgFkpGEgD98IAT4igdV2EMN+C0X4XfCVR2UqhVcTVSafgEXqk9zijYgWjP6xAUpz/5pBsdwmoihBR7YUYAu6xjZwCyIb+YYdj5AQkTM60hqG3wn/ToxsQjNDehAWYnPvBhKU4DBXQPrTugvwyshfsQ7KrEu3Zem3UIi8R6t8+b5RBZ2vozVJvhG9I9SWdCjBgFKWZSHnYJ+tqoVhakCBfLCFZwG5Wr9FkCDmVZHMDA1IyiCTUxlHtYhTVPDdCz5Nue2DpZBvR7mjnYvEaoYgp5CXqVBdCNE7DHWP78KCucXqPoaFcUhchgkuvpwHDlTxhXHPK90cuBEG2KK6Ua/CS1r4Z89ACAm+AmrYuAzAIPZUfbmwE94KhFKpZzEwAzNjYy3Q58Rhlcsh4Qja7lHIjufAqzSEtGfN0mfHXzlFgEseMg978ffZhFPrZEH83Ef/o6jg/qwyEMwZ3F45o8lWg+0AyYybjly3+A7OYt4aE5VxfsQIagJNTDa41YlRJQbcjxpkprUOgWQX8BNEhTXAFCMzlWq8jXnCJE3sA7mOtAXXA3S0ghTr1rrMJsAl9KIBlIjcgbA3phRWQzMFlgQNtwwkAfahRwjmxQMXSA6pnIHXWxTXoDoqiBgDXvFi6Hcoe0oHdviXSw4MAYR1yKIdZCLQYPExkDsxqDYAJzT0KjosShOCj3JWOB5oWKWtNeF3aaihqnJLWlppMDHp+u9dNiaXQVpXhDOsO3JRHlTPXfRY20Q+APnoDkkLqsWXJ4gCBKsKPyvgJnccWHO0xeGNNR0JQRYBQ4tw3WJrRCRwAEVjjkEwnCCTiE1kJcjslzDA8wGRMFYE/Jc0mKcseXM90uEANhnrZoTKTHUdhwY+xDOKkRlgpOQwSY0DQiiAInoghcZeQK/0LCMG8bPgC+8HaGL1J+zkOqvHN0A+IclzBFzsfWHdTAENECOACIq6mXhU7D/HdVsZ7o8ZR4C5kkKR5MOIkcZkLyA9MGoZlV3h3kbcpUCAHoh5q0bGg20DBMBTBKODu1Bgy3cmE3LoMcHuXW4FGYkZYx4X6AGwwvkIzGgXF9JQ3dANIHhuzDALk32kuxHlJUWVvQmKI/BqX/EEjbgR/ZdVhB74txLqLoy7CDHuElVw5kVXoMdxFoGGu45H1EeqBJymggnkwN+180BUpcAuIWpeZgn7uyKmGevMGqKzoVT0PdCKs4Cw8ACEP87VAnK77xRhEqQk864oI2VTIUswTqomA/hcodt1Y6kQRjRYTUF15FeIgNGEvQC2gKHnnlWli4QaIJf9CARVMYFtmPOxAUJL9YZ/ABKizsBTDB8OGgGJGjEPVqqCj4OMGAGVNydZp3oyxMIk8ehoSENqYpYQgJNb4kWPfCBEjDwPKmFj3ZX2Txzm3cgXuDFpYeBaAhby39UJQr0ZMEY+kwKJpTWAuiCyxMpo4s7knnfBYHCvog00hGCzKiMINr9mcPCDl5zsNWwggWCz+VNUw1gQPvnVsAnbJdhJIUn9aG1hdCkakI57mOMWWCyYCJboLA/089XPWKRtf9DqX76qlG0RD7JZSei0B/QROoiwJfCZgy3lD05Xbsy44BHW6qxG6IdAEn619SwRP4nNyCOu3vCrx6EqinYmEqyKHb3Wrmm/gpiFl+Axw0fci4MUFuUW9GerJIEP3LgSpgNhXF3Ujp6qzLVoAIPUUk3OQJPikQJYB/IDxFgRp5dNG6hFtY+EaEqeKU6i+eC0WwctKVN6KBheScvUVCsk4wjoiDqXZYaP0X3IydIrz9AYI8s+oDpVga8DNxgYjA5nVJZlNCBXBSwVWhpakHcQX9oOYVVhT7i6ZPAI3O1bdR74HZxy6KQqLpeoHdJnUucQ4P6kAN504kdU3OBtzPQ6rSTxU5ENqZIJgOFcDgpLeAIWwINbIAoaTcHE7bRVu68s7ggB0rpclgXB2qAcJC6vpovERM8WRfb+SlDwOB5Vukb1UG1Gdf0XCFa+BjK6w6Fcm2iDOof2ADDoWzVSzDEDXU86xHhkwSMAvp6DU8WHtxkIeKJKa7UFcli1OAW7KtSKrwnZhdUcsYx74Be1gz7wpIHF6OWoqgPXbDG/nCpgTYwyrXAG03S8HKVUN7dgKTsXAneRpRh6Eh4eR8suFB3SHUYVK8Kdqkl3QSuGjaUGzwm2quVsEchknpsLgj+G4mWzBz4MD1MBSMRNUcUhiE52A0/hEUBqBs/74a1IzIAYsOXUzgAIuYijHluOiTQm8lUCRxmR3dguFGkVJGs/p2qj5KqIFyH9RVZ6EgdwmuMktyUKxDBPgAalPyGypfdZBcmWGxZj4KWNpwSGD7wUEbYgCFApQUpwF5mapiJLm3kB44hNEopsRiCB70hoHlkbc+ge/EFXsepoj0GlF8gZOxFS2zxafcAAD9vZCT86MGwsxYOu1HiA2d9iQDOgLMvKoqWovGjc13MJPDnR4LRRcqVcwAuBx1LB6KJvmOBUj0exseJTzgeLjn+t8TDzpGfCADeFmgok20l1TUhOsaNy3kA3EXKKna2ZvA1jCFpouzdcfLukC4ujSwfQyy4YlSfSb4JSPhIcW2UwW9q2LDeBLERuuoIzclgbZ3fh7+GcpRIBEtlE6B2Gv6CpG1eJVrSDoWQPKEmfM6Bit+EZPELJ5Eh4srSxnNpLwqhUeWzEVtgy/mSFS1+gqMCpOiVuDUBHtYFSWFUt1UrAGzAKbq6HbkwU7BtJFKBGlY+bZ3doV49AJMcRjaWr/vr2mSV1MR0NXeIrT88Fz4RFiLoSUU5YLlwRY8SRk37VLfgndMTVtyViSHxZwFnwbQk3BSsgYVtTTTGftx+IEYceUbV4HW2MNX/AI0TGGa/6sV8h7vgM48GMoA9aX4bjcjF+IcJ0XbVWYT9Uzu9fiUrEK7JLm+II9PwQhB+x9rA2hhy/4CGJdoiuqwUP0kSICpWGcOmC61enedsw3RyBquV7mSb5M4h6TZ52+K9VuRBMQBXFg3RTG/rfRlaKdf6Fid2fVKwCCI4nAtFIF2FEJnzRCkVlgAGESi5FQADFwpyemiSlLG9nQDbrDVnHw+CQNejzSpJDipEYqggXjd8MuOAhhaFa0gnk4FS5DQIVZHDrbSOhZ6BIyEblLTKjI6K+LVRtvU2cO5R2QNDb0AIBuYl8w4MSsekG7SY7YqjCJuQXKg9xbzMYeif6zbIg8lTQCp/AMEKaqTsoX+gTOTLEOGkj8AKCvS9tmeBeDTT0ibU3JDiIiJ4D1Fs7uOK79T8sc2OBEd2qvWuDBPdmqlLG7UhOFg4pi2RHg8PWAJ8gXxVzsEPZxsORbEcbHEwEsNeqdqpEvke/g/FNiIiIy8DEVwiGnGKlEnI3RRUSACNtXmXyCfuZR2fZFilhsi8kObKVvB0s0HTkJOpa24V4nqsak2oPU3vsq1cMGRzLdE3xT1o4DBkf0tdi7UdC8pCqKGO3hAzaMLea59xpaTMT3ho/KnaqEqF97KY6jza3wLow0XQWGOQ0oKu+bfpugYyuUVU2nuM+ObrbXIiOgBQC472NWHPUyqF+oVASTZFtT/uqyyEVR6hBxRV8VtsaCUrcwSpTrSEJsZaAAEj0pCdSVGRvgAY6CjRVcY7cXh32cVsNBF3NMMT4uvEV5ppYrURtLk6PMd08O+GCpFja8xoh6wG0m6SIAbhqdarwedlFVqw0eVm0JlqZFAX1MYcQ4XyXZ4rIRc0Q9HOxZCyJNAbQha11ZCYT1Jk/Dy+pBgiXdrzgAVlgk3EegSIK0ZrImkEuJ5wDZpbMAMfRBxbOcYnUw+uSU9r6yheVsFFE8CbMPjOTLHRCImNp/WShUfGvTaXHiC3gH0FuKDn1Z8DHZTPEOOHTsXRTCZ8mJ0dKYH8IH/U7YFmIuYzKRhUttRYQKJgEEN9F1g+LP5v20rZ2Z+8msrN20BjrRhBMhM7AXaJvo8xo3hhC1K6K5fkKvbpJsFcyAZGDBWaOglYCHmSRTySozBBB48Ep18ZOMc7dKwAEYCzioan6Cwq7ptLzTm+PHjqa5TWyYEqj9jg9w27gyc6yu+j5r3WNIOgLwCRisAma8OkEoyRJjq/lgVeINgQj/wEUhBfoeQq+MfB/fhM1hLRIob22ItYdOo5lQ5CPRL+WmIiQvA1dQ5DXdFTQVfUaKW2CzcpwhRAIlUuEoFgW9IQXZclLcKipK+OuHXOC7cJICJqx4NfcvYpZKisX8KmdoDYk8AWvDHBtHAkUnhR9tzlTJ1axt532bU4umCvnf2f5qnwNdqiiGSKToz7H20NyEDJqGg6KFqKaTcB4RCNECbIJCNTWM/G7SDeMJ4YnY++mgqlIuibiJKmLldGC88yxPYAno1QSQFgi1/0d+HQArCBNVAzEgZwAx4as2oikRXn736miIbVrwEjFpronouRKI//UxxjdWeRK+fQEikC7kZ1gq12tDQXjyTfoo6q2J/RcMW6MdyNkrKjAhe6+KlcDkaXmE0KBKzHYr80ZAJjqDcXhw6fiG/d6iRrr5NUXkluC4cELNAlaDeukatFJyADyRXXEMFWBh1ubnF/ACoAVZyW3FDAZkQo14Ayq6nB44xKJS+1vo4KwxTJISQTJkMmgjnGaCeAvRJwkcTtQtrbVCGklSVXJEnYbhLd6a/bMh9nfmq2d8aHamLeWYQd5aHl21ljztNXugX7WRikQDLGp8I1GRn1rGxQ+LkQw6F/1OB77kFT8n0SSP5CUMmbBMNDRyV7AitZVQ8rqLM2uIuEq+3yEUmTHAOKaf9u/rCKAUVSptt6ydj1hJneVXsZianNS3R4sWQYotNGdqy5JxGEvcOwZl9WjWrJj9oSAkU9J/VGqXTqxjqa0qXMhHoAXFweKym6QF109G4wYo7PeiOGPo65P7duM0hSBR5tNjtitrzkQJgQ0qtr8iswCSRf9/sW3GTSE7DbYPplyCD0hy5C7iA5IY5BrFZSFxVC4aPYTJfHgMaxRJe+JK27JuleeLL09cHw6s66KBbfELJDF6LxC0qKA0ETWYkGsL4J5Lm0qM0gQNSAugopeuOGdVdrivQ2bgyXFOWaNSOW66sD3JxNQ30lVJKaueghpi9AYCyM8wCXZnE01PiOeIWntYwGNV3Amn3vcVxN+O65VhUMVkEyljEpaHUHs4YFfY859lQBoq5qadsA/AqUgZEi76wJwCguftZHtJ5M2176y7gQIfFQ7RTHVt1WY5DGiCpVTU4kfx8+FvpZkDUH6dognvil9kmZrPQlsqAiPcwDD2UEcvBRJtm5HEJXAitiV1oWLENHAiIYYQkCmqU6TSo2YViISDSyFi9zuanpB65N4SQ0p2oFnCRALcpyxem3Auv8epK2o3CbNXysCGFRRQzsDkc+HtyD2uQaRjc4GbsgtspyM8mMRler2ULcOs1pwYRsThQjRHq92oYk7QmJLyZNhiTQ1V8TuSzt4fPdqjBMASQx8qikFkDHtYiF7IjoZOH3Ne4I9SQtCVkkXOuBPAl1tYA5VcMj8RoxHdRwyIrk09Xpahlpl0whBRDusH361xOEDLkhsTh0MPGRTc+oIar71KpmrORA11N6eJuG0pbThHvAYhQd0YDmAKBS0CvbkouujZq+eK6TcUaEe4dSEtWqICfz6VdMYil+bx4doqKvNaMlnad+g8pTKZHD/ejVO7fChC7ZGqr0ZsMpQXEFVrga2I3a1k9DV24xTOKoiw+GjRRTBAVgdZolFWhhebSmgncsUWk3kHjjNlZMavrSVJ6WHZonvpBKC/QoquDfyF0+CPFYrIMgEOmeuoVgdRzVUMImHH4RR4BvQBDeusjvIBNBmu+qq0tRNHrq719lm3BfIR4kE7MbQbkpmBe7BOWObPjJXl9JlkrEzECqgpgaHgcwmlfd1BO2KKj/BBtxfu79kB2kgmIA458HVwvfc+giOcMlXpQgoDqZHIoGt+KLhsICvU1rnlu6PJEBkw5UdO5aSCheAaRAWPiWJ1kK/S+WHzyUAPwCy02rhMt8lKnJB1T0CmaBDXMBmVRDM1bQzC1V1ta7Y8gq1GNc4PokJm3fEO6KFaCncFEebY0TFLBgWdL5rBWNwqrsxOPSB79Yn9lHbYcIHhW8gANXJUoJOOeFngLhU9vhxh9qc1KYl6jci4pkH/6xsEWgLQ62g4iNBetWXjvEz7fvDtgCUquhFhRSdadCWSKwpP1LBdQSMmspC5OmBHNtQ4WyqvriZfWE26I8ITur4wHwu7ZksqKSrc6RDC9CSVEUAzu9PpTZgzqPUjDZlm9SoU4ux+jjLSfHVFFbe6n0kD/F4OlqH3NxIfxUs1ZNOIKkeRbxq2xzNjKYMKP+eMnCEc/Nbm4NTxR5WkzVUvQorywoRG9qWYUTPrPbXYUFs9K8rDYxjjgQp3l+pZMxfUAd1B6LUVsiTZ68SBQTKGw8JU7Xdbt2TNYFFUX842h6G2iAk9g92AS3jLph1RAvTkXjCrD29kVHB2oV4XT+vCqSmPtVP2zJc5hbMhQD3Iw2bjnIsdU2oooaBT6pzvUgm4yVHe3vdt6l9/bU3Bu2/evXu1HcaxYm+sygBEZ0AV9WapE1GVC1ORcKGacerEwxwc/lRzeqwHB+Rcu1vjr5v9DW8nsvX9slb1UNxs/ovJbYi9m4FX3DaiK0L7d5ThXeSaIhld7yASBuSSGzTCoJZy8vyvhofQr1pF0hW4+iYywUxYQRS1no+Rz0pAy5zQldmTs05XQ0rPOFZaJmiNrujJoPSIarO6lS5B1VKn5ckYtQhalVmpian7bmhJj/iXMdPtD0XVhD+4tjxNLDw1tbC0YZy0YbnairkwwMxPFLjqorsIgO5uPUGetW/88lV9fWqyw73AViCDVWdg4lQE3N19UqGIT/ai/YkphSbfDkYgIJFxDwe2gEli2qDCxrxpV00IgOriDAienZbqCA0MxZ+v/Otd6m5AhXwXG1jGdQYopOJa+KVN9wEaBT10qMNT7aq0GlqI8LHDjgNDkEDpXVcXngCj91X6VHhAhdq6yNINAwk9/Nn5mcsa8gRwu/wGlauqb9ebcOFrL9OhTVYF+Bhwea8ACSzwLDUsagjJV/lbjN1amYh1wZZA7kQVmj6GJMXhw13GsuApsTztgSTo+2ALwgpqKcGiV1WX095HBXxEqBJPuu4K1YmqrmGQWyEFmISP74AVJkEqapvAOPFjQ614MqAE/gISbzI1PyOEQ2/lKas4Lwe+kCM4hh3iUrDWaX8cX2IRQS0KD+oS7fxO8kUHEUwNNRPjq7wIwGUOhWTJCLUFBK0QTCFKwvdhaxGTFaBKA5fCSWhbVcmU8Gv8uxVP27je/gqooago1M8tL7h0nBfm8rGyeWkk1cEwjuyJvmq7kN1pp0qNyApE6rijCDHVQ88rU4X6EgVqc9Is0rCTVo16tQay9DUbV8QikH2Rb3ak3VLkv6JdD1W8IinuZNAAhv84lAhc2tZ8AzITAPqddL1HbPUwT30kPbl9/4aNYbMhMIPxszEEaGTVQWTmVb3s/bzsvrpm7roh7pd0aFGHIKs6Cj8gbbHeS4seIaTu/m2l5um7dqhQ1CLK+h4U4iqqugQgZp9kXVkdIz1OypSccNdDIiQRGjjBpbqAdO9EsFrIypaizsRTxJrZCBoOnUoTnef3F2HOWeUfEIszIu1YcrVvZSCHORVG4taxXWqQK4fR66nlQBihRB9RFJSvzdAqTbtqQNZOBVkzDtQxy3Xh9nSJjqI+G96h7R7w6yzoB6aFJu8169YZB11NhF1y0UJDWRC0AYgo0BHV4EgeY9EAibUdjabjoSpe2m88mV7TR6YElODZupgoDN0r+7Z9te0vYtpzwulra7Ioj10vLAe+UG9mS3JUW6O4ACHVMRdFzxiwuANAAtg2CovSWQFnXFT19nR2QHwybSR1EvE2Wqvl9Hl2n+88rrMZHVeG9AQIxDKTQRN+yvx4tnu6n2jaoxE8Nr4Idq8mmTfSTZtdrGExNtFsroRtPODEiHlZ1MzK0EB4vWw8dYQa5HmgpSGeF4d8RaAnd988K3JWg4UyPGdX27ajWIk6lr5fZY2/etDfgSLTh1PdL963hiCNnwJPfw0cMKUetw6cwPHY0TUCwVBE9glN1VTtZmnfwNG40luzHhHX4BQTu5x7IGqFwoFhNgpTVSmJkv+kdAeg98gqfG5yPeoc223gtXIi69FZOApnIqv+kgDFJt2JwnW+jbEcflZTWGH2WfS1QTN0quzS7sKVrlNi/eVpEkOrCiyFK7JlwyX2ukpeckcle+L8KSImVlXJHFXe+PwfXmdTmqI6SqHCLFpCzonT/ySwT5pH0WqdMsBS39r81ciCXbQHgLACaUV5e3PqTNUyRyfHXd/+vMyp7bq5DoB2imDpJOAV8Uk9cDKE2qrlHiY4NA4qyEVxLduQUumzUZIG3J4HiGpWoxDNRXM0BYLoNY5sSqXqaMETe1C89VSSSZhDFCbgQa1tHZQVchi/fBcvJy/Y1k6GJT7UavcmTsc3HKQHeQGSX08k+dtIzgmbeEx4SPcEhpufaeNt1QwqCEJqTMgRaVadaGoQ5NYVl+sDB8zhNfkco6RxSs1bRnuwBYg2Axc8bVnEA61/dBT+3JNvGDHAvRYxbKvIdovHTE7DvgE5HUwr2qJ4Kx3YDXWYnUtAk/12aUmV6JFRaEBhhDDgkx183A3oKJO90pJKiGiM1nfAAbmHNQLz5QSWaSUdl54POh6SspcbbeX5EEFWIXAR1BMAlKVLoYLny+dFxYE/HqYm38qxQXFy8s9LS1V18mPt8epfSj+0iEDlycAukaSs9GJk23tV6/N1ZZaR8yrE0PH+SAt9ScijNJSbrce1c+vp/OOl9VLrX1g7RCgHDE5/YmbohPGGx/zCkBJn89wiUOdOsvpaZsDsensGDL0HRWehDZ6uH677K8FRQ5CR7gsvwZrdLpOY26dk0VeppNej/xAwmgrq11kzVHbXOyvPkGuadNNZ7RKeAf7vI5S2UL5YaZ1wEHt8jeqyS8sbbjFrYMKq0n6ER0VqIC79fzarPWi3uC1YaC1WuqKiH5qJ5YcDiglEhOxWVQSQho8YBuEF0Ics74nj8xPuEHRCRq5kqqDyVwoqyyiDCAxcepFRQlWTD4HSY/eJLJ9VVNKzlsn8fzVORl0BXNtqf8cxfABvfj6NN8WDJJbZMoqHsNvFiSdOQRPARfKrEfn5HUQE5mPMgzt6AMNdFJkqywa3zRftMomXJAj2trVkYIp39HUxYqhr+QxcajD8TBXNx1UYyDzdaSqU+ZebdDsVdTQe1QwUiEfj6VWmo7zcOo7VSEM0YjQIBPfDPJNZBkUAEGtsKotBJ1h/GI96fyDpLC38c50XTTkVJOnjgwh/bSdej4MnDoOwYNodxZAhKHfMfK7dWBOp23UV6puyahPDznbeR2bR/apjBCt6fxs0klXte3+Opj1j3NZatnUAAvuTrj5jmXpVFZzpIXPYsxJBkUiPPhXQkCfAohKP7UQhMH0V49qI1oxGajsKLs3No+eZGcxNYoY1kFtoBAu9/Gv+OljYUVRRyCCDj0xbQPL6dUByXLcraZnHVUBOAlAlxGraqMaWwU0qf4E+HlSUk3PV+yqJljsmnre1RcIjXb1EVYiT8fFJMl2cSDC1oaOdPWr/xIez2xzF7UGk6kyRVOmjAnHBGbtNHd7vfkbsZ5Ywx1cfdZNTts3g96zYQwQQdq50Om4yu0knLS3CcXnqD5Hf94hbGh39yaANlStNM0q2rXbWa0IBa4Wdei8de5REamNQ52hwJnwW4DBz1FKoHb9olennVSmUKdDZABnIzVV/lAhRse+MQZHFUV9HAVs/TYudaBKraHgDOCNlSU/QUgWYIHq2SeVOkUZsEu96dW2iF7CJxfBMgL7ZlMXhxwLYi6+k6d6l0dnZ9FNkgIbXIaE5X6kNWD/1R1789UkP4map4cCjP81EBPRXSdR+aY68Q84og/hUCelOnObCnna5lPZQ0VsQlOfmfD6HZpITecsuj65Rgf1ATZW3BVtKngA8xziVi1m6ktVtUd1bHBfJRs0mo52Fx0bVugKDDFrAT7UEa4Gvjmds9KB3bePJtTNFnGy6nP16opgEd+x8emnrF3UCSJs911edRMe2atxGOWvnkHEDh5MRQUYCWuEcFxBfQ/q8WVOhvYacDTrHTRPXZpb2zNeh/nUF8wQnHZo67V8EGtBMo1B62N+1NStug7GG/JhfmIJTTt4hmdU2496Iw6WtwpbUf46jp2nTpd+mXTyUHEM4lc3IH8dABkjqM+wOKvKYCXZN6iZ4NY5P7VrXK/PZHknLLSZQnIIOLh51ZHll2yPCJM+OSSY1gim7owGRY00mVNgMpLOQdasGuvP5zssbS+9rpUMOiB/1BP6+zxr1cFOooig2DoX6xkV6+Izka2Pd1D/t8Y6F2oyayfOq90U0WHv1OmVKtk6I7e69kzVXqNjYYjddRYghEwt0an1rf8cZ9Y+1m/LsbpF0AZcjT+fa2DvE1Ke+zJsbt4BIAsi+V46IoK1jWTSfkW+q6YyfifxOwX7wIWqGkMTiRxVfVP7nMSmxwyivXgLkX1rd4ZWQmahr4skuAmwQBF9VAT+V58MU9QOD+xXnVMGzXiS3ohHHUv3xL3Edu5O5k0FfFx+1lmGn667gob61fieVVtRvjaGfbT/h6MybapJL6M+kETR+Y0t5jL6IAbF4W76AB0dcWYiEppMh8mYoSAvLC7riav8IBs/rT+f4+H8f/7pLnV66/pgB3TOnnLRqowGVeJVxdF+BekNAUHTDftw1MRZkQE6Z59u1pFdHbKAX3D+uDCEiBpQJHU3DnL+bLiJbv5RRegAYYBEBhndbsBEvg8lGF8FP8WZ9GF+KjXjdbSz4rSFxXxDHKmrm7plFWS48uuXV6sWHlVZ0XWeOXq4brV3El37iTqar+JZnK5ANoQ4+lu13tLQAzICPO47i4hwVmutCoL66JdRgyrJksnrvhuIOxj5dUglElyyIan0snD2aTGV74AF8hdqVA8kca8NSplGAf/XfHHVxx9JztqmU82CKQNtgPhWdfIF3FOHDAAOUrf2zltNz1xNfQQFZGlMxVWFrUtni6J0WqyqwSQkbXiofqBqGvpsoGIAT31+BbGrpyNzJCGIcmTFUZ0pZRmSqPM45Fp4ukkFzieQOmY/etVXYnlbmstmtLes+vySd96SpZrI+zk9q6zPnCHb/KsfxeH/2Aj4z75utYgeB8ZJP3sdzLg4TUOxCwqazSCVAoYUaRCiAb3xPoxlMOxArMBwTV0wzCmPpgZHAgOx1lQZQYWrMax1HSHlMt43HSPjtgla6qovg+sAmnpP9PEs0a+9fAuIUZb+xvv6tPXBIVctdkPHy63q8w6CPr0Hp0xOoa1MtkZHgHLEu30+u+izdBzEesgNBLShSGXa+9TJotkCWhdpXIW4qhsWKGsnVa2fY8/azcj6CBeDBIZTYfnomCgvaFupKb312TJdnwqhDkrsmLa0WXdAXYf7sIY6nK/+EtKOmcQtbaeKnIdlzrDpz9MzXsdgDLZR70b6BE0Aa7Fap+qTiS756/4fyW6Z390eeBgAAABmelRYdFJhdyBwcm9maWxlIHR5cGUgaXB0YwAAeNo9ijEOgFAIQ3dO4RGAov97HMJ3cHPw/rFhsITy0iL385ZsrTgEMzzOWBqcX+5W6hjEhEO58MW70w2z22J7MTMkIIQkjn7rCCof9iAXWq1EqNQAAAGFaUNDUElDQyBwcm9maWxlAAB4nH2RPUjDQBzFX1tLRSoiVijikKE6WRAV6ShVLIKF0lZo1cHk0i9o0pCkuDgKrgUHPxarDi7Oujq4CoLgB4iri5Oii5T4v6TQIsaD4368u/e4ewd4m1WmGD2TgKKaejoRF3L5VSHwCj8GMYwYwiIztGRmMQvX8XUPD1/vojzL/dyfo18uGAzwCMRzTNNN4g3i2U1T47xPHGJlUSY+J57Q6YLEj1yXHH7jXLLZyzNDejY9TxwiFkpdLHUxK+sK8QxxRFZUyvfmHJY5b3FWqnXWvid/YbCgrmS4TnMUCSwhiRQESKijgipMRGlVSTGQpv24i3/E9qfIJZGrAkaOBdSgQLT94H/wu1ujOD3lJAXjgP/Fsj7GgMAu0GpY1vexZbVOAN8zcKV2/LUmEPskvdHRIkfAwDZwcd3RpD3gcgcIP2miLtqSj6a3WATez+ib8sDQLdC35vTW3sfpA5ClrpZvgINDYLxE2esu7+7t7u3fM+3+fgDFJnLIIOZz9AAADRhpVFh0WE1MOmNvbS5hZG9iZS54bXAAAAAAADw/eHBhY2tldCBiZWdpbj0i77u/IiBpZD0iVzVNME1wQ2VoaUh6cmVTek5UY3prYzlkIj8+Cjx4OnhtcG1ldGEgeG1sbnM6eD0iYWRvYmU6bnM6bWV0YS8iIHg6eG1wdGs9IlhNUCBDb3JlIDQuNC4wLUV4aXYyIj4KIDxyZGY6UkRGIHhtbG5zOnJkZj0iaHR0cDovL3d3dy53My5vcmcvMTk5OS8wMi8yMi1yZGYtc3ludGF4LW5zIyI+CiAgPHJkZjpEZXNjcmlwdGlvbiByZGY6YWJvdXQ9IiIKICAgIHhtbG5zOnhtcE1NPSJodHRwOi8vbnMuYWRvYmUuY29tL3hhcC8xLjAvbW0vIgogICAgeG1sbnM6c3RFdnQ9Imh0dHA6Ly9ucy5hZG9iZS5jb20veGFwLzEuMC9zVHlwZS9SZXNvdXJjZUV2ZW50IyIKICAgIHhtbG5zOkdJTVA9Imh0dHA6Ly93d3cuZ2ltcC5vcmcveG1wLyIKICAgIHhtbG5zOmRjPSJodHRwOi8vcHVybC5vcmcvZGMvZWxlbWVudHMvMS4xLyIKICAgIHhtbG5zOnRpZmY9Imh0dHA6Ly9ucy5hZG9iZS5jb20vdGlmZi8xLjAvIgogICAgeG1sbnM6eG1wPSJodHRwOi8vbnMuYWRvYmUuY29tL3hhcC8xLjAvIgogICB4bXBNTTpEb2N1bWVudElEPSJnaW1wOmRvY2lkOmdpbXA6NmU0YTQ0MjYtNmQzYy00ZWMyLWE3ZTMtNjhhMmM4YWZjZmMyIgogICB4bXBNTTpJbnN0YW5jZUlEPSJ4bXAuaWlkOjYxYjQzMTIyLWRhNzItNDNiOC1iYTFlLTkzNzMzMWE3MDkwNSIKICAgeG1wTU06T3JpZ2luYWxEb2N1bWVudElEPSJ4bXAuZGlkOmI3ZGU3MGM1LWQ1YTAtNDdlNC1iMWFjLTEwMTVkZTFiNWI0MiIKICAgR0lNUDpBUEk9IjIuMCIKICAgR0lNUDpQbGF0Zm9ybT0iV2luZG93cyIKICAgR0lNUDpUaW1lU3RhbXA9IjE2ODQzNjYyMjAzMDU5MjAiCiAgIEdJTVA6VmVyc2lvbj0iMi4xMC4yNCIKICAgZGM6Rm9ybWF0PSJpbWFnZS9wbmciCiAgIHRpZmY6T3JpZW50YXRpb249IjEiCiAgIHhtcDpDcmVhdG9yVG9vbD0iR0lNUCAyLjEwIj4KICAgPHhtcE1NOkhpc3Rvcnk+CiAgICA8cmRmOlNlcT4KICAgICA8cmRmOmxpCiAgICAgIHN0RXZ0OmFjdGlvbj0ic2F2ZWQiCiAgICAgIHN0RXZ0OmNoYW5nZWQ9Ii8iCiAgICAgIHN0RXZ0Omluc3RhbmNlSUQ9InhtcC5paWQ6MzZmMThhNzgtZjU0OC00ZjMxLWE4OWItMWU2OWNkZjM3YzY5IgogICAgICBzdEV2dDpzb2Z0d2FyZUFnZW50PSJHaW1wIDIuMTAgKFdpbmRvd3MpIgogICAgICBzdEV2dDp3aGVuPSIyMDIzLTA1LTE4VDAxOjMwOjIwIi8+CiAgICA8L3JkZjpTZXE+CiAgIDwveG1wTU06SGlzdG9yeT4KICA8L3JkZjpEZXNjcmlwdGlvbj4KIDwvcmRmOlJERj4KPC94OnhtcG1ldGE+CiAgICAgICAgICAgICAgICAgICAgICAgICAgICAgICAgICAgICAgICAgICAgICAgICAgICAgICAgICAgICAgICAgICAgICAgICAgICAgICAgICAgICAgICAgICAgICAgICAgICAKICAgICAgICAgICAgICAgICAgICAgICAgICAgICAgICAgICAgICAgICAgICAgICAgICAgICAgICAgICAgICAgICAgICAgICAgICAgICAgICAgICAgICAgICAgICAgICAgICAgIAogICAgICAgICAgICAgICAgICAgICAgICAgICAgICAgICAgICAgICAgICAgICAgICAgICAgICAgICAgICAgICAgICAgICAgICAgICAgICAgICAgICAgICAgICAgICAgICAgICAgCiAgICAgICAgICAgICAgICAgICAgICAgICAgICAgICAgICAgICAgICAgICAgICAgICAgICAgICAgICAgICAgICAgICAgICAgICAgICAgICAgICAgICAgICAgICAgICAgICAgICAKICAgICAgICAgICAgICAgICAgICAgICAgICAgICAgICAgICAgICAgICAgICAgICAgICAgICAgICAgICAgICAgICAgICAgICAgICAgICAgICAgICAgICAgICAgICAgICAgICAgIAogICAgICAgICAgICAgICAgICAgICAgICAgICAgICAgICAgICAgICAgICAgICAgICAgICAgICAgICAgICAgICAgICAgICAgICAgICAgICAgICAgICAgICAgICAgICAgICAgICAgCiAgICAgICAgICAgICAgICAgICAgICAgICAgICAgICAgICAgICAgICAgICAgICAgICAgICAgICAgICAgICAgICAgICAgICAgICAgICAgICAgICAgICAgICAgICAgICAgICAgICAKICAgICAgICAgICAgICAgICAgICAgICAgICAgICAgICAgICAgICAgICAgICAgICAgICAgICAgICAgICAgICAgICAgICAgICAgICAgICAgICAgICAgICAgICAgICAgICAgICAgIAogICAgICAgICAgICAgICAgICAgICAgICAgICAgICAgICAgICAgICAgICAgICAgICAgICAgICAgICAgICAgICAgICAgICAgICAgICAgICAgICAgICAgICAgICAgICAgICAgICAgCiAgICAgICAgICAgICAgICAgICAgICAgICAgICAgICAgICAgICAgICAgICAgICAgICAgICAgICAgICAgICAgICAgICAgICAgICAgICAgICAgICAgICAgICAgICAgICAgICAgICAKICAgICAgICAgICAgICAgICAgICAgICAgICAgICAgICAgICAgICAgICAgICAgICAgICAgICAgICAgICAgICAgICAgICAgICAgICAgICAgICAgICAgICAgICAgICAgICAgICAgIAogICAgICAgICAgICAgICAgICAgICAgICAgICAgICAgICAgICAgICAgICAgICAgICAgICAgICAgICAgICAgICAgICAgICAgICAgICAgICAgICAgICAgICAgICAgICAgICAgICAgCiAgICAgICAgICAgICAgICAgICAgICAgICAgICAgICAgICAgICAgICAgICAgICAgICAgICAgICAgICAgICAgICAgICAgICAgICAgICAgICAgICAgICAgICAgICAgICAgICAgICAKICAgICAgICAgICAgICAgICAgICAgICAgICAgICAgICAgICAgICAgICAgICAgICAgICAgICAgICAgICAgICAgICAgICAgICAgICAgICAgICAgICAgICAgICAgICAgICAgICAgIAogICAgICAgICAgICAgICAgICAgICAgICAgICAgICAgICAgICAgICAgICAgICAgICAgICAgICAgICAgICAgICAgICAgICAgICAgICAgICAgICAgICAgICAgICAgICAgICAgICAgCiAgICAgICAgICAgICAgICAgICAgICAgICAgICAgICAgICAgICAgICAgICAgICAgICAgICAgICAgICAgICAgICAgICAgICAgICAgICAgICAgICAgICAgICAgICAgICAgICAgICAKICAgICAgICAgICAgICAgICAgICAgICAgICAgICAgICAgICAgICAgICAgICAgICAgICAgICAgICAgICAgICAgICAgICAgICAgICAgICAgICAgICAgICAgICAgICAgICAgICAgIAogICAgICAgICAgICAgICAgICAgICAgICAgICAgICAgICAgICAgICAgICAgICAgICAgICAgICAgICAgICAgICAgICAgICAgICAgICAgICAgICAgICAgICAgICAgICAgICAgICAgCiAgICAgICAgICAgICAgICAgICAgICAgICAgICAgICAgICAgICAgICAgICAgICAgICAgICAgICAgICAgICAgICAgICAgICAgICAgICAgICAgICAgICAgICAgICAgICAgICAgICAKICAgICAgICAgICAgICAgICAgICAgICAgICAgICAgICAgICAgICAgICAgICAgICAgICAgICAgICAgICAgICAgICAgICAgICAgICAgICAgICAgICAgICAgICAgICAgICAgICAgIAogICAgICAgICAgICAgICAgICAgICAgICAgICAKPD94cGFja2V0IGVuZD0idyI/PrrTQQAAAAAGYktHRAAAAAAAAPlDu38AAAAJcEhZcwAACxMAAAsTAQCanBgAAAAHdElNRQfnBREXHhQwImBHAAAgAElEQVR42uzdd5ilZXk/8O97zvTZBrs0FdQtLAusIFiSnxRjUEEFVIxGQMAWYsFoECGxYcAWMIkFohFFwRJFbBBLoiY0Ixp1Qem9RIkoLNt3Zs45vz9mFxbYXaadOe3zuS4uFpiZXe73PM9zP9/zvO9JAAAAAKDOCiVofbuddGdtun6v68/YxWsGAAAAe1LGzcUzoE0GAAAAtPy+1J60+blABraJAAAAgLbdl9qTNg8XwsA2AQAAANiX2pNSdwpvgJsAAAAA7EntSak7hTbADX4AAAD7UuxL605hDXADHwAAwL4Ue9K6U1AD3OAHAACwL8WetO4U0SA3+AEAAOxLsSetO4UzwA18AAAA+1LsSetOwQxyAx8AAMC+FPvSulMkA9zABwAAsC/FnrTuFMcgN/ABAADsS7EnrTtFMcgNfAAAAPtS7EnrTjEMcgMfAADAvhR70rpTBAPdwAcAALAvxZ607gqDHIMeAADAvhT70norDHIMegAAAPtS7EnrrTDIMfCFUQAAgH0p9qT1VhjoIIgCAADsS7EnrbfCIIfOG/gAAIB9Kfak060w0KGzBj0AAGBfin1pIxQGOXTWoAcAAOxLsSdthMJAh84a9AAAgH0p9qSNUBjo0FmDHgAAsC/FvrQRCoMcOmvQAwAA9qXYkzZCYaBDZw16AADAvhR70kYoDHTorEEPAADYl2Jf2giFQQ6dNegBAAB7U+xJG6EwyKGzBj0AAGBfij1pIxQGOnTWoAcAAOxLsSdthMJAh84a9AAAgH0p9qSNUBjo0FmDHgAAsC/FnrQRCgMdOmvQAwAA9qXYkzZCYaBDZw16AADAvhT70kYoDHTonAEPAADYl2Jf2iiFgQ6dM+ABAAD7UuxLG6Uw0KFzBjwAAGBfin1poxQGOnTOgAcAAOxLsS9tlJKBDl7bAACA3h3qrTDQYXo4EQUAAM3LvhR70vorDHTorEEPAADYl2JP2giFgQ6dNegBAAD7UuxJG6Ew0KGzBj0AAGBfij1pI37fwkCHzhr0AACAfSk0Yk9aUnYAAACAztKIILbohP9JaFZOQwEAQGdsvsG+dJpPQhnoYEwAAIAeHDpTYaBD4zkRBQAA9qXQ7ntSz4QCiyEAAOi5wfiou5LBDgAAANDZpiO7KbXD/wQY8AAAgF4bmlthoENz8XwoAACwL4V23JN6JhQAAABtSQAFzTVuSgY7WCgBAACg3upyxMomGibPbXkAAGBfCu20J3U7HgAAAG1FAAXNOY5KBjtYOAEAAKDepvRolU0zTD235QEAgH0ptMOe1O14AAAAAGzWVAa7pWb8QwHGFgAA6J2hvTgJBRZTAADQMwN1H18lgx0AAACAenMSClqEsBcAAPTK0MrjrGSwAwAAAPBYJpsBlRr5mwPGHAAA6JGhM7gdDwAAAIAxmUzwW2rEbwo0ZsADAIDeGGgUJ6EAAAAAGLOJBsCl6fzNgMYOeAAA0BMDjeIkFAAAAADjMpEguDQdvwnQHAMeAAD0wkCjOAkFAAAAwLiNNxAWQkEHDXgAANADA41SMtgBAAAAmIjxZEVOQkEHDXgAAND7Ao1SMtgBAAAAqDcnoQAAAGh6DkZA649PIRRYkAEAAKDuxhRC2eACAAAAsCVjyY6chIIOGvAAAKDXBRqlZLADAAAAUG9OQgEAAAAwaY91kEkIBR004AEAQI8LNErJYAcAAACg3pyEAgAAoCk5GAHtNW6FUGChBgAAgLor2cgCAAAAUG9OQgEAAAAwZbZ0sEkIBR004AEAQE8LNIoQCgAAAIC622wIJXEGAAAAYKI2ly05CQUdNOABAEAvCzSKEAoAAACAuntUCCVxBgAAAGCqOQkFAAAAwJR75EEnIRR00IAHAAA9LNAoQigAAAAA6k4IBQAAAEDdPSyEcuwRAAAAgKmyadbkJBQAAAAAdSeEgjbnhCMAAHpXoBkIoQAAAACoOyEUAAAAAHX3YAjl2CMAAAAA9eIkFAAAAAB1s/HgkxAKAAAAgLoTQkEHcLstAAB6VqDRhFAAAAAA1J0QCgAAAIC6E0IBAAAAUHdCKAAAAADqrpR4ABwAAAAA9bPbSXfWnIQCAAAAoO6EUAAAAADUnRAKAAAAgLoTQgEAANBQnlMMnUEIBRZ2AAAAqDshFAAAAAB1J4QCAAAAoO6EUAAAAADUnRAKAAAAgLoTQgEAAABQd0IoAAAAAOpOCAUAAABA3QmhAAAAAKg7IRQAAAAAdSeEAgAAAKDuhFAAAAAA1J0QCgAAAIC6E0IBAAAAUHdCKAAAAADqTggFAAAAQN0JoQAAAACoOyEUdIjrz9ilUAUAAAAaRQgFAABAQ3nDFDqDEAoAAACAuhNCAQAAAFB3QigAAAAA6ur6M3YpSht/oRwAAAAA1IuTUAAAAADUnRAKAAAAgLoTQgEAAABQd0Io6ACe+wYAAECjCaEAAABoOG+cQvsTQgEAAABQdw+GUFJnAAAAAKbaxszJSSgAAAAA6k4IBQAAAEDdCaGgzbnVFgAAgGYghAIAAKApeAMV2lvJgAcAAACgHjbNmpyEAgAAAKDuhFAAAAAA1J0QCtqYW2wBANDDAs1CCAUAAABA3T0qhJI6AwAAADBZj8yYnISCDhnsAAAA0EhdSgAAdJrdTrqz1gx/Dm8YAGx5fmyWuRqYOl0GPADQStqpR5mK/xdBFgDQKpyEAgAazptf01c7oRUAMB0213MIoaBDBjtAowiYWut6WEMAgHoRQgEAkyJk6qzrKaQCpovHxED7KTSV0J4LtioAU01fgPUHsPYAk+kJnIQCGwAADT91fe1YmwCARAgFAB1L2EQjX2uCKWAs3JIH7eUxF38DHlpvoVYFwHqONQywhgHNtp47CQWad0CzDk372rW2AUD7EEIBQBtu3KGdX9+CKegsbsmD9jGmBdyAh9ZYnFUBOnNDDtZAayBY/4BWWJOdhAIATTe01TgRSkF7bmytidD6ugx4AGjezTQw+XEklAKA5uAkFLQBzTW0z2YZqP84s24CQGP2pUIoAGjgZhho/DgUSkHrbHCto9DaxrXgGvDQnIuxKkBrbXgBaytgTYVOXDudhAIADTKwhTEskILm2+haZ6F1jXtRNeCh+RZiVYDm2rQC1lzAmgvWx0cTQoFmGNAEA9ZhsAYDdV8Puybyww14ADS9gPnAbXsAMB4TWiw14NB4ml2Y/k0mgDUarNHAxNc8DyYHAE0tUKc5RCAFAA+Z8KKoQYfG0dBC/TeOANZvsHYDU7uuOQkFgOYVYJrnG4EUAJ1oUoufxh2mn6YVpnYjCGBdB+s6MD3rl5NQAGhQAZpgbhJIAdDuJr3Qaeph+mhOwRoFWPMBaz606hpVGPCgIQWNKIC1H6z9QL3XJbfjAaD5BGiBuU0gBVvfGOsFoPlN2UJmwMP0LbCqANYfQD+gCqAngFZbe4RQoPEETSaAngD0CEDd15zCgAdNJ2gsAfQFoF8A6r3OFAY8mAhAIwmgPwC9A1DvtUUIBSYD0EAC6BFAHwHUfT0pDHgwKYCmEUCfAPoJoN5riBAKTA6gUQTQL4D+Aqj7ulEY8GCCAM0hgJ4B9BlAvdeKwqAHEwVoCgH0DaDXAOq9PgihwIQBGkIAvYPeAf0GUPd1oTABgEkDrAUA6B/QcwD1XgsKEwGYPMDcD4A+Ar0HUO+5f9oWFhMCaCDRAAKglwD9B3TufC+EApMJmOcB0E+gBwHzfPuEUCYH0Dii8QNATwH6EOjcuX3aFxCTBGga0fQBoK8AvQh03nzekIXDZAEaRjR8AOgtQD8CnTWHN2zBMGmAZhHNHgD6C9CTQOfM20IoMOGA+RoAPQb6EjBf111DFwgTCGgS0eQBoMcAvQl0xjzd8MXBRAKaRDR5AOgzQG8C7T83N8WiYEIBDSIaPAD0GqA/gfaej5tmMTCxgOYQczAA+g3Qo0D7zsFNtQiYYMCkhHkXAD0H6FOgPefdppv8TTRgcsJcC4C+A72KKkD7zbVNOembcMAkhfkVAH0H+hWgvebYpp3wTTxgssK8CoDeA/0K0D7zalNP9CYgMGlhLgVA/4GeBWiPubTpJ3gTEZi8MH8CoAdB3wK0/vzZEhO7CQlMYpgzAdCDoHcBWnvebJlJ3cQEJjPMlQDoQ9C7AK07V7bUZG6CApMa5kcA9CLoX4DWnB9bbhI3UYHJDXMiAHoR9DBA682LLTmBm7DAJIe5EAD9iCroYcBc2FpzYUtP3CYvMNlp3ABAP4I+Bsx/raHlJ22TGJj4NG4AoCdRBX0MmPOaX1tM1iYzMAFq2gAAfYleBsxzza1tJmmTGpgINWwAgL5EPwPmt+bVdhO0CQ5MiOYzAEBvop8B81nzacuJ2UQHJkdzGACgN9HTgHmsubT1pGzSA5OkeQtIkm2+t/Bh/zxnRpGnLOza7Nc+ccdSnrhjacp+76turuSBVZsf2pcuG37YPz+wqpbqy25xwUB/oqcB81ZbzlttPxmb/MCEaa6C9rIxUNo0SJo9o8heC8sPfs0Bez88YCqVikc1QKUt5ExFMbUNUnUro7tSfcS/qNUe9vXLV9Vy9c2VB//50mUjm/x6NMASXIH+RF8D5qtW0RETsUkQTJzmKGgN23xv4cPCpY1h0qankzYGSo8MkjbNmUql9qlJdZOgatOA6sEAa5PgauOpq03Dq41h1f0H3+wFBnoUfQ2YnxqqoyZgEyKYRM1J0Filry3I7BlFDti7+8HTS5ueYiqVioeFSxuDpaIY/Yutq9U2/LXh18lDYVV1Q1K18TTVpctG8sDKaq66pZI77qlm1nG3KiB6FPQ2YF6qq46cfE2OYDI1D0H9rPjc/Dxxx1L2WlDOLjuVs9fC8oMnmUpFkqJIeZOQScA0vTaerKpuCKxG/15LrfbQSapLl43kjntGwyknqNCnoLcB89BU6dhJ1yQJJlZzD0ze7O8uzF4LytlrUVeeuGMp++/d9WCwVCqKlErZ5J9HT+jQvE1hpZakNnp6amM4Va0m96+q5Vc3V3LVzZXc8dtKrrqlkgcOEU6hT0F/A+af8fcbJkzABGu+ga03DBcsyC47lrLXwq4csHdXli4sZ5sZG0Omh8KmcknQ1K6qG4Kp0b/XUqkmd9xTzdU3V3L1zZVcsmw4d95TzexXu60PvYr+BjDfbKGndPlNnp02yF1rk635BbbugXPn5ykLyzlg7+7stbD84OmmUjH6zKZyqb0e/M3Em8hq7aFgqlIdvaXvvpWjp6YuXTaSq24eydU3VwRT6FX0OIA55sH+ARNpxw1y19nEa06Bh8z+7sIcuHf3gyectp1ZjJ5qKhdONzEho6HU6MPQq7Xktt8+/MSUW/nQq+hxwLzSmRTCpNqxg9w1NgmbR+hED5w7P/vv1ZUDn9qdpywcfWh4qZSUnXCijmqPODFVqSaXLRvJVTdXcumy4dyx/02KhH5FjwPmkQ6gICbYjh7krq8J2bxB2y/0FyzI/nt15YANodOTdyo97Ja6kk6ABjWgGx9+XqmMhlK331PNZctGcskvh3PZVSNu4UO/os8Bc0eb9gCYbDt6gLu2JmdzBe3k/s/Oz2HP6s7+Tx29vW7bmUXK5SJdm4ROXqQ0XUNaPHQLX6VSy0g1uf231Vy6bCSX/nI4l141km1eI5RCz6LPAXNFy6/5SmDiNcBdVxO11xCtbenPd80BG0KnJ+1USteG0KlcHl3ovThpxQa1Wnt4KLXspkouWzaSS5cN584D3L6HnkWv4zXompgfWnWNxyRsgLumJm2vHVrIrO8szGH79WT/vbuy18JyusujDxEvO+lEGzeslVpSqYw+U2qkkly6bCSXLRvJty8fSvHyWxQJPYtep2Nfe66P+aDV1nRMyga4a2kS95qhid3/2fk5YK+uHLp/Tw7YuytzZxXpKhcplzd8cp1XIZ3WwBbJSGX0pNTISC33razlosuHc9HlQ05JoW/R63T06831Mv6bfg1XApO0we0amtC9Tmg+ta8uyGH79eRF+3Vn70XldJXyYPDkFjt4eDNby2goNVJ56JTURZcN5dtXDHuWFPoW/U7Hvs5cP+O9WddtTNoGt2vnNeD1QRPY5dJFOXS/0dNOT96plK6uIl3lpOwWOxh7c1tsDKRGQ6nbf1vNRZcP5/zvrXfbHjam+p2OfX25nsZ306zTSmASN7hdM68JrwsaZ2PwdOh+3Zk3e8Ntdp7tBFPW6FZro4HU8Egtt20IpDzcHJtV/U4nv6Zc384Zy826NmNSN7hdK68RrwWm0Z7/s2sO3b8n++/Vle3mjAZP3V1us4O6Nr1FUq0mw5XRT9y7d3ktF18x+hypuw4USGHzqufpzNeS6y14mvb1WAlM9Aa26+N14zVA/e18yeiJp1cd3JPuch681U7wBI1pgGtJhkdGb9nbGEid/731WfnCmxWIjt3M6nm8huxNmY41GAuAQW0y9npy7amDjcHTi57V/eCJp57u0d2vFxY0TzO8MZAaHqnllv+t5qIrhvOF761P6RWeIUXn9MJ6Hq8de1Oma93F4mBQW5gtHq45U6T6lQU5+uDeHP38HrfaQas1xpvcsjc8XMutv6nmC98fyhd/+vTMecl5CkTb9sl6Hq+XVn/dCJtaaK1VgvY0FROCgWyB7tSF2XVmvJZ/45i8cMmVefPL+jL/caV0dxfpETxBazfJGwKpoQ0npJbdVMknLliXXz/tRsWhrfppfY/XiT0p07q+KgFYqC3Qri8Ts/EB44fv353uctLTXaRUSmpeRdBeDXORVKrJ0FAtw5Xk/O8NeaA5bbGJ1vd4fcC0r6lKABZsC7XrythV/nVB3vyyvrzoWd3Zfpsi3V2jt9t5zhN0QOO8YQUaGh49HXXz3aO36/3rba/JrP1PUiAa1sPoe7wmoGXWUiUAC3enL9iuJWOx+892zZtf1pd9di2nt2fDc54Kp56gY5vojbfrDSfrh2v51uXD+eL31ufuZzsdxfT1MHofrwVoufVTCcAC3skLt2vI1mw89XTofqOfbtfbXaRcFjwBj2imi9FP1xsaruXe5bWcdeF6p6Ooew+j9/EagJZdNwELeScu4K4dW+LUEzChxnrDPLF+yOko6tvD6H1ce2jZtVIJwILeiQu5a8YjrbjsjBy/9Nwc/fyebL+NU0/AJBvsTU5H3Xx3NZ/42rr8eMkNisOkexj9qmsOLb9GAhb2TlrQXSs2NePihXnTy/py+H7d6esp0tPt1BMwhc32hmdHrR+u5Xf313LR5cP58H8f51Y9JtzH6FNdZ2jpdVEJwALfKQu768Omlvx017zzuP4seHwpfb1FenzCHVDPpntDuD00kqxdV8slvxzJJy5cl9/8iVv18Om/ri900HqoBGCh74QF3nVho0PuWpI3HtGbHbYp0t9bpFRy6gmY5ua7SEZGknVDtdx0dzXv/9zaXPeMGxVHHzPlezP9T3teV2j5dRCw4LfzQu96sOrqf82JS07Lq57fk77epK+ncMsd0PhGfMOtemvX1/K75bWc9bX1+e7O1ymMPkY/6npC+659SgD1YeFvjgXfdehsgxctzNEH9+aYg3vS31ekt3v03wufgKZqyDeE4uuGalm3Pjn/+0P5yHXvzoyn/LnidHgfow/t7OsIbbnmKQHUjwagsQu/+neuwYsW5p3H9udP9u1Kb8+G8MnznoBmb8w3dObrh0efG3Xe94Zy1tfWpeuVtyhOB/Yx+s/OvH7Q9mudEkB9aQRg+iz56a5508v6su/icgZ6i3R52DjQqg16MRpGrVtfy3/9YiTv//zarD70ZsXpMD4BuP2vGXTkGgfUl4YA6jzGfrpr3nlsf3bduZT+3iLlslvugDZp1ItkeCRZs66WH/18NIxae5gwqpOMNdTQb7bOtYKOX9uAadgkawxg6sfVJuHTQJ9PugPauGkXRnW0xwo39JnNf42ADeuZEsA0bpg1CDA1Y0n4BHRq8y6M6lhbCjn0l817bYDNrGNKANO8edYowMTHj/AJYLSJF0Z1pEeGHfrK5rsmwGOsX0oADdhIaxhgfGNG+ASw+WZeGNVxNoYe+snmuRbAONYtJYAGbao1DvCY+r+9MO88tj/PfXqX8Alga039I8Kok677Ynp3fIrCQJ0IoGCC65USQOMIomDz+r41Gj49Z9+uDPYX6e4SPgGMqbnfEEatWF3Led8dylnLvyyMgikmgIJJrFNKAI0liIKHDD9wV06Ze0heemC38AlgEkpFsnYoWb22lo9/bX0umHutosAUEEDB5BhA0AQEUZC8bt0eOeaQnswcKNLTLXwCmHSjX4w2+2vW1/K/99Zy1oXr8+9PvE5hYIIEUDAFa5MSQHMQRNGpnnfHkrzpiN48YftS+ntGwyeDAWAKG/5idG5du76W6+6o5v2fW5sbnnmjwsA4CKBgitYkJYDmIYiikyy+cte887j+LHliKf29xYObJADq1PgXSbU6eovelddVcvJZa7LucJ+kB49FAAVTuBYpATQXQRTtru9bC/PhNw3kmUvKGez3iXcA074BKJJKJVm5ppavXzKcD/3hu+mevbPCwGYIoGCK1yAlgOYjiKIdrb31P/OuXU/ISw/szsyBIuWy8AmgoRuBIhkaHg2jTv/cOs+LgkcQQEEd1h4lgOYkiKKdPPf2JXnzy3qz8w6l9HUnVa9ugObYDGx4ePmqtbX85ve1nHTWmtz0R54XBQIoqNO6owTQvARRtLodfrAof/+mgSx5UikDfZ77BNC0m4IN8/PKNbX8+09H8oHPr836F3teFJ1JAAV1XG+UAJqbIIpWVF2/Iqdt/6wc9LSuzBr03CeAltkcFMnwSLJqTS3n/ttQPtN/jaLQUQRQUOd1Rgmg+QmiaCXPvX1J3nVcX2bPKNLdJXwCaMUNQlEka9cnd/2u6hY9OoYACqZnjQFagCCKZtf7zYX5l5MHs+RJpczoL1KrJV60AC28UXjELXqnnL0mvUfdojC0JQEUTNPaogTQOgRRNKP191ydUx5/ZI44sDuzZ7j1DqDtNgwbbtFbsbqWj16wPhfOu1ZRaCsCKJjGNUUJoLUIomgmT7t6cd716v7sskMpfT0+9Q6gnTcNRZGsXlfLr2+t5uSz1uR3z71JYWh5AiiY/vUEaDGCKBpt3RcW5OyTBvLHe3Zl5oBPvQPomM1DkVSryQOra/nafw7ln6oeXE7rEkBBA9YRJYDWJIiiUf70tiV5z6v7Mmdmka6y8AmgE5WKZN1Qcvs9lXzgc+vyP0+5QVFoKQIoaAwDD1qYIIrp1PONhfnkOwayx/xyZvYXbr0D6PSNxCYPLv/+lcN5z70/Tql3lsLQ9ARQ0MC1QwmgtQmimA4vvXf3vPXlvdlmpgePA/CIDcWGB5ff/ttqTj93rVNRNDUBFDR4zVACaH2CKOql5xsL86mTB7Pn/FIG+5x+AmDLm4panIqiuQmgoDnWC6ANCKKYai/53ZK89eV92XaW008AjHFzUSRDw8ltv63k/eeuy8/3ciqK5iCAgiZZJ5QA2ocgiqnQ/Y2F+dQ7BrLn/HJmDBSpVtUEgHFsMDY+K2p1Ld/9yXBO/YNTUTSWAAqaaI1QAmgvgigm4zm37pb3vqbf6ScAJr/RcCqKJiCAgiZbG5QA2o8givFae/6CnH3SQJ71lK7MGnT6CYAp2mxscirqX384lI/WrlEUpo0ACppwXVACaE+CKMZq36sW58y3DGTbWUW6yk4/AVCHTUeRrB9Kbv1tJW/48Jrc+7ybFIW6EkBBk64HSgDtSxDF1lTXr8ipc/9fDvmj7syeWaRWHf1kIwCoy8Zjw0fo3beyls9ctD6fG7xWUagLARQ08VqgBNDeBFFszrzvL8qnThnI/MeV09udVL1KAJgmpVKyem0tV91cyZHvWZ2BY25RFKaMAAqamwEKHUAQxaaOXbV7Xntob+bOKpLC7XcANGATUiTVanLv8mpOO3dd/nPB9YrCpAmgoAXmfyWAziCIYs15C/LP7xjIAXt3ZbDfw8cBaLxSKVmxqpaLfzyc01f/WkGYMAEUtAYDFTqIIKpzPXXZrvnIWwYyd3bJw8cBaK4NSZEMDSc3313JK9+7OiMvvVlRGBcBFLTQnK8E0FkEUZ3nhOyRVx7UkzkePg5As25KNuxK7r2/ln/86rp8a4frFIUxEUBBi833SgCdRxDVGdactyBf+rvBPHXXrvT3ePg4AM2vVEpWrqnl0mUjOen/fqUgbJUAClqPQQsdShDV3vZetms+csJAtt+mlFLJ7XcAtNAGpUhGKsmNd1Vy/IdX577nuz2PRxNAQYvO8UoAnUsQ1Z7eXBu9/W7bWUUqHj4OQKtuUork98trec85a3PJQp+ex0MEUNDi8zvQuQRR7WPNeQty1kkDec6+3W6/A6AtlErJA6tqufiK4bx/jU/PQwAFrc4ABgRRbeDJly/KmScMZOETyj79DoC2UiqS9cOjt+e96O2rMnjMLYrSoQRQ0PoMYiCJIKqVHXbPkpx0ZF+2mVmkiE+/A6ANNy0bdi33/KGa131wdW7b7yZF6TACKGiT+VwJgI0EUa3nw9svzbP37srMwSJVz38CoM2VS8nvH6jlX761PufPvFZBOoQACtqHwQw8jCCqNaw+b0EuPnNGdnui2+8A6CylUrJ6bS3/9cuRnPR/v1KQNieAgvZiQAOPIohqbk+6bFE+/TeDedy8UhIBFAAduIkpkpFKcsOdlbzgr1dmxrG3KkobEkBBG87fSgBsjiCqOR36myU56ai+bDenSMXtdwB08kZmw07mN7+v5vUfXJ3b9/ecqHYigII2nbuVANgSQVRz+Zv+PXP4/t2Z5flPAPCgcim5d/noc6K+MMtzotqBAAral8ENbJYAqnmsPm9Bznr7QJ779O70didVVwYAHqZUSlatreUblwzng2t/rSAtTAAF7c0ABx5FANVETfXXFuSrp8/Iop09gBwAtrqxKZKh4eQ/fjacN525JoPH3KIoLUYABR0wV6cUoa4AACAASURBVCsBsCkBVPN40mWL8pm/HcyOcz2AHADGtLnZ8MDym+6q5OXvWpXqywRRrUIABR0yTysBsJEAqnkc+cDuOf7w3my/jQeQA8C4Njgbdji//X01r/3A6txxgAeWNzsBFHTQHK0EQCKAaiZvGNkjr35hT2YMeAA5AExUuZT87v5a/v6L6/Jvj79OQZqUAAo6S0kJAJrHh7Zbmtce2pvBfgEUAExGpZpst02Rdx/XlyMf2F1BmpAACjqPQQ84BdUEVn1+Qb59xozs8aRyuro8/wkApkqpGP3kvB/9YiSn3PsrBWkSAijo0DlZCaCzCaAar/jagnz3H2Zkr4UCKACYatVaMthf5JBndudD2y3Nqs8vUJQGE0BBB+99lAA6lwCq8Z546egn4O00ryR8AoB6bnyKZGQkufGuSg7561WZcaxPzmskQRR0JiehoEMJoBpv50sW5fPvnpHHbyeAAoB6q9WSrq5k9yeX828fmZHZ31moKADTTPoMHUgA1XivXL57jj+8NztsW6TiAeQAML2boCK55w/VHHf66tx14E0K0iBOQ0HncRIKYJq9cvnuedsrBFAA0Ci1WvK4eaWc/54Z2fmSRQrSIN4Yhc4jeQaLPdPo+OE98toX9WRGf5GqKwEADVUuJf93Xy2f+tb6fHnOtQrSIE5EQecw2KGDCKAa64Pzlua5T+/KQK8ACgCaRbmUrFxTyz9+RRDVSIIo6Axux4MOIYBqrA/OW5oX/FF3+gVQANBUKtVkRn+Rt72iN69cvruCANSREAqgzj4wd2kO+aPudHXFp+ABQBOq1kaDqLe+ojenbbNUQRrAG6bQGRx5BIs6dbLyc/Pz7TNmZo8nl9MtgAKAplcqkuFK8m8/Hs7f/uFXCtIAbsuD9maAQ5sTQDXGys/Nz799ZGaWLignEUABQMtskIpkeCT5zn8LohpFEAVtPMcqAbQvAVRjbBpACZ8AoAU3SYKohhNEQXvyTChoUwKoxhBAAUDrq9WS7q7kBX/cnQ/M9YwogKkihAKYIgIoAGgfgqjG8oYqtCdHHMGizRRYce78XPyRmdlroQAKANpqw7Th1rxf31rJYSetzKxX36oo08htedBmc6oSQHsRQE0/ARQAtPmmqRjdOC27uZIXnSiImm6CKGgfbseDNiKAmn4CKABof7VaUq0ley0s5+KPzMyKc+crCsAECKEAJkgABQCdpSaIaghvtEL7cKwRLM5MgAAKADp4E1UkV91cyZG/vkoxppHb8qD1OQkFbUAANb0EUADQ2TaeiPqgT83T8wLjIoQCizHjIIACAJLRIOqQP+7O6dsIogDGSggFMEYPnDs/F50pgAIARnV3JS96VndOmyOImi7egIXW5p5asAgzBg+cOz8Xnzkzey8SQAEAm2yoimR4JLno8uG8e/mvFGSaeD4UtCYnoaBFCaCmz6rPC6AAgM2r1UZPRB26nxNRemHgsQihAB7DJ94+KIACALZIEAUwNkIoaEHe+Zk+p81ZmoOf2S2AAgC2atMg6s/+sLuC6ImBzRBCgcWWLThtztIcul93urvUAgB4bBuDqBNf2SuI0hsDmyGEAossm3Fi154PBlBOQQEAY1WrJbMGi5z457054l5BFMCmhFAAj3DEvbvnyOf1CKAAgAmpVpNZM4qcdGRvdvrRIgWpM2/UQusQQoHFlU0cce/uOenI3vT1CKAAgInbGESd955BQZReGdhACAUWVTbW+cpdc9KRvZk1oxBAAQCTVq0mT9i+lPPeM5iZFy9UED0zdDwhFECSnX60KP980kBmzShSraoHADA1KpXRIOoz7xzM8s/OVxCgoxVKAM3NOzr1V/3Kgvzw4zPzhO1LqVTUAwCow8arSH55YyWHv2NlZh53q4LU0fVn7GKfC03KSShoYgKo+lv+2fn58t/NEEABAHVVqyX77FrOx08cVAw9NHQsIRTQ0b59xszsvagsgAIA6q5aSw754+6cOmtPxQA6khAKmpR3cOrv1Fl75mmLyx5CDgBMm56u5MUH9OTP/rC7YuiloeMIocCi2ZH+urxHXnxAT6oqDQBMo1ot6e5K/vrPe/Onty1RED01dBQhFNBxXvq7JTnq+b3p7lILAGD61WrJ7BlF3ve6vuz4w0UKAnQMIRQ0Ge/Y1Nfin+yak47qS39P3IYHADRMtZrMnVXkvPcMpvKVBQqit4aOIIQCi2THGLxoYc4+aSCzZxRuwwMAGq5STXbeoZQvv29GVpw7X0H02ND2hFBAR1j+2fn5zN8O5nHblVKtqgcA0BwqlWSfXcv5+ImDigG0PSEUNAnv0NTX+e+dkaULyqlU1AIAaC7VWvKCP+7OW0t7KIZeG9qaEAosim3vPTP3zLOf2uUZUABA0+rpTl51cG9e8n8+MU/PDe1LCAW0tZf835K89MCelMx2AEATq9WS/p7kHUf3ZQefmAe0KdsyaDDvyNTPDj9clHcc3ZfuLp+EBwA0v2otmT2jyHnvHszybxyjIHpvaDtCKKAtrbjsjHz+XYOZM6MQQAEALaNaTXbZsZRvnrJMMYC2I4SCBvJOTP18/XXn54k7lVLxSXgAQIupVJJn7N6Vd8/YUzH04NBWhFBg8Ws7p87aM8/Yvcsn4QEALataTY54dk8Ov8eDyvXi0D6EUEBbOfyeJXnxAT2pOgEFALS47q7k5KP7sv0PPKgcaA9CKGgA77zUx/Y/WJSTNzyIHACg1dVqyTYzRx9UvuKyMxRETw4tr1ACsNi1g+WfnZ+ffHpWnrij50ABAO2lXE6uvGYkx91wtWLUwfVn7GJfDNPESSigLZz3nhkeRA4AtKWNDyr/q2IPxQBamhAKppFTUPVx7Ord8yf7eBA5ANC+atXkmIN7s8/VixVDjw4tSwgFtLR9rl6cN76kNyWzGQDQxmpJ+nuTj7x5IMNfXqAgQEty7ytME++wTL3hLy/I5f88KzvMLXwaHgDQEcrl5GfXVnLM9VcpxhTzbCioP2cHYBoIoOrjy++bkR3nCaAAgM5RqSRPW1LOe2fuqRh6dmg5QiigJb0le+RpS8qeAwUAdJxaNXnJgT159s27KQbQUoRQUGfeUZl6+1y9OMce0puaE1AAQAeqJenuSv7u9f2eD6V3h5YihAJayv2fmZ8z3zyQ/r7RBgwAoBPVasl22xT54qmDigG0DCEU1JF3Uqbe5949mJ08BwoAIJVK8ozdu/Lm6h6KoYeHliCEAlrGMat2z0FP6/YcKACADWrV5LgX9mbBFYsUA2h6QiioE++gTK3tf7Aob3xpb0pmLQCAB9WSDPQl//yOwdz/mfkKopeHpmY7BxatlvCxtw1k1mCRmsoCADxMtZrsvEMpn3u350Pp6aG5CaGApvfuGXtm6YKy50ABAGxBpZIc9LTuPOfW3RQDaFpCKJhi3jGZWnsvW5yXPrvHR+EBADzW5q6UvOc1/en75kLF0NtDc85TSgA0q+EvL8hHThhIb5cMCgDgsdRqyQ7bFvn037gtD2hOQiiYQt4pmVr/fNJgHrddkaqqAgCMSaWS7Lu4nFet3F0x9PjQdIRQQFP6k1t2y7P36UqlohYAAONRqyVvOqI3C368q2IATaVQApga3iGZOkNfWpAf/8usbDfHp+EBAExEuZT8+tZK/uyqqxRjilx/xi72zzBJTkIBTeeLpw5mh20FUAAAE1WpJrs/uZy3ZA/FAJqGEAqmgFNQU+eoFbvnmXu4DQ/YQuNSJOUZRcrbllLerpTy3FLKM4uUuzqvFuW+IuU5G+qwXWn0133epAc2UUtedXBP5l+xSC30/NAUdCpgQWoavd9cmEvOnpmZ/YVPwwMepdyVpLvIpy9Ym//46XDu/l01swaT5z2jN8e9sDfbziulsq4zZo/yzCJX/GQ4X/vR+lx5zUiS5Jl7dOVlz+nNs/6oO5WVZlFgVGnDbXkvd1velHFbHkycwQOTJICaOufttleevqScSlUtgEe7b0U1r3zPylx1cyW/X/7QRDFnRpGddyjlrLfPzP57t/9JyvJAkX84d20+8bW1+e0fqlk3NLoM9fUU2WluKW9+WX/++tX9qayxPAEbNn1F8slvrM/Hi2sUYwoIoWAS85ESwMQJoKbOUSt2zzuP7UtVAAVsRrmvyAtOeCDf/e+hLX7NXgu7cukn52Swr33rUCqSf/3B+rzxjFVZvmrzS9CcGUXOPmlGXv6nvV44wIObvjXra3nFu1fl1mfdpCBTQBAFE+xllABotOEvLcgJL+tNTQAFbMH3LxvK934ytNWvuermkXz8grUpl9u3DiPV5NRz1mwxgEqS5atqOfWcNSl32x8Bo2pJBvuLfOiNA4oBNJQQCibIKaipc/ZJA5k96DlQwJZd8svhMX1i5ke+tCb3r2jf2eTiy4dy412Pfb/hjXdV8j/XDHvhAA+qVpM9nlzOCTWflmcvAI0jhAIa6sCbd8tz9u32HChgq667fWRMX3f/ylq+ddlQSm14CKjcV+TML60d89f//gETK/AIteSYQ3ry5Mt9Wh7QGEIomADvfEyNoS8tyKmv7U/JTAQ8hp3mjX2i+PD5a1Jtw1n6sp8N58prx3666fHblb1wgIdxW549ATSarR/QMGe9fSA7zi3GdIsN0NkO269nzF97/R2VfPHf17fV/3+5u8i7PrV6zJ/8N9hfZOHjhVDAo1WryZ7zyznygd0VA5h2QigYJ+94TI2lv1icg57W3fYfpQ5Mjf337s6CcYQqn/jaupT72ueevBtvH8kVV4/9FNQJL+tPb4/XDbAFteSEl/Wm75sL1cLeAKaVEApoiH98i9vwgLEb6C1yyjH9Y/76X94wnMt+1h4P5i53F/nQeWvH/Oy8mQNFTjyy3ylTYItqSebMKHLmCW7LA6aXLSCMg3c6psabq3vk8TuUbJCAMavWklf8aW92nDu21mWkkrzrU6tT7m3901DX3TKSr/xw7LcXHnNIb+bNKbxogK2qVJMD9u7KgTfvphj2CDBthFDAtJr774ty7At6UhlRC2B8ZgwUed2hfWP++iuuHs7//Kq1T0OVy8mX/2N91qwb2/6mSHLCy/vd6gyMeY459bX9Wf7Z+YoBTAshFIyRdzimxkffOpDBfu/QA+NXrSZveXl/Bsf4rKdKNfnYBWtT7m7dOWfl6uTsr68b89e/4qBeDyQHxqxWS3acW+S9r+1XDHsFmBZCKGDaHHDTbtln13KqVbUAJma7bYqc8PKxb5a+/l9DueG21jx6WSqSsy5cmz88MPZJ812vHoiYHxiPSiU56vk92fb7HlIOTEN/owTw2LyzMXnLv35MTn2tB+UCk98sve6wsd+St3ptLZ/8xrqUW/BwULWWnPHFtWP++v/3lO7s9sRyTLPAeM3oL/Kxtw0qhD0D1J0QCpgWZ77qF9lpXmFzBEzaE3co5c8P6h3z15978bqsXN1iDVqR/OsP1ue+FWM/BfX+4wedggImpFpN9tm1nANu8pByoM49jhLA1nlHY/K2/f7CHPHsHg/KBaameSlGbzvrGmMX88DqWs66cO2ETkOVu5Jyd5Fyb5Hy4CP+mlGkPKeU8uzSo//bYDH6fd1FShNIhkaqyennrhnz1++9qCv/b2mXoB+YsFrNQ8rtHaD+upQAqLePvW0wvd2jt5YATHqjlGS3J5bzrL26c8kvx/bpd2d8cW3+8iV9mTmw+USo3JWkqxjtjLqK0bfpysn9t1eyck01K1bXct3tD0/SV6yp5frbRzJzoMiSJz26pXrmHqP/bpcnlVMeKJKRJNUkI7XRX4/UthjOf+fHQ7n+jrEn93/18v50leOWZ2BSc+tO80YfUv5RcwlQJ05tw1Z4J2Py9r9xt3zqHQMCKGBqG5gi+a9fjORPT1g+5u/53Ltn5piDe1OtjZ5uSk+S7iLpTpbfUcn1d1Ry3e2VXHf7SH7z+1ru/l0lK1fXMlxJhkdqWbHm4RPZyEiyYnUt3V3JzMFHt1RzZ40e1Zo1WKSrnCx5UjmPn1fKbk/qypInlbPkSeWUti2NBlJDtWRoNJQq9xXZ7zXLc8XVYwvYFjy+nF98bo5PHgWmxJp1tRz8tpW57+CbFWMSrj9jF5MybIaTUEDd3P+Z+Xnf52e7PQSYcrVast9eXXnWU7rHHNZ8+Pw1OfawvpRnFrnzupH89NqR/PTa4fz02pGsXD0aMq1YPfrXuqGxz1zrhpKVax799b+59+HPc7r86uEM9BaZOVhk1kCRWYNFFu3cld12KeUZu3floGf0pDy3lB9fOpQrrxke8+//ly/ty6zBIhWfPApMgZkDRT76tsG86jq1AKaedBa2wkmoyXlL9sgbXtrrWVBAfZqYIrno8qG8+OQVY/6e1x7al9/dV83t91TzhxXV3PfA+AKnem34tp1VZIdtS1m0c1euu20kv7hxZEzfO9BX5K5vbpvZM7R0wNQpFcmRp67Osr1vUIxJcBoKNtO/KQFsngBqcnq+sTCXf3JmBvpMM0D9rB+qZenRy3Prb8aWdneVk5E2CsbfcfRAPvzGAaeggKndJBbJ3b+r5vk/XqYYkyCEgkfz6XhAXZz55v4tPgAYYKr09xU5+VX9Y/76dgqgZgwUefuR/QIoYMrVaskuO5Vy9IrdFQOYUkIo2AynoCZn6S8W59n7dNsYAXVXrY7eYrfv4s57zOVf/Vl/tpunlQPqozKSvPGlvRn60gLFsKeAKaNzAabce1/Tl3JZHYD6KvcVKc8t5Rc3jGS4A589t2J1NdXhWsozC3MuUBfbzCpy+vH9CgFMGffKwCN4x2Jy9rtht3zyHQMKAdRNubtIZhS58sdDOevCdfnJNcO5855q1g931vS97awiu+7SlSOf15s3HdGX0owitVW1VK1iwBQaGk4O+qsVue/5NyvGBHk2FDykSwmAqfS+1/WnKEafJQAwlUpFUswq5a5bRvLB89bmBz8byk13de7Hb963opaf/Ho4N95ZyZf+fX2OfF5vTji6P+VaUllrEgamRl9vctrrB/KmO9UCmDyJLGzCKajJOeqB3fOu1/SlMqIWwNQq9xdJkbz/U6vz1R8O5ZrbRlKpqMumtp1Vyh/t0ZW3vqI/z31ub7Kyaj4GpkSlmhx32ur8cu8bFGOCnIaCUU5CAVNi+MsL8qbPzLLhAaZUuZxkZin/8YP1+aevrM1lVw1n5RrvF2zOfSuq+c5/D+Xa20dyyKVD+eBfDmT2dqVUVqsXMMlNYzn52+P68mfL1AKYHGksbOAU1OT8dXmPvP7wXicTgClT7i0ysr6Wd31ydb7yw/W5/bc+cnPMtSsney/qyt8cM5AjDu9LVlTNz8Ck/eXfr8nli69XiAlyGgp8Oh4wBbq/vjCvOKjHBgeYmuakSMozi1x700hedOKKfPSCdQKocapUkp9fP5K3/tOqvPm9K1OpjH6aIMBEFUVy6ut8Uh4wyT5PCYDJOuPN/Zk1YHMDTF65nBQ9RT5x3tq8/J0r8v0rh7JuvYOqE3X376r55DfW5oUnrsiVy4ZTnmGuBiamVksev32RQ3+zRDEmyJ0XIIQCC8IkbfO9hXnOvt2pOKQATFK5a/QEz/HvX5n3fnpNrrnN8cqpUKkk379yKMf83cp8/sJ1Kc8ppSSLAiYyn4wkbz+yTyGACRNCAZNy2l8MjD44GGASyn1FHlhRywtPXJHPXrQu962YfLL9nOc8py1q8+IXv3hKfs6Nd1Zy8lmr8zd/vypFT5Gyj6cBJmD7bYscP7SHQgATIoSi4zkFNXHbfG9h9t+rKzUVBCah3FfkymXDee5fPZDvXzmUkUkegHrxi1+cb3/72znnnHPy5Cc/ueXr8/GPfzxXXHFF3vjGN6YoJneE6f/uq+afvrI2x79/Ze5/oCaIAsatUklee1hPhr+8QDHsPWDctB7AhJ32FwPpKkcIBUxYeWaRK382nGP+bmVuvHNy6dNznvOcvPWtb81Tn/rUPOEJT0iS7Ljjjrnttttatj7z5s3LE57whDzhCU/I4sWLc+ihh+ZTn/pUvvnNb074Z65bX8tnL1qXm++q5GsfmJVtZhepjHgtAmM3s7/IO47qyz96HAMwTk5C0dG8EzFxe/1ysVNQwKSUZxY5+/y1Ofa0yQVQO+20Uz772c/m05/+dA499NAHA6gkWbKktR+gu2DBQycN5s6dm4MPPjgf+9jHcv7552fx4sUT/rkjleRHPx/Oy9+5IsudiALGqVJN/vygngx9yWkoexAYHyEUMCHvPLYvXZ4FBUzQxgDqPZ9ekxvumHgA9YY3vCEXX3xxXv3qV2f+/PmP+u+bBlKtaJtttnnUv9t5551z9NFH54ILLshpp502qZ//g/8Zzp8JooAJmDU4ehoKYDyEUMC47fXLxdljftkpKGBCyjMeCqD+8MDE7uXYaaedcv755+e0007LPvvss8Wvq1Zb+16RPffcc4v/benSpTnxxBPzne98Z1KnogRRwERUqskrn+s0FDA+Qig6lmOwE/fOY73rBUxMua/IeV9fN6kA6qijjsrFF1+co48+OnPnzt3q1y5cuLCl6zVr1qyt/vf+/v4ccsghueCCC/KGN7xhwr+PIAqY0BzlNJS9CIyTEAoYF6eggIkq9xX56VXDOfms1RMOoD760Y/mzDPP3Orpp03tvPPOLV2zsZ7kWrp0aU477bScffbZjxlcbcnGIOq+5bWUCq9X4LE5DQWMlxCKjuSdh4lzCgqYiHJXcuUvRz8F754/jD+AmjVrVr71rW/ljW98Y3bcccex/77lznl43dy5c/P6178+F1544YRvz/vB/wzndR9claK3EEQBY5ufnYayJ4FxEEIBY+YUFDChZqNIlj9Qywn/sGpCDyFfvHhxLrzwwhx22GHp6hrfvWK1Dpuwurq6ctBBB+WCCy7I0572tAn9jG9euj5veP+qFLpEYAychgLG1RcqATBWf+sUFDABRXeRl79rRX523ci4v3fffffNV7/61Rx00EEKOQ5Lly7N+eefn8MOO2zc31urJed8e20+9tV1KQ84DgU8tlmDRU46Up8IPDYhFB3HsdeJmfPdhdnTKShgnMozipz8sVX5j58Nj/t7991333zhC1/IU57yFIWcyHq32275+Mc/nuOPP37c3ztSSU47d01+dMWQB5UDj6lSTV75PKeh7E3gsQmhgDE57fUDigCMS7m7yPnfWJdPXLBu3N+7MYDabbfdJvVn6O7u7uhrsMsuu+T000+fUBD1++XV/MWHVnlQOTAms52GAsZACEVH8U7DxMz57sIc8NQup6CAsTcYRXLXbyt5xydWZ8368U0eUxVAJcmNN97Y2nUsTb5VmzdvXk4//fQceeSR4/7eW/63ktd/aFWKshQK2LqNp6GwR4Gt9jZKADyW014/kO6yOgBjV3QVOeZ94/8kvKc//elTFkAlyd13393SdVy3bt2U/Jx58+blzDPPzL777jvu7/3GJevzsa+sTblXEAVs3ezBIi/83yUKAWyREArYqrnfX5QDntqVqvdngDEq9xZ5/2dW579+Ob7nQM2cOTOf+MQnpiyASpJyubUT9F/96ldT9rN22mmnfOELX8jTn/70cX1frTb6fKhrbxpxWx6wVZVq3JIHbJUQio7hmOvEvP7wXqeggLE3FkVyzY0jOeNLa8f3faVSLrjggjzjGc+Y0j/PTTfd1NL1XLNmzdSuhRseVj579uxxfd/vl1dz/IdWpRBCAY9hh3lFXuQ0lL0KbKnnUwJgS4a/vCCH79/tFBQwZrUkJ31idR5YNb6J4+yzz87zn//8Kf/z3HPPPS1dz1tuuWXKf+Yzn/nMnHPOOeP+vsuvHs6531nv0/KAraqMJH/x4l6FADZLCEVH8M7CxPzF4b2ZM8Pb3sDYlMvJ1/9rKN+/cmhc3/fKV74yr3nNa+ryZ7ruuutauqZ33nlnXX7uEUcckVNOOWXc3/euT67OvfdVvdiBrXry40pZ+vPFCmHPAo8ihAK26DUv6k3FXgMYo7Xrkrd/fFWq45g3Fi9enDPPPDPd3d1T/ucZGhrKXXfd1dI1rVarufbaa6f85xZFkVNOOSUHHnjguL7vN7+v5rRz16bc5w0KYCubzCJ553GeDQVsZn5QAmBzXnD3ksybY5MBjE25u8jff2FN7rhnfMn1Oeeck8c97nF1+TPdcMMNqVZbP0m/5ppr6vJzZ8+enXPOOSdz5swZ1/d99uJ1+ck4HzoPdJZaLVm6oJzZ31moGMDDCKFoe461TsxJR/WlUlEHYGxuvauSf/rK+B5Gfsopp2S//far25/pF7/4RVvUtp63FC5cuDD/8A//MK7vWb22lnf/yxqnoYDHdNpf9CuCvQs8jBAKeJQ9f744O86zuQDGptxd5MwvrsnycTyMfNddd83JJ59c1z/Xr371q7ao79VXX13Xn3/UUUfl0EMPHdf3/OfPh3LlMqehgC2r1ZIDn9qddV9coBjAg4RQwKO887i+VEbUARib2+6u5Pzvrx/X90zkNrDxuuSSS9qivj/60Y/q+vN7enrygQ98IL29Y/80q0o1efennIYCtq67nJx0pGdDAQ8RQtHWHGcdv//P3n2HR1Wm7wO/z5xpqUBCgJBACCmUkEZP6L2DNMVCWZHFggVUXH/r6rpf1wJrZy2wKqAiKAISVMDQSwIBQhJASEJJAiRIT59yZn5/DAmgQiYw5czM/bmuvQjucGbyzJlzznvP+z6n4c+RiIsQWQgisoooAvO/qkR5pfWH27Fjx6JXr152fV1Xr161+wwiR7l8+TJyc3Pt+hwdOnTA3Llz6/VvNnM2FBHVwWQGHhyiZiE4hiGqxRCKiG7y3ANcu09E1quoQr1mQWm12nr3ILoT6enp0Ov1blPnLVu22P05Zs+ejbCwMKsfXzsbSsXZUER0aw18BYw43Y6FICIADKGI6AbGbyIwtLsKZn73QkTWXEQIwMI11fWaBfXoo4+iVatWdn9tW7dudatar1271u7P0ahRozuaDXW8NELl9gAAIABJREFUkHexIKJbkyRg5lgNC0FElutHloDcFaex1t+kQWp4c9k+EVk7sDADb35ZafXjtVotXnzxRYe8ttWrV7tVrbdu3YqysjK7P8/kyZPrPRtq4ZoqiFzFTUS3Ed5cgfCdUSwExzJEDKGI6LpHx2phMrEORGSdjel6/HbZ+oPGzJkz0aRJE7u/ruzsbLv3UHK0yspKhyzJ8/Pzw/PPP1+vf/O/lGpcKeNYiYhuM+gU2PKBiK4dD1gCIgKA2P1tENKEfT2IyDqiEvhkTbXVj3fkLKiVK1fC7Ibrij/77DOHPM+UKVPqtWTyUqkZ2zPZoJyIbs1sBnrEKaFZHcli1ANnQ5E7YghFPGATAOCpezWQjKwDEVmn+LwJqRnWBw+PPfYYmjZt6pDXtmLFCreseWpqKsrLy+3+PH5+fpg5c2a9/s1731ZBVPJzQUS3plYCU4azNxSRp2MIRUTQrI5E53YcPRCR9VZu1qNKZ13er1Ao8PjjjzvkdaWnpyMvL88ta15ZWYmUlBSHPNeMGTPg7e1t9eN3HDSg+DzXcxPRrZnMwEND1CwEkYdjCEVuh7Og6m/KcA00zKCIyEqiEvh6o87qxycnJyMiIsIhr+2TTz5xy6V4NT766COHPE9gYCAeeughqx9vlCzBJBHR7TQJENAxuw0LwbENeTCGUESEh4aoYeLpjYisdOacCZnHrF+/+8wzz0AQ7N9z7vz581izZo1b137Pnj1IT093yHNNnz69Xo//eqOOd8kjotuSJODRe7gkj8iTMYQi8nAds9qgSQAbkhOR9Tbs0UNvtC659vPzw/Dhwx3yupYsWYKrV6+6de0NBgM+/fRThzxXQkIC4uLirH58Zq4RV8v5jQYR3V6Xdkqo2aCcyGMxhCK3wumq9TdzrAaSxDoQkZUXDgKwcov1y6769esHLy/735a7uroab7/9tke8B6tXr0ZhYaHdn0etVmPChAlWP15vMNerWT0ReSaNig3KOcYhj76WZAmIPJd6dSS6siE5EdWD3ghsy7Q+aHj44Ycd8roWLlyIkpISj3gPrl69ivnz5zvkue699956PX7jHvaFIqLbY4NyIs/GEIrIg00ZroFGxToQkfX2HzOistq6L2QbNGiAQYMG2f01VVdX4/XXX/eo92HJkiUOmQ0VHR1dr6byqRl6iPxug4jq0DRAQMcsNign8kQMoYg8GBuSE1F9ZRyxviF5165d4e3tbffXtHDhQpw7d86j3oeysjKHzIYSBAFjxoyx+vGnik0oLDbxg0JEtyVJlpYQZD0uySN3wRCKeGD2UFFp0WjKhuREVE9ph6xfijdq1Ci7v57CwkKPmwVVY8mSJTh27Jjdn2fo0KFWP9ZkBg7mGflBIaI6dW2nhOGbCBaCyMMwhCLyUE9NZENyIqofUVm/nj8jRoyw+2v6z3/+43GzoGqUlZVh7ty5dn+epKQkqFTWr93ekcUQiojqplEB9w1gbygiT8NV+0Qe6PJnrdFrdUMWwhVDANW12Ws112xKAaiZ0Kao51Fduva/GmYARvP1n69NeDEbzVy2SQCAgrMmXC6zbmfw9/dHeHi4XV/Pjh07sHjxYo9+T9atW4e1a9di9OjRdnsOX19fREVF4ciRI1Y9/lgBQyiy8lxWQ4Xr57I7PIdJBp6oXI3JDDw2ToNVO1kLIk/CEIrcApfi1c/U4RqolWCwIGMKARCUgiVsUgmACEAESo5ZBncHci1/5hVJKK+0vJFlVZa/Wyu4sQLBNyzJ9PUWENVCBAD4eV3/uVkLEaK3cP2C32S2/GkEYOKFvyfJrcf+1aNHDwiCfZf8PvvssygrK/PsQZzJhDlz5qBPnz5o0KCB3Z6nT58+VodQu3MMEEVwtq0H+sMXJeK1E9qN/w3Xz2U18ooklFXV71wSHCgiOPD6MaZZm2vDmt+fq/SWn7k/ylNoUwWCfonC+UF5LIaVY56j81uynwa5NIZQRB7oLyM1DKDkePGuBKAVALUA6M0oKZJwINeIzGNGFF8yo/iCCSUXLQ1/a/68VGqC/tqMJZ2x/hfZ3prr1zFqFRDgr/jDzwH+AtQqoTa0Cm4solmggKgWSvh5XbvwN8ESShnNlp8NnEHljg6fsH6GS7t27ez6Wt5++21kZGTwTQFw/PhxzJ07F59++qndnqNLly74+OOPrXrsxatmXLhiRiM/jpPc8lx1wxcjtbNxrwVMv/+ipOSiGcUXpGv/7foJquYcVuPGc5m1fL0F+HrdEEIFWs5Zvz9XdYxWolljEWJjwXKeMpgBPb9AkQvJCEwbrsF8A2tB5CkYQhF5GNWqSESO8Wch5HIxLwLwEgCNgPKzEn76RY8DuUYcPmHEpVIzSi5agqdKnX0ulm/cbqUOuFJ+Y4r1x0TLWyPUXvjXhFPNAhXw8wKiWoiIaqFEcKBlFlWzFiJErXA9nLr2p8SVOi4rr8j6u55169bNbq9jx44d+Pe//8035AaLFy/GoEGDMGHCBLtsPzExsV6PLyyR0MiPl5kufX5SCZZlcgpYwial5eeSY0YUXzSj+KJUOxu3JmD6/Rcl5VXm2tm69jqP/Zkbz1XNAhXw9RYQHGA5NyW2UVqCqSilZdm5zgyzjl+aONM9fVSYn8o6EHkKXh2Qy+NSvPqZOlwNhQCYWTXnXtxrBEv4VGbGtyk6bM8y4PAJI/JPSyi+aJLtsoFKnRmVOjN+uwycOPvHi/6ABjUBlQIB/gIC/YXacMrypwK+LUTL8ggGUy6n6Dfrd8wOHTrY5TVcvXoVzz77LC5fvsw35AZ6vR6zZ89Gz5490axZM9ufa9u2rdfjd2YbEB/Fy0xXcNPy75qw6dry77wiCcUXzcgrMl5bMmcJmGrCpZoZTI4MmOp/rpJuOk81C1SgWaACUaEKJLZRoneCGokJSoiiAFSbIel4geRoAf4CIndHIz85l8WwcuzDJXnkynh1QORhHhqqYQDlRKJGAHwF5OUY8W1qNbZnGXHkpBGnfzO5/O9WqTOj8reanevmi/6ABteDqQB/BTpG3yaYMlj+ZP8O+cnOtz4ttFdT8rlz53IZ3i2cPn0a06ZNw/r1622+ba1Wi7CwMBQUFFj1+MulPNHI0Z8GTrrry7/ziiTknTbVLv++VGoJnC5dNcsuaLrT89SJsxJOnJWwOwf4YYceLZvp0LKpAgO7qDA8WYOoWCVQZYa5irOjHEWSgKfv1eDJ06wFkSdgCEXkQYJ+iULT8X6cdeIEogjAT4H8I0Z88F0V0g8bcPiEhMpq97/CrQmnbgza1qdblvMFNlAg0F9AQAMFEqOViAoVkRitRGQLEWKgYOndYQSg52wpWYQcVoalLVu2hJeXl82f/5133sGSJUv4RtzGhg0b8Pzzz2P+/Pk233ZwcLDVIVRBCVNkWZx7lLCETTWhk96MktMSMnONyL8WOBWUSLh41bL8++JVE66Ue07ycqXcjCv5RmTnAzuzDPh6ow7dY1S4t78aPburIZoBqZJJlCP0SlDhyr9ao+HDJ1gMIjfHEIpcGpfi1c/U4RoO5J0xCPAWAB3w+oIKrNmuQ8YRvgmV1WZUVt8cTP20W48Af0sD9EB/haV3R7QSUaEKJEQr4RsiWmZJGcwMpZyxH6sESFZO2GvVqpXNn//777/Ha6+9Bp1OxzejDu+//z6io6MxY8YMm263TZs2SE9Pt+qxBSUmvhFO+pzWBk4qoPyMhPxroVNekYTDJ40eGzjV5Uq5GRlHjMg4YkRqhh6J0Uo8NlaLnn01QKmZjcztTK0ExvVVYzNLYfUYiEvyyFUxhCLyIGN7q1gEB1IIgOCvwM6dOvx7SRW2HzR4xMynO/X7YGp9OtCkkQKBDQQEByoQ1swyWyoxWslQyglycq0vsNFo2zcjOzsbs2fPZh8oKxkMBrz88ssICAjA+PHjbbbdsLAwqx8rcGjkELWh07U/S3KNtbOcMnONKCgx4WKp5e6qF0tNXOZspV9PSfj1lKWGAzfr8f+meqFZqAiJoZ3dmMzAg0M02JzHWhC5O4ZQRB4iKi0aAeN8eQHqIAoBEDQCPvy8Ah+vrsavp1j4O/HbZRN+u4za+q3eprfcfruuUErHnlK2VnzR+pkt9b2T2u1kZ2djypQpKCoq4ptQDyUlJZg9ezaioqIQFxdnk20K9UiWTp7lB9AeRCUAjfCH0Ckz1xKY1PRy4iwn27CEUVU4cMyIp+/1wsRxWpgvm9gryk4So0VcmTcFDccuZTGI3BhDKCIPMW2EhoNyB6kJoJ57pxyfra3mQMCGrpSbcaVcqjOU6pmgvt5TSgeY9Wwwe9cXDKL1jw0ODrbJc9YEUFlZWXwD7kBRURGmTJmCpUuX2iSIUqvVVj+Wy/FsQxRxPXS6trxux279H0Kn4osmzrS1o13ZBhSUWGr++mwfiDrOvrUHrQqY3C0DKSwFkXtfU7IE5KrYD6p+BnXhx90Rbgyg3v+2CkZepNrVrUKpsGZibU+pXvEqREaLENUCoLs2S4rvi13ZYjkeAyjbyMrKslkQFRMTY/VjJWZQd34OUQuABpbg6YoZO/for812siyvKyhh6OQMp38zYd7XlSgokfDJXF/4+Qo8l9iYyQw8PEqDlP2shbVjIfaFIlfEUSmRB4hKi4bfWF8OChxAUAt4/t0KBlBOcmMotT4daBqgQFiwAs0DFYhprUTPOBV6xSvhEyICejOgB8w6zpKSm5ycHEybNo0BlI1kZWVh2rRpWLJkCWJjY+94OwEBASymHYhKAGrB8j+jGfl5EnZmGXAw14i80xJOnZVw9qIJV8p4oHI2SQKWbdShssqMxS/7wd9b4PnDxiJDFVC/FAn92HwWg8hNMYQi8gDTRmgYQDliIOEj4NX/VuC9FZUMoGTi3CUTzl2y7Pwpu/RoFSyiVTMFWjUT0TNBhcRoJeLjlBCv3bqcvaScLycnB1OnTkVmZiaLYUOZmZmYOnUqXnrpJYwbN+4OB+D8cNjsfKGxLK+DRkDFWQmZBw3YmWXEnsMGnL1oQkHx9WMXyc+aHXrM+k8Fvvy3H8AZaTalEIDxfdX4hqUgclsMocglcSle/XApngMGFEpg/RY95n/FGVByJUnA8dMSjp+WABiwbrdl6V6rZgp0i1GhZ7wSPeOv9ZLSWXpJ8ZbcjrV06VK89957DKDsJDMzE7Nnz0Z5eTmmTJnCgjh4YC1oBEt/Jw2Qn2XEwVwjdmYZcOiEpbfTqRIusXMlX22oRrPGCsx/1gdSJd83WzGbgQn91fiGpwGrx0RckkeuhiNTIjfHpXiOcemKGbPeKUcFBxAuo2aW1MFcYONeg2WGVHMRUaEiesZblu01jVRemyHF5ub2Nm/ePLzzzjs4d+4ci2FHhYWFmDt3Lg4fPoy33nqrXv9Wo9GwgPVQ21Rca5lpmZVtxI6DeuzIMuJUiYTiCyYUnePJ2ZW9t6ISo3uo0DNexfODDUW3VMAwNwKq+4+zGERuiCEUkZvjUjwHDDS0At74qOLaDBtyRZXVZhw5JeHItQbnq7bp0KqZiOgWlmV7PeNViIwSIYqWWVLsI3V7CoXC6sdWVVXhueeew+LFi1FZWcniOcC5c+fw7rvvoqCgAG+88QbCw8Ot+ncHDx5k8eo6HyhhCZ3UAnDVjJ179VifbsDhE0acKjHhVLHE3k5uxGgEnltQgfT/NQT4ttruHCIAI3uosYGlIHJLDKGI3JjhahEGDeHH3N725xjx6ZpqFsKNFJ2zzFDYkWVZtlfT3HxAZxV6JagtfaREATCwj9Sf0el0Vj3ul19+wbx585CamsqiOfr8YDBgxYoVOHXqFObOnWtVn6izZ89avf0Af4XH1LI2eLrW3+nnTXoczLPcze7UWQnHiiQeI9zY3iNGrN6mx5heahbDRsxmYGJ/FTawNzmRW+LolFwO+0FZLzyzP/ym+XEmlD0HHxoBLy+qQBn7QbitG5ubb8s0ILy5Dq2CRQzopEJ8lIge8WqIAYKlOa0bB1K6evTHOnz4cJ2PmT9/PhYtWoS8vDzuZE60Z88ezJ49G3v37sVzzz2Hxo0b3/KxWq3W6u1Ghrp3CHVT8FQsYf1mPXZlW/o7HSuQcOaCicGTB3l/RRXGDdRA0vFawFY6Ritx+cXWaDT9BIthxdiIfaHIlTCEInJjw5PVDKDs7FCuERv26FkID3G5zIzLx4w4cMyILfv1aN5YgfDmIhKilRjaTeXWgVRClPWXDKWlpbf8/1JTU/H+++9j8+bNXH4nE4WFhXjnnXeQnp6OZ555Bvfcc8+fPu78+fNWb9NL437jobqCp0L2d/JYaYeMOJRrRLswkcWwEa0GGN9Pjc0sBZHbYQhF5MYmDeTUcHtSCMCSH6v5bbeHulxmxuUyCYdPSvg5XY/VW0W3DqSCG1s/s6WgoOAP/+3kyZNYsGABUlJSOPtJhgwGA7Zt24aTJ09izZo1ePbZZxEbG3vTY06csH5GgspNrjAZPJFVnx+jGUt+rMa8J3zYL9BGTCZgdC81Np9hLYjcDUMoIjflmxKJ4PH+kIyshb0YTcDSn3UsBEGSgMMn6wikGloCKVdtai5JlmDBYMUx5dSpU7U/X7hwAV988QVWrVqF9PR07iwyV1hYiCVLliAnJwd9+/bFiy++WLtE78b3tS4x4a57iVl7VzsvBk9kvaU/6/DvR30gKlgLW+nWXgQYQhG5HYZQ5FLYD8p6I3qoGUDZ2a5sI367zMEI3exWgVTPeBWGdVcjLl4JUeGad9lrF6ZE9nGjFTWQkJaWhp07d+LHH39ERkYGl965mAMHDuDAgQPYv38/RowYgaFDhyI/3/ouwT5errUcTyEAgpdgmfV01Yxde/X4fquewRNZ7bfLJhzMM6JTGw6vbKWhr4Do9Gjkds9lMawYI7EvFLkKHiWJ3NTE/lyKZ2/r09kLim7vxkBq834Dvt10val5z3iVJZACAD1coqFtcGMB2cete+yMGTNw8uRJhk8ubtu2bcjIyMDy5ctRVVVl9b+LCXeN3jjitaV2MJmxK02P9XsMOJhrxMmzls8tUX1s3m9gCGXLc6gJGN9XjTd4A2Iit8KjJJEb0i+LQJsxDVgIO9uy38AikNUqq804cENT89YhlhlSo3uqkRynQkQHJaAzA1Vm2c5ibN1cBGDdfm/NHfLIRfbdykocOHCgXv8mvLl8QyhRJQBaABoB2RkG7MoyYPMBA46eMuLXAol9/uiObT1gwPMPeLEQNjQ8WYU32J2cyK0whCJyQ6N7qaEQADMXL9p1EJOVz/WOdGcul5mx/6gR+48asTPLgPDmIuIiRPSIU2FcXzV8gkVLQ/NqeTU079RWBYBfSVPdolvIK4QSRViW2mkFnDthxMY9BuzKNmDfUSNOnJFwuYwnTLp7u7MNEJVgOwQbatxQgE9KJCpG5bMYRG6CIRS5DPaDst6QbioGUHZ2ON8InZ5FprtXctGEkosmpOUY8MMOPb7eoEOH1iIGd1NjcHc1xEYCUCWP/lERoey4S3ULbqxAYAMBkpPbKCkEQNBc6/NUbsbGbXps3KPH/mNGHC2QUHKRfZ7ItsoqzSg4a0JoEx4rbUWSgFE91VjOUlg1VmJfKHIFDKGI3IxJV4ruMSILYWfu1pBcq9XC19cXzZo1Q7NmzQAAPj4+iIyMtHob+fn5qKiouOnv5eXlACx3SKO6WQIpPTbsAdbu1KNdmOUOe+P7aRAXd62hebXZaf2j4iJ42UB169RG6dQAqna5nQnIPmTEhnQ9dmYZ8GuBhLwirrUj+zpzniGUrQ3trsLyY6wDkbvg1SSRm2mR1gkNJ/k5/Rtod1fkwndKatWqFSIjIxEfH18bOgUFBUGtVsPf3x/+/v4AALVajaCgIKu3e/78eej1+pv+rtPpAFhCKJ1Oh5KSEpSUlKC8vBzHjx9HeXk58vPzGVL9ibwiy4D5xzQ9ftytR3hzEf07qjC4u9rSP6pmuZ4Dl30E+AuICBFx/AwH8nRrsU4IK0URgFoAvK8vt9u834Cc40b8ekpCZTVnrtZX48aNAQCRkZHw9fUFAMTHx9/0mISEhHpt88YvJ2q+uKg5L7jLeSCvyIhuMRxi2faYIqL0xdbwn3aCxSByAzxCErmZkT3UDKAc4FSx6wzCO3TogPj4eCQkJCA6OhqNGzdGUFAQQkJC4O3tbbPnCQsLu+nvUVFRf/q4yspK6HS62mDq/PnzKCsrQ2lpKfLz81FSUoLjx4/X/lxd7dk9iCQJtf2jNmXo8eUGHeIiLMv1hnRTwaep6LDlepIJ6NZByRCKbqtHnOMuL8Wa5XYVZuzep8eqrVxuZ62aGbAJCQm1M199fX1rZ8CGhIQAAIKCgqDRaG76bzXqew4xGo21X1bUfHFRWlqK0tJSXLhwARcvXkR+fj6ysrKQn5+PU6dOuVxdC0q439malwZI7qDEIZaCyC0whCKXwH5Q1huepGIRHMAo8zF4WFgYhgwZgv79+yMiIgIhISEIDg6WxWvz9vaGt7c3GjVq9KcDlJrByPnz51FaWorz588jPz8fx48fx7lz55CVleWxM6cul5mRlmNAWo4B69MNaNdKRPcOSozro0FsnBIiAFQDksF+h8zuMSos26DjQYD+lKgAesTZ9zx0Y5PxE4eN+GWvHj+nG3DijBE5xxmQ/p5Wq0XTpk0RGRmJiIiI2p9rwqXQ0NDama8ajQZKpf2GB0qlsnb7v//iokZFRQXOnDmD8+fP4/Tp0zh8+DB2796NXbt2ucSXEkbugjZnMgEjeqhxiKceq8ZM7AtFcscQisiNXPm8NcJHN2QhHECQ6el9wIABGDx4MHr06IF27dohICDAtU5KSiUCAgIQEBCA6Ojo6xf1RmPtjKnTp0/j/PnzKCgowPHjx3H8+HGPDKYKSiQUlEj4JUOPdTv1aB0iYlRPNQZ3VaFJa6Xd7q43qCuDbrq1+EglGvoJdrmr442znn7Zrscvew3YlWPAryeNvLvdNY0bN0ZERAQiIiLQrFkzxMfHIygoCP7+/ggKCkLjxo3h7+9v16Dpbvn4+CA6Orr2HGA0GnHixAkcP34cOTk5WLVqFfbs2cPrAw8zIlmFt7awDkTugCEUkRsZ2l0NUQHeGc8BdAZ5FXnAgAG4//770atXr5vCG7c5WSmVCA4ORnBw8E2/36VLl3DhwgWcPn0ap0+frl3Gcfz4cRw+fNgj9kVJAvYdNWLfUSO2HzTg81YiOrdVYVBXFQZ1U0NsYNtm5hEhIoIaKXD+Mpec0B/17aiyaQB1q1lPv54yIrfQs6ecaLVaREREID4+HhEREYiMjERoaOhNYZOPj49bHP9rQqlhw4Zh2LBhOHLkCNauXYtly5bxQ+chghoJ8F0XifKR+SwGkasf11kCIvcxuKuSAZSDxEfK4/Dp5eWF5557Dg899JBbhk91+f2sKaPRiNOnT9cGU7m5ubUzpbKysty+v5Tl7nombNlvwA87RLRrpcSw7ioM6qpG6xgloDMDVXc3O0pUAIO7qvA1l+TRnxjTW2OT7XDW0x81btwY8fHxtaFTeHh4bX+/oKAgWc9usqXY2FjExsaid+/emDhxIhYsWIBNmzbJ5vUZjDwO2IMkAf07qbCWpSByeQyhiNzIgC5cJuMozQKdf/vlmJgYvPLKKxg7dqzHDD7qPKkplWjVqhVatWqFzp07A7DMljpz5gxOnz6NkydP1gZS7h5K5RZKyC2UsD1Tj6XrdegRq0JSrBJj+2ogNrw2O+oO7hhmNgMT+2sYQtEf+HoJ6NLuzo9FCgEQtJY73HHWk6VnUk3oFBMTg6CgIISGhiIkJMQtZjjdreDgYNxzzz1o3749fv75Z7z44ouoqqpy+usKb67gwcBO+nRUYW0x60Dk8tfrLAHJHZuSW3nxvy4STcb526UPB/1RQ1/nXmTGxsbi888/rw1a6NZqZkvFxsYC+GMotWvXLmRlZbnt8r3LZWbszjZgd7YBYc1ELPlJh17xSgzuqkZsFxVQVf/eUX07quDrJaC8iodnuq5XggpajaWJcH2ISgBelkY6aXsMWL1N75Gznn4fOtUETqGhofyi4TZqluo1b94cr776qtOP5S2aiHxT7CS5gwjTqVIoNP4sRh1jJzYnJznjGY3ITfTvpGIA5UBRLZwXQvn5+eGDDz5gAHWHfh9KjR07tjaUys3NrQ2lCgoK3O53r21mvleP5b/o0KWdZWZUfXtHNfAV0CtBhZ/T9NyhqNZfRmjqFUCJWgHwElB5TsKqn3VI2anHr6c85w53NcvrkpOTGTrZwMSJExEeHo7hw4fj/PnzTnsdcpgp7a4a+gpomd4Jp/vksRhELoxnOCI30SeRS/EcycdLQOvmIk6cdfxg6bXXXkPfvn35JthITcPzmlDv1KlTtU3Od+3ahezsbOzdu9etfufKanNtM/PN+w1oH67E0Gu9o8LbW+6sZ640w3SLPEqSgGkjNAyhqJZWLWBIN3Wdj6ttNO4l4NA+A1Zv0yH9kBGZuUYUX3T/Zvddu3ZFXFwc4uPj0bZtW7Ro0QIREREMnWykc+fOWLRoEcaPHw/JSd/MRYYyhLIXyQT066jClywFkUvjND2SPS7Hs07aoET4efMj7UhT/6/M4X1xEhISkJ6eDo1GwzfAAS5dulQbSOXm5mL37t3YvXs3Ll686Ha/a4C/gPbhSvSIVWFgVxUG9rkWKFQD0p/cDbKiyoymIy6hWs9DNAFThmmw5GW/W87IFVUCoAVQBaTu1WPNNh32HjHiQK7RrWfxhoWFIS4uDsnJyYiOjq69g11AQAB3Gjt65ZVX8K9//cvhz9u6uYj8lY3qvSSVrJfxq4S/5GaxEHXgcjySM+6cJGsMoKzjmxKJjC/YD8rR/rOsCn/7qMKhz/nNN99g0qRJLL6TnDp1Cvn5+Th69Ch2796NrKwsHDlyxO1+zzYtRSS2UWJUDzUGdlWjSZhouaveDY3MRRGY/GoZvlrPBuUE7PikIZI6/HE2T832DYY+AAAgAElEQVSSu98KJKTu1WPlFj2OnDTimBs3Gm/fvj2Sk5MRHx+PhIQEhIaGolWrVtxJHKisrAwdOnRAYWGhQ5/3wSEaLPmHH98AO9LpgcQ1W9kXygoMokiuOPeXyA3068x+UM7QK96xSyD9/PwwevRoFt6Jau68N3DgQIwfP752ltTmzZvdatnesUIJxwolbDtgQPvwavRJVGFsHw06dL65kfmc+70YQhGiWojo1Ob6JaVCAATvm5fcbcs04MhJyW2X3HXt2hWDBw9G+/btERkZiYiICM52ciI/Pz/cf//9eOuttxz6vLERHFrZm5cWaJnWCaf7si8UkavikZLIDfRlPyinSIhSokmAAr9dcsygqnv37vD29mbhZaKml1SXLl0wZMiQ2kAqMzMTGzdudItAqviiCcUXTdiaaUDKTj26tlfinj4aDOyqhugHJLZTIT5Kiaw8I3cID/bkBC20GkAQAFxbFp66zb2X3Gk0GgwePPimZXbt27dnbycZmTp1qsNDKEd/OeWJTCagXyf2hSJyZTxTErmB5FjeDtgZvLRAUgcVftjumJkg3bt3Z9FlquaOe3FxcRg9ejQmTpzoVoGUJAEZvxqR8asRqRmWRuYT+qkxqKsa85/wweBnrnIn8FAqlYC/jNRC8FcA5WYsW12NlF16ZB5zvyV3gYGBSE5ORnJyMmJjYxETE8NldjLWrl07BAcHo7i42CHP1yRAgYQoDq0coX8nFb7MZR2IXBWPlEQuTrEyAg3HNeByPCcwmYD7B6odFkJ16tSJRXeFE6tSibi4uNpAasKECcjLy0NmZiZ++eUXZGRkuPTvV7NUL/2wAR3Cq9G3owq+XgLKq9jCzxP9bbIXjEbgvUUV2JltxO4cA4ovuM+Su5YtWyIpKQnJyclo164dIiMjER4ezjfeRXTu3BkpKSkOea6kDip4acGm5A4QGyECDKGIXPdamSUguWJTcuskx7IflDMNS1LDSyOgSmf/3ZX9RVzwJKtUIj4+HvHx8bjnnntw7733uk0gVXzBhOILJuw5YoTByMO1pzpVbMK9L5Vid44RFdXusR8EBgZi4MCBSE5ORkJCAiIjI9G8eXO+2S6offv2Dguh7h+oZgDlIN5awCclEhWj8lmMOsZSbE5Osrw+ZgmIXFvfjvwYO5O/r4BhSWqs2mr/2VAS00bXPuHeJpBas2aNy95lr7SCAZQnW7ax2i2+CNFoNBg0aBCSkpLQpUsXxMTEMHhyAz4+Pg55Hq3aci1AjmEyAQO6qLCWpSByzWtiloDItQ3qwiaYziRJwOPjtA4JoVQqvtduc/L9XSA1evRo5OfnY8uWLUhLS3PZQIo88xjoykaOHImkpCTExsaiQ4cOXGrnZgTBMZNAJvZXw99X4Mx0B+rcRom1bEdI5JrXwSwBkeu6+kVrNBnXkBc9TtYjToWQIAXOnLfvPPyTJ0+iR48eLLi7nYiVSnTr1g3dunXDsGHDkJeXhz179mD37t1ITU3FxYsXWSQiG+rSpQsGDRqExMREdOrUicGTG3PU8fOv93jxWszBeiUogW2sA5FLXvuyBEQufAKOV/KiRwY0amD6aC3+9VmlXZ/n7NmzLLabCwgIqA2kJkyYgMOHDyMjIwNpaWlYt24dC0R0h9q3b4+kpCQMHToUUVFRiImJgVLJy2B3d/LkSbs/R1SoiE5tuC85WrNAAcblEVBOOs5iELkYHjFJltiU3Dqd2/EjLAcmEzBzjBZvLq2C3mC/XffQoUMstgdp3rw5mjdvjkGDBuHEiROYPHkyMjMz8cMPP+DXX39lgYjqEBAQgIEDB6Jv375ITExEVFQUAgMDWRgPkpOTY/fnmDVBC62Gd8VzNEkCurVXYj9LUeeYis3JSW44giVyYT1i2SNINoFBUwWmDtNi0doquz3Hjh07WGgP1bp1a7Ru3Rrjxo3DmDFjkJeXh3Xr1iE1NRWXLl1igYhu0LdvXwwcOBCdO3dGbGwsG4x7qPLychQUFNj1ORr5CXhgiJYBlJMkdWAIReSKGEIRubD4KJFFkAnJAPx9mpddQ6iioiJcvHiR3+R78klbqUT37t3RvXt3DBgwADk5Odi3bx9SU1OxdetWFog8Vrt27TBw4ED07NkTsbGxaNeuHYvi4TIyMux+V9kHh2jRuJEAych6O0P3Dkos4H08iFzvepYlIHJNwncR8B7bgN++yUhYiIih3dVYn663y/YlScL333+Pv/71ryw21S7XGzJkCMaNG4ecnBysX78emzZtQmFhIQtEbk+j0WDMmDG1y+1iY2Ph4+PDwhAAICUlxa7bV6sEPPuAFwMoJ2rTUgEwhCJyOQyhiFxUjzgVAyiZkQxmvDLd224hFACsWrWKIRT9Qbt27dCuXTsMGDAAhw4dQmZmJlJTU/Hjjz+yOOSW+/uYMWOQlJSEzp07c7kd/Sl738xh6jAtWoWIkAxsY+osPl4C/NZFomxkPotB5EIYQhG5qH6d+PGVo24xSkweqsWX66vtsv20tDQuyaNbCgwMRJ8+fdCnTx+MHj0aU6ZMwc6dO5Gamspm5uTSapqMjxw5ElFRUejcuTPvbke3dODAARw/br+7pvn5CPj7NC8GUE5mMgFdY5TYxFIQuRR2yifZ4Z3xrLOuWwJaNVOwEHI7qArA6d9MiJhwGUbJPrvyZ599hocffpjFJqtUVFQgOzsbaWlpWLt2LbZt28aikMvo3LkzRo8ejS5duiA2NhYhISEsCtVpzpw5ePfdd+22/Vcf8cbLf/WBpOclq7MtT9XjtQrePbguvEMeyWq8xBKQ3DCEqpuuJBtHZ0yDyAxKlkS1gKf/U44PvrVPk/LExETs378fgsBDONXPkSNHkJ2djQ0bNmDTpk0oKipiUUh2NBoNRo8ejb59+yIpKQmJiYksClmtqqoKkZGROHv2rF22H9RQgaMrGqGBD8/BcnCqxISRew6yEHVgCEVywnnMRC6owZ5xUD7qDzPjOlmS9Ga8OMULy1N1+O2S7Rt3ZWZm4sCBA+jUqROLTfXSvn17tG/fHoMGDUJ2djZ27tyJtWvXYt++fSwOOV3btm0xevRoJCUloUuXLpz1RHdk48aNdgugAGDeLB8ENOAd8eSiRRMFdCXZ0DSLYzGIXAQTUZLfRShnQtWp57G2+GSuNwshY6IKWLCiGk++U26X7Y8dOxarVq1ioemuZWZmIjs7Gz/++CPWrl0LnU7HopBDDRs2DCNHjkRiYiK6dOnCXk90V5KSkpCenm6XbXdup0TaooYcQMlpMCsAnf5SiuoxbE5+O5wJRXLCszyRC+oWw4+u3EkG4C8jNFjyczX2/Wr7r0vXrl2LQ4cOoUOHDiw23ZXExEQkJiZi4MCBeOCBB5CamopNmzbh6NGjLA7ZTYsWLTBgwAAMGTIEXbt2RevWrVkUumsbNmywWwClFAX850lfiArw7sQyYjYDndsqsZOlIHIZHMkSuaD4KJFFcAE+3pYL1oFPXrV5k3JJkvDSSy9hzZo1LDTZREhICEJCQmqX6rGROdlDTaPxnj17Ii4ujnf6JJt65ZVX7Lbtx8dr0SdRCUlineWmW4wSO7k8kshlcFoeyQqX4lknY2givDT8+LoCUQSeeqcCH35XZYdti8jKykJMTAwLTXZx5MgR7NmzBz/++CNSUlKg1+tZFLoj48ePR9++fZGcnIyOHTuyIGRzGzZswNChQ+2y7ZZNFUj/X0M0DVCwH6cMHTgmYcrRLBaiDlySR3LBHZFkhSFU3RQrI3Hoa39OBXeVg6wAnLtkQvdHrqDwnO3ftHvuuQerV69mocmuzpw5gz179iA1NRVbtmzhUj2ySqNGjTBp0iT06tULvXv3ZqNxsqvu3btjz549dtn2mrf8MaavGpKBdZajKp0ZXdZnshB1YAhFshkfsQQkJwyh6tYlpw2+eMmHhXAhogr4Yase97xQavttiyI2bdqEPn36sNBkd+Xl5cjOzsYvv/yClJQU7N+/n0WhP57L27bFpEmT0KVLF/Tu3Ru+vr4sCtnVmjVrMHbsWLtse8YYLRb+Pz9IBl6iypVCAUTfdxXKScdZjNtgCEVywR2R5HXhyhCqTvdfaY+/T9WyEC5GVAn46+tlWPRDtc233bVrV7t9+0t0KwcOHMDu3bvx448/Yv369SwIoXfv3pg4cSI6duyI5ORkFoQcwmQyoU2bNsjPt/3d0Vo2VWDvZ40Q1EjgMjyZu+8f5TjcOZeFuA2GUCQXbExO5GLatGRTcpe8SDaa8X8zfLAhXW/zZXl79+7F119/jQcffJCFJofp2LEjOnbsiGHDhmHv3r34/vvv2TfKQ40fPx7jx49HfHw82rdvz4KQQ7311lt2CaAA4IM5vmgaJHAZnguIbiniMMtA5BKYhpKscCZU3VK6JiA8WMFCuCB7Lstr0aIF9u/fj6CgIBaanOLGvlHLly/H5cuXWRQ3xn5PJAeFhYWIjY1Faantz6vP3OeFd+f4chmei/h+qwGvXM1hIW6DM6FILrgjkmwwgLJO1qiOEJlBuSxRJWD2O+V4b4Xt75Y3bdo0fPHFFywyOVV5eTm2b9+OjIwMLF++nE3M3e1czX5PJCOjR49GSkqKzbfbsY0Smz5sAH8fLsNzFSeLTRi19yALcRsMoUguuCOSfC5sGULVSbEyEjlf+fOCyJUPugJQWmFG/1lXkZlrtPG2BWzcuBEDBw5koUkWdu3ahY0bN2LLli3YsWMHC+LCOnbsiJEjR2Lw4MHo0aMHC0JOt2zZMrssQ/fSCNj63wbo2kEJycg6uwrJBMSnHGAh6sAgimQxHmIJSC4YQtWNd8ZzD6IS2HvIiL5PXEWVzra7fWxsLNLS0uDjw/2E5OPw4cPYtGkTVq5cyTDKxfTq1QsTJkxAjx490KlTJxaEZOHChQvo2LEjioqKbL7tBc/54on7vSBV8bLUpQa1AhA/uRTG8fksxm0whCI5YGNyIhcS2YJNyd2BZAS6Jqow/0kfzPpPuU23nZOTg3/+85+YP38+C02yERMTg5iYGAwYMADp6en46aefsGrVKhZGxsaNG4fhw4eje/fuiImJYUFIVubOnWuXAOqR0Vo8NlbLAMoFmc1AmzAFm5MTuQCGUEQupG0YQyh3IVWZ8dhYLQ7mGvG/tdU23faCBQvQs2dPjBkzhoUmWakJo4YMGYJx48Zh1apVDKNkZty4cRg3bhz69OmD0NBQFoRkZ9myZVi8eLHNt9szToX/+6sPBAFse+CiQoIYQhG5Ak7HI9ngcry6LY+NR4fWDKLchUIBnLtkxsT/V4qd2ba9/3NUVBTS0tIQGBjIQpNsnT59Gtu2bcOGDRuwbt063lHPSRo1aoT77rsPPXv2ZPhEslZYWIiePXvafBZUgL+ALQsaIq6NCMnAOruqFZv0+L/yQyzEbXA5HskBd0KSDYZQddszJBE+Wn5s3YmoArKPSeg36wouldr2I3DvvfdixYoVLDLJ3oULF7Bnzx6sW7cOK1asYBjlIDXh08iRI9GnTx/e6Y5kzWQyYezYsVi7dq1Nt+vjJWDRi764f7gWUjUvRV1Zxq8S/pKbxULcBkMokgPuhCQbDKFuT1oegdwVDSCZWAt3I2oFLPuxGg++UmbzbS9atAiPPPIIi0wuoby8HFu2bMG6devw3XffMYyyk0aNGmHixIkYOXIk+vXrx/CJXMJbb72Fv/3tbzbf7puP++CFad6Q9LwMdXUXS83osyWThbgNhlAkB9wJSRYYQNWt9a4orJ3nx0K4KVEt4NWFFfjn/yptut0mTZpg/fr1SExMZJHJZTCMso/o6GiMGDEC/fr1Y/hELmXXrl0YMWIErl69atPtTh+lxQezfaDVCOwD5Q7XUiIQ+cUPUDVowWLcBoMocjbugCQLDKHq1v9EW3ww25uFcNeDsQDo9GZMf70c3/yis+m2O3fujO3bt8PLy4uFJpdSE0bt3bsX3377LXJzc1mUOxAdHY17770XgwcPRlJSEpRK3peGXMelS5fQt29f5OTk2HS7g7uqsORlPzQLVECSWGd30WV6KapG57MQt8EQipyNVyFELoJ3xnNvZjPgpRXw+mM+KDxnwi4bNirft28fnn/+eSxYsICFJpfi6+uLUaNGYdSoURg8eDA2btzIMKoebgyfevXqxYKQS3riiSdsHkBFtxTxwRxfNAtSsBG5m+kQLiKDZSCSNYZQRC6iZVMFi+DmJAloFSriv8/5YtI/SnG0wHZfzf73v/9FdHQ0nnrqKRaaXFKvXr3Qq1cvhlHWDLAZPpGbeOONN7B8+XKbbjPAX8DCv/miTYQSko4T8d1NcGNeLxPJHafikSxwOV7dvukQj9gIzobyBKJWwE/b9Bj3Yil0NmyU6ufnh5UrV2Lw4MEsMrm8HTt2MIz6HYZP5E5Wr16N++67DwaD7aYqadQCPv+7Lx4YpYVUyUtPd7QiVY//qzjEQtwGl+ORs3EHJFlgCFW3PYMT4ePFj6ynEJXA/37QYcYbtr1jXlRUFFJSUtCmTRsWmdzC9u3bsWHDBqxcudJjw6jo6GhMmDABQ4YMQe/evblTkMvLzc3FwIEDUVRUZNPtLnrRD4+M1fJOeG5sW6YRTxRmsxC3wRCKnI3L8YhcgOFqEfx9BEgm1sJTmCTgkXFanD4n4dXPbXfHvLy8PDzzzDNYtWoVG5WTW+jduzd69+6NIUOGYNWqVViyZAmuXLniEb87wydyRzqdDjNmzLB5APXCQ154ZJwWJgZQbi0yVAEUsg5EcsYQisgFNNzeD9IUfxbCg5jNgElvxguTvVCtN+Otr6pstu3169dj7ty5+PDDD1lochu9e/dGcnIy+vfvj3Xr1uG7775z2zAqJCQEU6dOZfhEbumxxx7D9u3bbbrNFx7ywj8f8YZJb4aZGZRbaxnMnlBEcscQisgFhDXjCdUT1dwx75+PeONooQk/bNfZbNsLFixASEgI/va3v7HQ5D4XNUolRo8ejf79+2PkyJFuF0Y1bNgQEydOxIQJE9jbjdzSm2++iS+++MKm2xzTW4N/PuINrUaAJLHG7k4yAqYVEVDcd5zFIJIprgclp2M/qLoNO90O85/g0ilPJYpAQbEJT79XYdMgSqVS4bvvvsOYMWNYZHJL5eXl2Lx5s8uHUTXh08iRI9G/f3/4+vryzSW3s3z5ckyZMsWmjcjH9Nbg/Wd8EBasYADlQQY9XYbi/nksxG2wLxQ5E2dCEbmAVpwJ5dEkCQgLFfH+Mz44VSwhK89ok+0aDAY8+eSTCAsLQ0JCAgtNbsfX1/emmVErVqzAsmXLXOb1M3wiT7F792688MILNg2gBnZRWQKoUJGNyD1McKCAYpaBSLY4siVyAa24vt3jSXozwkJFfPy8L6JaiDbbblFRER599FEcO3aMRSa3VRNGvffee1iyZAkefvhhWb9eb29vPPbYY1i6dCnefvttjB49mgEUua28vDw8/vjjKCy0XTfpqBYiPpzjywDKY6+bRRaBSMY4siVyAYENOGOWLEFUUicVPn3BtkHUnj17MGfOHOh0OhaZ3FpQUBCmTJmC0NBQWb9Os9mMTp06YdSoUfDz8+MbR26r5k54WVlZNttmVAsRn77gi7aRSgZQnnqsb8QhLpGc8RNK5AIiQ/mNDllIVWb0S1bj0xd80cjPduHkTz/9hCeeeAJVVVUsMrmt1NRUPPzww/j4449l/Tqrqqrw5ptv4sknn0RaWhrfOHJLOp0OTzzxBLZt22azbdYEUP2S1ZB0DKA8VevmHOISyRl7QhG5gKYBvKMLXSdVWoKo9+f4YsYb5dDZ6Jvezz77DD4+Pnj//fdZZHIreXl5WLhwIdauXYvc3FyXeM35+flYsGABduzYgUmTJmHKlClo3rw530xyG0888QQ+++wzm23vpgCqkgGUJwtsIADnWQciuWIIRSRzZUsiII1pwELQTaRKMyaP0KJaBzz5ju2CqA8++AAhISGYO3cui0wu78qVK1i6dClWrVpl09kWjpSVlYWsrCxs27YNEyZMwPTp0/nGksubN28eAyiym8hQEchnHYjkiiEUkcy1ZlNyugWTwYwZ47UAbBtEvfTSS/D29sasWbNYZHJZa9euxRdffIF169bBaDS6/O+zfv167Nq1C7t27cKMGTOQlJTEN5lc0rx58/DSSy/ZbHsatcAAim7SNIC9VInkjCEUkcx5aVkD+nNmM2DSW4Iok9mMp9+pgM5w9xfgBoMBf//73xEWFoZRo0ax0ORS0tPTsWzZMvzwww82vduWHJSVleGLL77AgQMHMGTIEMyYMQORkZF808llpKSk4B//+AcMBoNNtqdRCXh/tg8DKLqJJAFliyPgN+04i0EkQwyhiGQuugWbktOt1QRRMyd4AYDNgqjS0tLamVAMosgVXLlyBQsXLsSyZctseqctOapZord3715MmTIFDz30EFQqFXcCkrWUlBTMmjULer3eJtvTqAS8P8cHMyd4MYCiP4gIVeA3loFIlhhCEckcbzNLdbFXEFVYWIhZs2YhKCgI3bt3Z6FJtlasWIFvv/0Wq1at8qjfe+vWrdi/f3/tXf8GDBjAnYFkadOmTZg1a5bNZifeGECZ9Ayg6I9MJtaASK64YJacqu3zhbxyqMNf9TF4aqKGhaC6D+gCoFAL+HRllc2CKACIj4/HypUrueyHZKdm6d3y5ctx/rxn3wqpTZs2GDNmDJfokezk5+dj5MiROHbsmE229/sAyswrSfoTM+dVYleboyzEbRyd35JZADkFp1gQyVxUKD+mZJ0bZ0S9P8cHGpVtri2ysrIwY8YM5OfzVjMkD1euXMG8efPw6KOP4sMPP/T4AAoAjh07hnnz5mHGjBn44osvbNZzh+hu5OfnY8aMGQygyOFaN+f1M5Fc8dNJJHO+3vySgqxnryBq69atDKJIFlasWIHp06fjhRdecPveT3f6WX366acxbdo0pKensyDkNDUB1NatW22yvchQkQEUWa2iijUgkiv2hCKSOQWjYqone/WIqgmiFi1axOU+5HByXXp37wANBnZRY3eOAau36XC13Pkj47KyMixbtgyHDx/G2LFjMWPGDDRv3pw7ETmMPQKoT1/wRf/uagZQZJW2YQqAQRSRLDGEIpI53h2P7sSNQZTZDDz9bgX0NgqiZs6ciZUrV6JRo0YsNNnd1atXsWjRInz99dc4ePCgbF5XtxglHh6pxaieagS3EjGxWI3hSSos+VmHH3fpZfEab7yL3sSJEzFt2jTuUGR3ly9fxsyZM20WQEWEivh4ri/691TDVMkAiqwT3lwBHGcdiOSIIRSRzDULFCBJrAPVX00Q9ejEazOibBREbd68GU8//TQWLVoEjYZN88l+vv32W3z77bf4/vvvZfOaIkJFTB+pxeBuKnTqrAIqAemqGQ39BUwcpUXndioM6KzHitRq7DlslMVr/umnn7Bjxw4cPHgQ999/P7p168adi+xCp9Ph6aefxubNm232eftkri8G9lJDqmD6RNar1rMGRHLFEIpI5hhA0d2wVxD15ZdfwsvLCx988AGDKLK57OxsfPPNN/j888/x22+/yeI1NfAV8MAgDcb102BgD7Xl+Hz1+mdJMgIoMyO8hYjZk73QO0GJNdv0+CZVh+OnnX8gLysrw/vvv49t27bhwQcfxIwZM9CgQQPubGQzOp0OTz31FL788kubbI8BFN2NRr7sqUokVwyhiGSsbHEEMIaDBLo79gqiFi5cCAAMoshmrl69iq+//hpfffUV0tLSZPO6RvRQY+owDUb30kDjL9x2SZCkN0MQgE5xKnRqq0Kfjip8tV6HZRt1MBidP5A+ePAgDh48iPT0dEybNg0jR47kjkd3rSaAqjkv3C0GUHS3IlsogF9ZByI5YghFJGMRoexKTrbx+yDqP8uqbDI7g0EU2cqWLVvw3//+Fz/88AOMRnksY+sWo8R9A7W4p7ca4ZEiUGm2akBsNgNSlRmiAhjYS43ObZXo30mFbzfLp1/U999/j3379mHXrl2YPn06bzZAd8zWAVS3GCVem+nDAIruSgMfzoQikiuGUERy/oCyJznZ0I1BVGSoiEfnlTOIIqcrLi7GBx98gDVr1uDo0aOyeE3BgQpMH6XFPX3U6BSrAkyAVFb/wbBkAlBh6Rc1ZaIWvRJU6BGrwze/6JBz3PlBW0FBAd58803s3bsXkydPZuNyqjdbB1Ajeqjx6iPe6JSgYgBFd0UysQZEsh3jsgRE8qU3sAZkWzVB1MBeanxs9sVj88px/IxtgiiFQoH33nuPQRRZbenSpfjuu++wbt06WbwelVLApEFqTOhnWXoHNWCqvvu7cUlGAKVmhLcU8eJfvdErQYVVW3X4PKUaV2Uw0N68eTMyMjKQnp6Ohx9+GF27duXOSXXS6XR45plnbBZADU9W48PZvggPFxlAkU2ULm4N/2knWAgimeE8C3Kqxj1m/5NVuLXosgUY11fNQpDNmQ1AZJQS7UJFZOZJ+O3y3X9luG/fPly4cAGDBg2CUsnvOOjW9u7di7fffhuvvfYaDh06JIvX1DdRhX887I3Zk7wQH6cCDGZINv4iwCwBMAJhrUQM6aJGeHMFzBDw6ynnNy7X6/XYv38/9u/fD7PZjKioKGi1Wu6s9KdqAqhPPvnEJtsbnqzGgjm+CA8TIVUzgCLbSNllQEXrp1iIW7iw+91XWQVyBoZQ5FQMoW6vl/Ij9O2oYiHILmqCqLgwJc5dMiGv6O4Hwgyi6HauXr2KxYsX49VXX8Xq1auh1zu/P1JEiIhn7/fCsw94Y1B/NbQKQKrGXc9+quuzpwDQIVaFXu2VaB4k4kqZCWfOO3/9SElJCTZs2IC8vDwEBQWhVatW3HHpJrYOoGbeo8XrM30sAZSOARTZztcb9SgLZwh1KwyhyFk4QiCS8wdUyaaKZF9ShRk9u6qwoLEvZqEcP+2++1CgZmDCpXl0o61bt+Kjjz7C6tWrZdF4vLKhvvgAACAASURBVGbp3eShWgzqpbb0fSp13ABYMgEoMyO4iYg5U73QJ0GJrzfKY4me0WjEd999h5ycHIwbNw6zZs1CcHAwd2KyeQD1zH1eePNxH2i8BQZQZHNm7lJE8hzjsgREPHmSZ5MqzQgPE7Fgji+e11Tg+y26u95mzQDlzTffRIMGDVhkD1ZcXIzPP/8cX331lWwaj/dNVGHqCMtd7xoGKWCqNDvteCsZzBCMQKd4FTq1V6FbjBLfbdbb5HN4t44ePYrXX38d2dnZmDp1KiZMmMAd2oPZI4B64zFvaNRgAEV2YTCyBkRyxBCKSMaMPHmSowbCOksQ9eEcH7RoosB7K6ruepuffPIJLl68iDfeeAMREREssgdauXIllixZIpvG4xEhIv4yQoOxfTRoH6sEKs2yaIBsNgNSlRmiArhvtBa9E1RIjlVhRWo19h5x/olg3bp12Lt3LzIzMzFp0iTExsZy5/YwxcXF+Ne//mWTAEqtEvDyX7zw7ANe0GoESBLrS/YR2kTABZaBSHbYE4qcij2hbm+gz0fo1JZZMTloICwB/g0U6JOgRHmlGXsO3/3g98iRIzhy5Ah69uyJRo0ascge4tChQ/jwww/x2muvITMz0+mvR6UU8MAgDf7fVG/8ZbwXggIVkCrMMMvsFt5mM2DWWz6HSYkqJEYo4a21NC7XOfluqRUVFdixYweys7OhUqkQHx/PHd1DnDhxArNmzcKyZcvueltqlYB3nvLBsw97QwkwgCK7yjku4Yj3LBbiFtgTipyFIRQ5TdvnCzn3ug4Phn6K8OYKFoIcNwiWLIOEPh1VaOirwLZMo6V3zV0OYBhEeY4vv/wSr776Kr7++mtUVFQ4/fV0aafEP2f44Nn7vRDTXglTlRkmo/w/h5CAkFARQ7uqER6sgNksj7voFRUVYdOmTbh48SKaN2+OJk2acKd3YydOnMDMmTOxfv36u95Ws0AF/j3TB0/c7wVTtRkmE+tL9rUrR8Ih7RMsxC0whCJnYQhFTsNZUHUbHfAxwpoxhCIHD4DNliAqubMaAd4CdmYb7noWBoMo95eRkYF3330Xr732GvLz853+evx9BMy53xvPPeiFEYM1lrve6Vzss2i8fhe93jFKNPAV8NsVM85fdu7oXafTIS0tDdnZ2TAajYiLi4Mo8pLS3dQEUKmpqXe9rdYhIj6c7YvJY7Qw6czseUkOsf2gEYe8GELdbizGIIqcgVcM5NQDH6tweyMaMIQiJw1+zQAkoFuCCuFNFcjMlXC57O5GDQyi3JPBYMBnn32GV199FatWrYJO5/ykZ1xfDV6Y7IWn7/NG8xBRlkvv6vNZrFmi16ebGh3ClDAazfi1wOT0mSRFRUVYv349CgoKEBISgpCQEH4g3IQtA6iY1kp8OMcXIwZqYKpiAEWOwxCqbgyhyBkYQpHTMISq24iGDKHIySQgNk6Fds1FZOZKdz0DoyaISk5ORkBAAOvr4jIyMvDyyy/jzTffxJkzZ5z+emJaKzH3QS/8bbIXkrqpAb0ZksE9am2WABiBVq1E9E9QISJURPEFE85ecG4SZTKZcPDgQezfvx+CIHBWlBvIz8/Ho48+apMAaliSGm887oP+PdWyuAkAeRaGUHVjCEXOwKsEchqGUHVjCEWyGPzqgagoJTqEKXHukgn5p++uL82JEydQUFCAiRMnQqHg/u2Kbpz99PPPP8Pk5Ck5KqWAR0Zp8eJUb9w/Ugs/bwUkN51xYTYA3l4CEhNVSAxXonEDBbLzjU5vXF5cXMxZUW7AaDRi+vTp+Pnnn+96W8OS1FjwrC8SYpWQKhlAkeNt3m/EEW+GULfDEIqcgbfdIiKiOkkVZvTupkJIkC9eXliBZRvvbsnV2rVrsXz5cjz00EMsrovZt28fPvroI3z55ZcwGp3f4btzOyUevccLDw3VQOMnwFxlhsmB411RIwAG81038K/X59EIoNSMzvEqdG6nQofWIlZu0WP1NucuhTQajVi8eDFycnIwc+ZMTJs2DSqVih8aF7J8+XKsXbv2rrfz5AQtnp7kjdZhIgMocprmjQUWgUiG+Mkkp+Hd8er2QWgc+ndiVkzyIWoEXLlswssLK/Dhyuq72lZsbCyys7NZVBdRWlqKxYsXY+nSpdi/f7/TX4+/j4DHxnphfD81unRVAeVmh97uXVQC8BaQf0xCZAsRUAHmascGYAAgKgD4CjhbIGHRmmos+VmHk2edfxc9pVKJyZMn4/FHp6Fz1978ALmIuLg45OTk3NU2npygxVtP+MDLVwFJx0s9cp7N+4146jSvM27n6PyWzAPI8dcILAGRfPEbHJIbSWdGwwYC3nrCB4ENFHh9aRX0hjsbZOTk5KCoqAgtWrRgYWVu+/bt+Pjjj7F8+XJZvJ4h3dWYMlSDB4ZoATXw/9m7z8Aoqr0N4M+Z2ZqE3rt0BFTAAvaKYgXsgiCKVKUKXNpLsSAt0oQQuqCiIoqKIuilS+89gQAJvYdk++7svB9WbFdIyJaZ3X1+366XJGf/s7Mz8+w5/6NcjtyDriQAYRVw5/jx1U9uzPvZjZoVZbR93IzGtxohK4jog7fiB5CjonwZGUPfSkST+kbMXeIKerZisHw+H2bPno1dOzaiU6e2aPd6FxhNhXky6diJEyeCCqBMRoH3Oiag2/MWWC2CARRpzsgnXSJd4qlJpGM1KrJtG+mP4gWsFoGhbyWieBEJI+Y4cPpiwdYirV+/niGUjnm9XiQnJ2PevHnYt2+f5uMpW1xC55YWvPq4BdVryYHZT87I/X3ZIgAJWLHOg7lLXPhmpQc5dhW/bAI27PXiibtMeO0JC2rUlgGHGlg2F6nz0qNC8gKPPWBC43oG3FLTgE9+cmPfEW2XTG7dvg9d3+6P9Rt2omuXzpwVpWM//vhjUOfmwHYJ6NbaGtgQQGE9SXvciZFInxhCEemYyYCIL+0gytcDrwJIThXdWllRsZSEdybZC7QEKDs7m8XUqSu9n2bPnq2L8bS834w2zcxo+ZgZUAAlJ3IfjrIRQIKE3Ts8+Gq5BwtXuLH/6N/f79vSfNiW5sPGvT60aWbGiw+ZYC4sRbRHlV8FYA/MVuz3RgIa1zPg0yVuzFnihs+n3cXE5wNmz5mPXTt3claUjmVmZhbo56qWl5HcLREtm5o1WZJKRETRhSEUkY7xRo70/v6U3CpaPm5GgkVg3JdOLN3gua7fUbRoURZSZ7xeL+bMmYPU1FRd9H6qWl7Ga4+b0aGFBeUryVDtkXvIlQQgEgUunfHjq28c+HSJG2t3XXsbul82ebBxrxfLt5rQ9nELHrzLBNkPKK4ILtHzApJPxf1NTGhSz4gm9Y2YusiJLfs5K4quriBN5O9rYMTA1xLw2IOmiJ6bREQUvRhCERFRgflVADYVjz1gQo2KMt6ZZMN3q/MfRD340GMsoo5s3boVKSkpmDt3Lrxer+bjeaWpGW0et+DxB0yAD1BsEZz99PvSuyXLPZi3xIUFKzz5nk2UY1cx50c3Nu3z4fltZjz/oBk3NTACDj8UbwTPTYcKswlo38qKm6rLSF3kwtyf9TEraveuXejc+TW0fa0zjKZCPPl0QJavL4R6tLEJY99OxE31DRE9N4mIKLoxhCIioqApdhXVb5AxpU8SKpVy4OOF+ds578LJHShV8n4WUGNerxdz587F1KlTsWXLFs3HU7eqjLaPW9CxuQXFSktQHZGbYfHn0jsvvl4RaDxe0N3m9h1R8O4RB1Zs9aLN44EwKtKvR1EAXPbjjoZG3FLDgCb1DUhd5MLWA9rOitqybS+6dO2H9Rt2oFfPLqh30z08EbU+7+remO9/+8ZTFgx8LQHVq8pQ7AygiIgo/xhCERFRaB523SrKl5Ux+u1EVCwjY8h0R547513Y3h2oNhdIuoUF1MjevXsxbtw4Xc1+6tjCggeamACfGrEHXEkAIkHg0lk/vv7WgXlL3FizMzT1WLPTi/V7fb+HUYGZXRHfRc+pwmwGOrROwC01DLqYFeX1ATNnfY70tJ3o0qU3XmndlremGnqw4Q4YDIHZaldjMgp0fMaMsd2SYE4UEV1mSkREsYFXeiIiCt2DrkeF1SLwn/YJsJgFJnzpvOoskmoVZNxR9TD8GX0g1Z4JWCqzgBE2f/58pKSkYM2aNZqP5W+zn0pFtqH3H0vvVlz/0rv88vlUzP/FjQ17fWizx4y2j1tQvbYM2CO3k5heZ0Wt+W0vdu7qjB071qPta51Rr/6tPDkj7XIqihun48UnjPj8+38PXw0GgdFvJ6LjM2aYzZENUYmIKHZw/3fSTMm7ew1jFa6ta51UFoGijqoCQgGaNDSiVgUZBzIVnDrv/59/N2NgIdSraobqzABcRyEKNwYMRVjACDhy5AhGjhyJYcOG4eDBg5qP55WmZgx5IwGvPmOB1QQobiASj7eyDEiFBHbv8WHKV058ONeJNTu98PvD9zezc1Ws2u7FgSwFwgvUrmSAMUlA+CLzmgFA9QFGI3DrbSY0qCLD7wd2H1bC+rrz4vb48du6bdi9exuKFTGgTt36vE2NlMupwMWBgC8Xt9xoxNT5Xvj/EYxWLS9jZJcEdH3ZCqOEiAWnRMHIPO3Hj5e7sBDXcH7duOGsAkUar+6kGYZQeWMIRdFKRSCIqlnLgAZVDcg640fGiT+fWt5+zoJ3WicEHnolE2DfBbiyGERFwKJFizB8+HDMnTsXbrdb07HUrSrjnVYJGPJGAm6sbQhs7x6Bh1tJAFKCgNsBfPGTG+/NcmDez25k50ZuZkfGCQX/3eLFkVN+FLEIVK1qgCQE1Ag93KsqoLpVVKoko9ltJlQsLeHkef+/BsaRlJV1EqtWLIE99xLq1L4BSYVK8aQNJ9sC4EIvwO8AhAHFywoUNUtYsvrP2XG31jFgbLckvNTCGuhn5mfZKDowhMobQyjSAkMo0gxDqLwxhKJopgJQvUClSjLuutEIm1PF9nQfWtxnwtT/JMEg/WXmh2T+I4iCqSSEpSoLGGI5OTkYOXIkhg8fjp07d2o+nub3mfBex8TIz34yCQizwMr1Hnw414mxnztx8Jg20zrcXmB7ug+b9/tw9pwftSvKKFJGguQNhEQROU91OCvK5vBj5eqNyDi0GxXKWlGlan2ewGEp9ILADCjlAiB+79DhBRrXseDCGRWb9vvwaGMTkrsl4oG7TFByVXABHkUThlB5YwhFWmBPKCIiCivFeWXnvERUryjhhQctsFoFlH+2oZELQ73wHVTXYUjVx0IUfYDFC5G1a9di6tSp+OyzzzQfS5niEjo0t6BzSwsqVJQj1vtJlgAkCZzMVDB9kQtfLfdg3xGfLo7PlV30dmcoeP5BE1o1s0A2B86diJyjf+sVJeOOegZMW+TCtjRt67Po+9U4mLYL7dofRM/unWAwl+bJHCo504CLwwHlHCDMgf+mAv4cI+AIbDBRrpSEFx+2oEY17oBHREShI1gC0kqdvlm8o8nDnuaNWASKGbIBQGEp0Ij5Wg1t/S4goTakir0hyrRi4YLg8/mQmpqKlJQU7N27V/PxPHOvCW2bmfHc4xbAF2hkH5H3nlUAHuDzpS58vcKDb1e5dXvMCicKtHvCglebmXF7YxNg90PxRvg8TZSwcYMH47504stf9VGrDm88h06dO+HW25vyxA5WzjTgwgDAbwOEKfDfVMCfa4RqMwBCzf/nNZGOrd7hQ9fMXSzENRwYU5l5AEUcZ0IREVFEKD4AF/OxxkeyAI40+DPegeR3QpRrz+IVwL59+zB+/Hh88skn8Hg8mo6lcKJA9xetgdlPVWSotgjNfjICSBDYvMmLhSs8SPnWiRydz+jIsauYuMCJdXu8eO3xQBhVtJQU6MWjRug8vexH40ZGpFSWcUsNA+b97ML+o9p2op4+ayF27NiOLl264vU3OwIoxJP8eqkeIHfO7wGU46oB1HV9XhMREV0nhlBEOiYb8L9LlojigWQB/C74jwyB5DkFUbn/nz1LKE9ffPEFUlJSsHr1as3Hcs/NRnRsYUGbFr/PfopA829JAMIqkH3ej4WL3Ji6yIkt+6Prw3TLfh+27Ldh/R4v2j5uwWP3myAriNisFMWpolhRgQEdEtCkvgHjv3Ti+zXahpmbtx3Gji59kJ62E50698QN1TlbON9UD3BxMJAz848m5IH//r8BFBERUTjxjp5Ix44c96NyWYmFoPgkDIDfAX/mCAjvRUiVegLmyqzLNZw5cwapqalITk5GTk6OtjcYBqDjM4HeTzfdYoSaG6HZTyYBGIBVGzyY9nvvJ58veh+uP1/mxvo9Pry2x4xXH7egei0ZsKlQIjBJRfECkk/Fg3eZUKuyjJtruDD9OxfOaDhDxusDRo6dhx0709C5S2c0b/k6T/y8+DKBy5OB7GQAJgZQRESkKe6OR5rh7nh5u12dgmoVGEJRHBMSIBmB7JWA5wRgLAVhuYF1+Rdr167F4MGDkZKSArdb2z4+jWob8H9vJKBvaysqVDBAsYd/Vy1ZAqRCAidPKPhonhOjP3Nh+VZvTGwnn52rYuV2L9KyFEhe4KaaRkhmATUCk7uu7HJZpIiEh+40oWopCSfPq8g6o21hDx0+gZXLfwL8TtSvXwNmS1F+CPwbTxpwvi+QOxsQVkDIfxxYBlAU606d9+P7S9wd71q4Ox5pgTOhiHTMZGQNiAABGItDPbcIqjMDUqU+EKVfZlmuPGN6PJg5cyamTJmCPXv2aD6eFx4yo/crVjRp8ntTbVf4H3BliwC8wBeLXFiw3INvVrpj8lgv3eDB+t1ebNrvw6uPmXHbbUbAoUZk2bbiUSF5geeesqBmJRmf/OTGxAVO+DRsFXX6nBd9+3+IXbt2omfP3mh0+8P8QPgr5wrg0hjAsQSQEvHHfkQMoChOHDrBvmZEesQQioiIouSKVTjQsPxQL0jukxAVu8d9n6ijR49iwoQJmDJliubNx0sXk9D9RSu6PmtBsZISlMvhv/mXZQCJAnt3+/DZUjcmL9R/4/Fg5dhVTPjSiXW7vOj8rBXP3m9C0ZIS/E4Vaphful8FkKvi5rpGJNc0okYlGdO/c2F7urb9tuZ9/hPS0tLQtetbeO2Nbry9BYDcz4DskYB7DyAl/fnfGUBRHEnP8gOlWQci3d3SswRERBQ1/mhYPgjCcxJSxR6AuVJcluKHH35ASkoKlixZovlYHrndhI7NzXjhcQvgU6E4IzD7ySrgtqn4bLELc39yYdV2b1wd/837fdgxyoYVW0zo0MKK++4wAt4IzYpyqZAloEvbBDSsZcBH851YsFzb2WebtmZge6feSE9PR/cePVCmXJ34/IxUPcDl8cDFkYCawwCK4hpXFBDpE0MoIiKKLsIAyIlQj42D330ConxniKL3x83L9/l8mDhxIsaOHYtTp05pexMhA91fsKLLs1bUqC1DtYW/+bhsAJAkYcsmD6Z/58LsH93w+uLzgdrrU/HpUje2H1TQ7gkz3nzGgqKlJfjt4Z8VpfgBXPajSSMjUivLuKWmARO/cuLsJW2blo8YNRVpaQfQuWtvPNL06fh6Q/iyAg3IL40GhCXQA+oKBlBERKQTDKGIiCgKXekT9Q1U58G46RO1f/9+TJgwAampqZqPpWEtAzo0t6DLs1bAACi54X2wFQKQrALZ5/34/GsH5vzowub9Pp4KAPYe9qHvxz7sPOjD8w+a0fxRM+AL9HEKN8WpolhRgUEdE1CrkoRp37nx62Ztl4YuXLQS23emoU/vXWjfoTtM5kKx/yZwbQCyxwD2RX/v/wQwgCIiIl1hCEWkYyaeoUR5XMX+0ifKlQFRrhNgLBmTL/WHH35AcnIyVq1apflY/tZ8PNcPJcwrsWQDAKPA6o1eTF/kxKdL3Xzv/4tPl7rx6xYvdmX48OYzFpSrLAN2NTBrKYwULyD5VLzwtAUNaxmRPN+BGd+7NG1afvjIKfTsNRjp6eno2LkHbqzbKHYPvP0b4NIowLWJARQREemezBKQVkre3WsYq3Bt9ZyTcXMNnqZE1yQMgOqBemkF4D0NYa0GmMrEzMvLzc1FcnIyhgwZovnud6WLSej2ohUfdklEzRoGKLbwLvsSApCTBLIvqpiywIUPPnHg181evuevweZUsWKbF0dP+6F6VNSvboRkFlDDPGlMRaAdUcmSEh5uaETZEjIyTii4cFm74EPxAxs27cTevTtRskRR1KpdN8aOtg/I/gi4OATwpjOAIvqHDXt82Gl+i4W4hvPrxg1nFSjSOM+CSMfSsri1LFG+CAMgy1BPzw30iarQFaLEM1H/srZv347x48dj7ty5mo/lzvoG9HzJihefsgAeFYojvA+1slEARuD7ZW58vcKNeUs4++l6LFzhxq+bPNh1SEHrR82oW98QmVlRbhVWq0DXdgmoXUXGuC+c+PE3bZfnrVy1EWlpHdC370F06/Y2DMYYWJ7nywoEUNkTAGECRMLf/38GUEQ4dMIP1GEdiPSGIRSRjnFXD6LrIQBDUajZqwJ9opyHIcq9CchJUflqFixYgOTkZGzcuFHzsbRpZsY7ray45RZj2JuPCwFIiQKnjimY9YMLkxe6cOoCA/mCuGxXMeITB9bt8qLzsxa89IgFsiWwu104KT4A2X48fI8JtSvLSP7ciZk/uJDr0C4MOXU6G73fGYj09DT06NEDdW5sGL0H1rkSuPwxkLsQkP8x+wlgAEX0u7RMhSEUkQ5xnQ9phsvx8lbfNRn3NWBWTHRdJBOg5EK9uAzwXYRIqAkYS0TN8H0+H0aOHIn+/fsjIyND07GULibhP20TMLJLAipWMEBxqAjnI61sFBBmge9/cWPkPCcmL3TB5uRDdLCOnvbjl01e5DpUlCsqoUwlGZIPYd9BT/UCRYtKaNbYhHIlJGSe8eO0xoHilq07sXfPDpQsWRa1atWKsiPpAXLmAJeGBYIoOQkMoIiu7vNlHtiqdmchruLAmMqCVSAtMIQizZxfN244g6hra+SbjLtvZghFdN2EDEhG4PJawJUJGIpDWKvr/4bwwAEMHToUo0ePhtut7fKzh24z4f9et6LrK1YYJEAJ44qqK72fTp1SMPFzJ4ZOd2DTPu58F0puL7Bmpxf7jiiwSohcrygFkATQoJERt1Q24LJNxb6jiqa1OJp5AitXroQkSbj99tshSZL+D6ByDrj0IZA9EvAd/73/0z+LzQCK6K8+XepBLkOoaz6LsQqkBT7dEunYoRNcgkJUcAIwFIN68WeojkOQKr4dWJ4n9HnpW7x4MZKTk7Fy5UpNx2E0CLzxlBnvtEpAzdpy2Jff/bX309wlbixcwd5P4bRyuxfb030R7RWl+AHkqLjzNiNSq8ioUUnG5K+d2i7PO3UKvXv3Rnp6emB5Xh0dr9lxbQwsv7N9DsAECOv//hsGUET/w6ewBkR6xJlQpCnOhLo2x9YJeP1JMwtBFAzJDPguQs1eASjZEJaqgLG4bobn8Xjw8ccfo3///rrY/e7/3kjAkNcTUKaMHNbld3+d/fTxFy4MmcbZT5FyZVbU/qMKEmSgXrUIzYryAomJAo/cY0KZwgJZp/04fVHj5XlbtmDfvn0oVaoUatasqb+DZfsCuDgMcCwBpITALM//KSwDKKJ/M2S6C+YGPViIq+BMKNIKQyjSFEOoayuaNQltH2cIRRQ0YQg8qV1aDrizAGMJXSzPy8zMxIcffoihQ4fCZrNpOpYm9Q0Y9mYCOr1ghVEGFG8Ybz6MAsIksPi/boya58SkBU72ftLA0VN+LNvkhd2pomxRCWUqhr9XlOoHhA9odJsRN1cyINumYr/Wy/OOHsWKFStgMBjQqFEjyLIObo9VG5A9GrgwGPBlANK/9H8CGEARXcNM6z4W4RoYQpFWuByPSMeMPEOJQkfIgLEE1ItLArvnVegGUa69Zsvzli9fjnHjxmHx4sWal6b1Y2b0aWVFgwbh3f3urzvfzfnRjUkLnNz5TmOXbSren+PAb7u86PKsBS88HP4d9PwqgMsq7rrdiDpVZFQsJWHKN05Nl86cOnUKPXv2xLFjx9CtWzdUqVJFu8F4dgGXpwCXUwFhBkTiv/87BlBE17zeEJE+8RGXSMcOn+TDGVHIyYUAVxb8hwdAuA5DKtcBsNaI6BCmTZuGMWPG4NChQ5qWonQxCW89Z0W/Vy2wFJKg5IbvQVY2CsAALP4l0PtpwXL2ftKTFdu82PZ7r6hXHjWjbr0I9IpyqCheTGBC7yTUrCzj4wVOpGVpOysqOTkZaWlp6NWrFx566KHID8D+HZA9AXCsAORE/OvsJ4ABFFEe2A+KSMe34iwBaYnL8a5Nqt8DXeukshBEofbP5XlyIkRC7bD/2bNnz2LUqFEYPHgwzp07p2kJGtQ04P1OCXirVXh3v/tn76f/m+bARvZ+0iW3B1i9w4v9RyLXK0r1B3bPu6OJCXXKyTh+1o+jp7T9AiY9PR3r1q2DxWLBrbfeGpk/qtoCzccv/l9gJpR8leV3AgygiPLh4DE/vjrdmYW4Bi7HI61wJhSRzskSwvpNNFHc+uvyPPsuSM4jEOXe+P3hL/R27NiBDz/8EF999ZXmL/3ZB8x45xUr7moS3uV3sgGAQXD2U5T5t1lRfpsatl5Rih9Ath+P3GtC5TIyxn7mwJyf3PD6tAtYDh06hO7du+P48eN4++23Ubp06fD9sb8tvzP93v/p3z6zAPgZQBHlx/GzvHkm0u3zLUtAWuJMqLy1rTwVJiMXthOFjWQGlFyoF5cCvssQlsqAKbQPnN988w0GDRqEpUuXavpSDTLQ9TkrPuqeiFq1DFDs4dn9TghAtgpczlaRutCFASl2bNzL2U/R5MqsqANHFSTKAvXqGCAJATWMz3WqFyhVSsLDtxqRlCCw86ACh0u7oEVRFKxevRrHjh1DzZo1UbZs2dD/Efv3wKXhQO7XgJxw9R51AoBPBAIoOwMoorycvuDHD5e6sBDXwJlQpBWGUKQphlB5e8CccrqVwQAAIABJREFUgrIlJBaCKJyEDEgG4PJqwJkBGIpBJNQK+td6vV5MmTIFvXr10rz/U+UyMoa9mYjhHRJhTRBQ3OF5iJVlQJgE1m31YsRcJ0bOcyDXwQfmaHXklB/LNnkABahRQULhkhIQxp0TVQUwmwXuvtWEiiUkHD/nx4lz2s5o2Lt3L3bu3IlixYrhxhtvDM0vVc4DOdOAi4MA9zWW3wF/BlA5vwdQEs8norxsPqBghasrC3ENDKFIK1yOR6RzOXbebBJFhgQYikPNXgnVmQ7JdRii7OsFXp6XlZWFSZMmYezYsZq/sgcaGdHzJSuaP2kBcvxQwhQiyBYBt13F1C+dmLXYhV2HOPspFly2qRiQYsf2dB/aPm7Gkw+aAa8KJUyHV/EBkqLilZYW1Kki473ZDny7yqNpDdavX4/27dvjxIkT6Ny5M4xGY8F/mXszkD0ZyP3k2svvgL8HUA6ZARRRPqVlKUBh1oFIjxhCEemc3ckbTqKIkpMA73n4M/pBOA5BlG0LUej6mhNv2LABI0aMwA8//KD5y3mlqRnD3kxErdoylOzwzCiRZQCJAtu2eTHrBxcmL3TxfRSDvvqvG2t3etEtQ0GXlhYUKSHB7wpPryi/CiBHRcObjJgxoBAqlHJg6rdOTXe8ys7ORvfu3ZGVlYVu3bqhcuXK1/9LbF8B2eMA1wZASgBwjZnODKCICo6nC5F+b7VZAtISl+PlreqlyWhcj3kxUUT9ZXme6jgAIReCSKybrx/95ptv0LdvX6xevVrTl1AoQWBA20SMeTsBZcrIUMIUaMtmAZdTxRc/uTFshvYzVii8ch0q/rvFi9MXVZQuJKFyRRkSELam5aoPSEyU8MSdJhRNkrDviILLGs8QXrduHTIyMlC1alVUrFgxfz+knAcujwcuDAR8Gb/PfrpGv0cGUERBWbjCg8PF3mYhroHL8UgrDKFIUwyh8lYrdzLua8AQiijyBCBZAVcm1OzlEFAgEuoEmgf/i7/2f8rMzNT2c6OyjPc6JKD3awkwSAjL8jshALmQwP4DPiR/7sTAqQ5kneFuRPFix0EfthzwQQJwUzUDjAkCapiW56l+QBJA4ztNqFZSwumLfhw9pe17LT09HVu2bEHp0qXz7hPl3gxc/ADI/giACghLnh89DKCIgjPhKxdybujOQlwDQyjSCp9siXTu3CU+1BFpSk4A/E74jwyDcB6CKPMaRJG7//ZP9NT/6cF7b8WA5w+h6UNmqDn+wLKmUJfEKAAD8PViN1K+cWL5Vi/fJ3Fo1yEfenxkx+5DPrzxtAWNGhoBuwolDJctxQ8g24/mj5lx4w0G9J+egG9/Pa7p69+5c2cefaK8gO3b/C+/AxhAERFR7N9aswSkJc6Eypt31wS8+piZhSDSkpACy/NyNkK17YKQrRBJdQFI2LhxIwYOHIjZs2drPsxXWrXD2B7FcEfdTCi5ashbYggByFaB02cUTFngQr+P7difqfD9EccUP7B5vw+7DykoZhG4saoBklFADdPbQvUApUpJePTJdrA5BXbsyIKWX9W4XC4sWbIEbrcbtWvXRpEiRQL/h+94YObThaH5W34HMIAiCqEPPnFBqt+DhbgGzoQirTCEIk0xhMpbkcxJDKGIdEEAkgXwnITkXYvMLBuWrD6F/v37a97/yWAwoHfv3pg05h2Udr0PxRH6vkyyDAijwPptXrw704HxXzrhYvsn+t3xs34s2+iB26PihrIyipeWgHAtz1OAhKKl8cQrI2AS55G2bx9yHNq+/t9++w2HDx9GtWrVULHiUeDc+8DlVAD+vJff/f7xwgCKKETXKwmYIu9jIfLAEIo0vKMm0k6dvlm8y8qD8mV17P+8CAtBpIeLpgCkRIEVaxwYP9+On7eY4PFom8RUrlwZ77zzDrp37w4c7Q3l+JxAY/VQ3tBbBNx2FXOXuPHx107sOuTjm4Gu6pl7TejUwoIn7jcDPhVKON4uig1yg8VA4cb4bu4QDHl/KnYddGr+2m+55RYM6+ZDi8f2AkoioOTjVlsAqkeCajMwgCIKAbtTReNl21mIazgwpjJzANLufpolIK0xiMrb/mcbQeGKFyJNyTIAo8A3y9zon2LHwWPan5SNGzfGwIED8cwzzwDKJSgb6yKU3aGvhG7bd3gxe7EL0753w+3hRzblrXxJCf3bJqBtMzOKFJeguMLwvrHWhNxoHQBg3c8f4d0PxmLp2lOav/aiScDYQWa0fdYIoxWA99p34qpbgj/HCLglBlBEIbDzkILWe3eyENfAEIq0JLEERPp35iJvSom0JBsFXG4Vkz53ov2IXF0EUM2aNUNqamoggAKgnv0W8LtD+poli8A3P7nx1lg7Jn3tYgBF+XbyvB/dP7Kh90Q7tu/xQi4kIIf6rtO+C7DtAADc1aw3Zk6biPYv1NX8tWfbgLeGujH4Iw9ys1XgaqvxrgRQ2UbAIxhAEYXIuUs8l4j0jCEUURQ4dJzToIi0IpsFTp9TMGS6A90/siHbpv3Nbfv27TFz5kzccsstf/w3/9n5IVmG90fz8XMKRs9yoP2IXKzfw93vqGBmLXbhrbF2fPatCxAisLNiyO5irVBPzfjjf1a48Xl8PHkKhvRsqvn2z24PMDrVg17ve5C+3w8k/eN1/zWA8gmuTSAKoaOnubM0kZ4ZWAIi/btwmd/oEGlBThA4kObDu7MdmL/Mrfl4DAYDBgwYgEGDBsFs/suGBZ6TgC34pQeyDMAgsGGbFxMXOHXxmin6rd/jxZYDPmQcV9CphRVlykvwO1WoIbi0+S8uhay6ARE4Hyyl7sfwcZVRrMQQJE/4FMfPa/vaZ37lRdZJPwa/ZcJ9TQ1ATuBFM4AiCp/TF/xAMdaBSK8YQhFFgSMn+Y0OUSQJAUhJAivXevDBHAd+3az9TKBKlSrhnXfeQY8e/7vltHruGwAKgpngLJsEXA4/Pv0+0Hx850E2H6fQ8fpUDJ3hwIEsBR2bW/DAHaZA0/JgJ/p6zwG524DCd/7lP1ZFz8FzcEPFEhgxZho279O2YfkvaxVkHnfj3bMqXnreANgZQBGF0/FzDKGI9IwhFFEUOHuJIRRRpFxpQD5/kQtDZzh00f/p9ttvx6BBg9C8efN//f/9F5chqADKCGQeV5DyjRPjv2LvJwqf+cvc2LLfh36vJqBNMzOMBgQ3I0oYoZ6ZD/G3EAoAZLRoNx5VqlRGj35jsGbLaU1fd/pRP9r2ccHusKDVPQmwGCQogucZUVjOtywFqMU6EOkVe0IRRYFMrm0nigjZALjcKibPd+K192y6CKDuu+8+TJs27aoBFHw5QS/FyzzhR4/xdoz61MkAisLu4DEFbyfb0O9jO/whWZK3BFD//TrZ8MHemJE6Aa+3rKb56/Z4ga7/58awqU5ctvkhmzgNiigcsnN5HSPSM4ZQRFHgMJfjEYWdbBK4nKti2AwH3k62wevT/ib29ddfx/Tp09GgQYOr/hs1dwOg5Ab1d778rxvfrWb/J4oct0fFxAVO7MkIQdDrPQe4Mq76f9dq9CKmTJmE3h0fglHj3MftUzHqMyf6TLIj87gC2cogiiik13IZ8LQ8xEIQ6RhDKKIocOyMH4L3qUThu2m1CmQeV9BnUmA2kNaMRiO6du2KlJQU1KqVx5qC7LVB7YonG4GFKxhAkTa++m8I3nvCCH/2qmv+E0vZJ5CcOgPD//Mkkszav+4Z37vQY7wdG7Z5IScIXuOJQuTsRc6CItI7hlBEUSDptQz4FNaBKNSECOyAt3G7Fz0n2DHje5f253tSEoYPH47Jkyf/fQe8q/BfXh3U38s86cfmfWxCTtpYvNYN2RiCX3R5bT7+UVUM+HAGxn7QARVLaP/av1vtRpcxNqza4IFkYhBFFApcPUCkfwyhiKLE0VO8qBKFkhCAZBJYtcGDzqNtWLRK+9lAFStWRHJyMgYMGJC/H/A7AceBoP7mF7+4we+NSSv7jio4eiIE17ecDfn8h2XR6Z3JmDi2L26ra9X89e9I96HjSBtmLXJBMovAxghEVGB66OWodwfGVGbkTZpiCEX8IIwSe4/wokoUKrIcCKBmLXKh40gbdqRrPxPopptuwsSJE9GxY8f8/5AjHVC9QdXhp/UeviFIM4of+G5N8O9B1XM60BsqX4xo2W40Uie9i3saFtW8BulZCrqOsWHKF0643CqDKKIgZJzgl7ZEescQiihKHDvDiypRKMhyYAe8WYtc6DrGFtjKWWP33nsvUlJS0LJly+t78LbvDupSfvGyim0HuBSPtLV0gwdysHekwgj10orr+pFGD/XBjNRkvNCsquY1cHtUvDXWhuEzHXB7wJ3ziAro1AXeLxPpHUMooiiReZoXVaJgySYBl1vF8JkOdB1jg9uj/UK0pk2bYsaMGbj77ruv/4dztwb1t9ft9sLm5GI80taq7V7YQ9GOLXfTdf9I7dvfwLw5k/Da8w11UYuR85zoP8WOzBMKZDODKKLrtesQv1gh0juGUERRIvM0l+MRBUM2CWSeUDB8pgMj5zl1EUC1a9cOs2fPznsHvKvw56wP6u//vIFL8Uh7DpcakiWxqrNg27KbyzyJqVNT0PPNB2HUQe4z/ksneo63Iy3DBzmBQRRRvq/zEnD8LL9YIdI7hlBEUSIt08+dc4gKemOaIJB1QkHvCXaMnOfUfDxGoxFt27ZFSkoKKlSoUMAnbgVwZRa8JobQ9OIhCoXlW73B/xLnwQL/qKVEY4ybPgND+jwOWQfX2kWr3OgxzobVG7yQE7hzHlF+5DhUJL2WwUIQ6RxDKKIo4XvuEHycDEV03eQEgdUbvOg1wY5vVmq/A57RaMTQoUORmpoKi8VS8F/kPgaoBQ+RTp3z4/hZLvMlfVi+1QspyLtS1X0C8JwJ4jdUw+DRMzFy2BuoUEL7mizd6EXHkblYvcELycQgiigvR07ymkYUDRhCEUWRo+wLRZRvQgByUiCA6jgyVxcBVFJSEoYOHYpBgwYFF0ABUG07grqML9vo5ZuEdGPLfi8cwfaFEkaouVuC/CXl0GfIVEwY+SYqlNK+LmlZCjqOzMXs71wMoojyPF94n0wUDRhCEUWRfYc5FYooX8+iApBMAt8vc6PjyFyk6WAHvIoVK2LMmDEYNGhQaH5hAfvfXLFxL0Mo0g+bU8X2EPSFgudUCEZjxHNvTsaEsf+HetUtmtcmLUtBl9G2QBBlEZBlvl+I/s2BTN4nE0UDhlCkj4vGmMr8bi8fTpzjNzxEeV7YpEAANfs7F9q9p58AasKECejcuXPIfqfqzAiqRhv2cAch0pe1O7XtC/V3JjzX9l2kTBiOu29J0Lw2bo+KLqNtGD/XAZcbDKKI/sWhYwyh+MxFUXGvzhIQRY+dh3hxJboWWQaECARQXUbbcClX+11yatSogQkTJuDZZ58N7S92HCjwj9qdKnZlMIQifdkdgvek6kgP6ZjufbIfZkwZjrsbldG8Pm6Pil4T7Hhvlj0QRBn5niG6Qghgaxrvk4miAUMooiiyeT8fGomuRpYBlxv48BMHuo62we3RPoC66667MGnSpNAHUABUV1aBf3b/UQUKJ1aSzqzb7Qt+hk/IZkL9qc5dfTAj9SM8dGdlXdRpxFwn3p9tx9nzKmQTJzUQAYBPAfzPH2IhiKIAQyiiKHK58TeQDawD0T/JhkAA9f5sOwZOtcOlkwBq5syZaNasWeh/uecs4LtU4B/ffpCBNunP0VMKzmcHd+6q7uOALzvkY6tzWyvMmTkRrz59gy5q9cEnTvT52I6sEwqDKCIAWWf4zQpRtGAIRRRFzGVvxsmzKgtB9BeySSAnV8X7s+344BOnLsZ0JYCqU6dOWH6/mrsZEAWfMsJ+UKRXQS/JE0aojv1hGVulG5tj2tQJeLV5bV3Uat4SF3pP/D2IMjOIovi29QCX4hFFC4ZQRFFmw14+PBJdIZsEsk4o+M8U/QRQTzzxRFgDKABB7wC29QA/R0ifMk6EYDZDEE3782It/wympU5Gmxfu1UW9Fq5wo/dEOw4e9kG2Moii+KWHTUiIKH8YQhFFmVPnOd2YCPgzgOo90Y6p37p0MaY2bdrg008/DW8ABQDOgjdflg1A1ml+jpA+/bYrBDvkBdG0Pz+sZR7GtOkz0eaFe2HUQe6zcIUb3cfZsXaTl0EUxS3ujEcUPRhCEUWZXRm8yBLJ5j8DqIUr3LoYU5s2bTBt2jQUK1Ys7H8rmKbkx8/4kW1jCEX6tPdICHbIc58I+zgtRWpi2vSZGNzrAV0EUT9v8ODNkbkMoig+H2gl7oyXHwfGVOaHA+njnGUJiB+M0WXNDi8EK0VxTLYKHDzs02UAZbFYIvMHXYcL/KM72JScdOzEWT+kYO9Ow7BD3r+xFKmJIckzdBNEpWUqDKIoLtkcKnfGI4oiDKGIooz6QgZ8/LKH4pRsFfhtsxc9xukngGrdunVkAygAqj2twD97+gJnQZF+nTzvh80R5A55YewJ9b+qY8jY6RjU834YdXBXnZapoMPIXPy2ORBE8UsrigdHT/G6RhRNGEIRRaFjZ3mxpfhzJYB688NcLNng0cWYWrdujRkzZkQ0gILnNCCZCvzje7ikl3Qu6ObkqgfwXYrcgEUNDE2egUH92uoiiDqQqeDNDwNBlGRkEEWxb/dhXteIoglDKKIoxO3VKd78NYA6kKmPm01NAigAqiM9qJ/PZFNy0rnM08Ge4xJUZ4SX5ogaGPrhdN0FUfMWuxhEUcz7bRfvi4miCUMooii0bjcvthQ/GED9g5IT1I+fucgQivTtyMkQvEe9lzQYuUl3QVTHkTYGURTThAB2HuRMKKJowhCKKArtPKjwZpLigt4CKKPRiH79+mkXQAFBN13OPMObddK3kASlriMajV5fQZTLozKIopjmU4BzD2xlIYiiCEMooih07oGtbE5OMU9vAZTJZMLgwYMxatQo7QIoAEDBmzbLMnDyHGdCkb6FJChVcrX8tGAQRRQhx876IZkLsxB54C7kpCcMoYgfkNF44poL4zibk1MMk60C67Z40WGkTTdL8Hr37o0hQ4ZoPxD3yQL/6PlL/Nwg/csKRd8yz2mNX4UJQz+choF9XoVBL0HUKBs+/ZFBFMUW9kklisJnWZaAKDqt50WXYtSVAOrND23Yf1Qf7/NWrVphxIgRuhiLat9X4J/df5RTKEn/QhGQBHOehI4Zw0bNwCC9BFFuFR1GMoii2MI+qUTRhyEUES+6RLqh1wBqxowZEHp5YpOtBf5RDzMoigJHTiqaniehxSCKKFyEAHYd4oWNKNowhCKKUrsOsTk5xRY9B1BWq1U/hfJeKPCP+rkaj6LAiVD0LQviPAk9BlFE4aD4gVONl7MQRFGGIRRRlDrVeDkUPlBSjGAAlX+qI63APxuSGSZEUSCY8yQ8fg+i3nkBRh2EPv8Mooii0cFjfhiLVGIhiKIMQyiiKGUsUgkHjzGFoujHAOp6n649Bf7Ro6f4mUFR8rkga3eehI8Zw0anYkD3+3QXRMlWBlEUfX7bxdYU+cGNn0hvGEIRPyh58SXS7kHTIrB+q74CqJdfflm/AVSQl26jge85ig7ns9UYvcUthuHjZqB/t3t1MZorQdT6rV4GURR1thzgfTBRNGIIRRTFtqbx4kvRSzYKbNvjRfsR+gqgZs2apeMAiig+7D8Sw9c3URPvjp+JN1vdrYvhuNwq2o9gEEVRdg8hA2t3elkIoijEEIooiv2yyRv8kgUiLW4ejQLHTyvoNEo/AVTjxo31H0Cp7OlE8cEdio8Fzxn9vkBRE+MnzcTLLe7UxXD2H/UxiKKocilXhf/5DBaCKAoxhCKKYqZWGbiUq7IQFFWuBFB9JtmxZT8DqOviyuQbiOLjBjUEOYhq36fr15hYvDZmzZ6Nl5+ur4vx/C2IMjOIIn1jSwqiKL7GswRE0W3dbl6EKXrIBvwRQH35q1sXY7oSQNWtW1f39VPdWXwTEeX7Ltek+yFai9bGzJkpaPFIZV2M50oQtTfdB5m75pGObdjD+1+iqL08swSkR2xOnn+rtvEiTNFBloGzF1RdBVBVq1aNmgAKACCMfCMRxZiEUvdgWso4NG5QURfj2X/Uh7eTbTh+WmEQRfp8gJWATft4/8tnKorac5glIIpuK7Z6IfFMJp2TZcDlBobPcugmgCpXrhwmTJgQPQEUEcWsUjWexaxpH+H2m0vrYjwrt3nR92M7TpxWIHNXTdIZpwvIbLKVhSCKUnx0JYpytqcPweliHUi/hAgEUGM+dWDKQqcuxlS+fHkkJyfj6aef5gEiIl2oe/sLmD31XdSuYtbFeL74xY0+H9tx9qLKTVBIV3YeUiCZC7MQRFGKIRRRDNiVwR2zSJ+EACSjwJhPHRgyw6GLMRmNRnzwwQd45ZVX4u54ON3cyICigy9OL2v17uyEKeMGolwpiy7G88Uvbgyf6YDLDQZRpBu/7fKyCERRjBNsiWLA8q1e3H4j7w5JfySjwPyf3boJoEwmE/r164d27drF5fG4s74Rrz3BIIr0r2Lp+P2e9KGWQ5B8wYVuvT/EhVztxzNloRNliwm809oKi0lA5UcIaUgIBHbWbcRaEEXtecwSkJ7V6ZvFW5383KyvrIllEwrB72ctSD9kq8D8H91o/0Gubmbg9O3bF6NHj47amqqXf4N/T4uCH5NEASTw0k9RIFuF4g3uc0OqvwiiyN1RW4KPP2yDXoM/hU8n1/bxPRPRo1UC/F6VQRRpxq8CN7TMRuHXD7MYeWBTctIrzoQiigFZd26F0/UAzCbWgvRBtghs2ObVVQD10ksvYdSoUVFe2eBqqdhVwM6nR6Jo8PaAGThzzon3xy3UxXgGT3OgdHEZrzQ1QWEXANLI4ZN+BlBEUY49oYhi4UQ2F2ZfKNIN2Qjs2OvDmyNsugmgHnvsMcyePRtCRPmXgoLfHRHFDzPe+2gaXn+piS5GY3OoaP9BLpZv8UK2cIIFaWPJevaDIor6Z1eWgCg2rNjGizJpT5aBE6f96DQqF3uP+HQxpttuuw0pKSmwWq3RX2BLZb7JiOJKcUyaMgvPNK2ri9E43Sp6jrdj0w4vZCOPDkX4wVUCFq/1sBBE0X4uswREseHn9V7IPKNJQ7IM5NhU9J1sx6Z9+gigypUrhzlz5qBq1aoxUWNhKs83GlF+qb6YeBmJxW/EjOlTcNvNFXQxnt0ZPrzxgQ0nTvu5Yx5FlNMFHLtrKwtBFOX4yEq6xoZ6+Xe26UFk29jrhbQhBOB0qRgx14H5y9y6GFOJEiUwduxY1KtXjweIKB6ZYye0LVXlfsyZ/hGqlDPrYjx7j/jQd7IdOTaVQRRFzK4MBZK5MAvBZyiKcgyhiGLIuj3sC0UaXUyMAh9/7cKoeU5djMdkMmHo0KFo1aoVDw5RnBLWmjH1eurd8SImjOmP4oX18Ww5f5kbI+Y64HSpEHzcpQhg6wmiGHluYAmIYsfq7bw4U+TJFoEvl7rxnyl23Yype/fu6NatW2wWXGXYTBSvmrcehmED3oRRJ7OPRs1z4uOvXZAMTKEozPcaUqD1BBFFP4ZQRDHkp/VeyNw8iyJ5U2gENu3w4vX3c6HqZDXoM888g9GjR8du0Y3F+cYjylPsLk/v1n8Cund8Qjfj+c8UOxatcHPHPAqrbJuKs00PshBEMYAhFFEM8bY8hBNn2ReKIkOWgJNn/Gg/wganWx/vu1tvvRXTp0+HiOG1ISKhNt98RHmeKLH8jYwVY5Kn4OlHbtTFaFQV6DjKhs07uWMehc+GvZwFnF/sB0V6xxCK+EEaY75dxa1rKQLPdwJwe4B+kx3Yc1gfO1CVLVsWc+bMQenSpWO8+HzKI8qTuXJsfwxYq2DG9CmoX0cfzdfPXfLjjQ9sOHnGz516KSz3HEs3cikeUazgZYIoxqzZ4YXEM5vCffEwCCTPd+CzpS5djMdoNGLs2LGoX79+HBTfwjcgUV4PrZYqMf8aS9/wAKZPHoFypfSxY96ewz70m+yA08NG5RRaih/4fg2/ZCWKmVtZloAotqzd5YPLzTpQ+Mhmga9+cWNQqkM3Y+rTpw9at24dHwfAWp1vQqK8+J1x8TKbPPQa3hvSQzeNyj9b6sIUNiqnEDty0g9TqwwWgihGMIQiijGF2x3GlgM+FoLCQjYCO/f78Nr7uboZ09NPP40RI0bEzTEQhqJ8IxLlxVQubl5q+7dH4u0Oj+tmPH0n2/HdSjdkE4MoCo2fuCseUUxhCEVRgX2hrs8Pv/FiTaEnS8CJ0350GmWDy6WPRuT169fHjBkz4utAGIrwzUiUB5FYL55eLZI/SsGj99XRxWhUFegw0oYDGT7IMt+LFPy9x+LfuBSPz0wUSxhCEcWgZRu8kA2sA4XwEUcATreKoTMc2LhXHyFn8eLFMW3atNhvRP5P1lp8QxLl+aEVX+mHsFZBSspk1KxSSBfjOXfJj24f2ZBjY38oCs5lu4pjd25lIYhiCEMoohjkbnkIp86pLASF7gFHADN/cGPmDy7djGnIkCG488474/DKbeUbkigvlqpx95Kr1X0Ik8cNQqI++pTj181ejPrUCUlmCkUFt3qHD5K5MAtBFEu3siwBUWz64ldOXabQkA3A+j0+DEy162ZMbdu2RY8ePeLzgJgrAmDITHRNpjJx+bKbtvwP+vdsoZvxjPjEge9Xsz8UFfBBVQIWrmCLCaKYO7dZAqLY9NM6D2Se4RSCG8BzF1X0mWRHrl0fwUe9evUwefLkuD0mwlwh7pYaEV0fFTCVj9tXP3jkdDz5UB3djKfDhzakHfbxnoSum8sNLNvEL1Xzi/2gKGqeL1gC4gdrbMq6cytyHJwtQcFRFOD9OQ6s362PbyITExMxffp0JCUlxfeBMVfkm5PoaoQcCGvjVknMmpmCyuX10R/q7CU/3k62weVhfyi6PlsO+FDk9cMsBFGMYQhFFKsnt7kwftnkYyGowGSTwILlHkz8yqmbMQ0YMCA++0AySrvfAAAgAElEQVT98xk7oS7foERXw5AWpW94AOPHDIRJJ5uU/LrZiykLXQyhKP/XOQEs5m7PRLH5nMoSEMWuT35yc/o7FYgsAUePKeg90aabMT388MMYNGgQDw4AxPUsD6I8Hl4Z0gIAWrbqjzdefVQ34+kz2YENe3zcvZfyxa8CSzcyhCKKRXw8JYphB+9Mx2U7l+TR9XO6VfSeaMPpC35djKdKlSpITU3lgbnykG2twSIQXQ1D2j+MSp6KOxreoIuxqH4VfT624/wlLsujvKVn+eFucYiFyCe2LaFowhCK+AEb4zbsVVgEui6ySWD2Yje+XaWPZqBCCIwcORLVq1fnwbkioTZrQHS1zwyGtH8oXLwqkseOQpJVH7f863Z58f4cByTurUDXvO4DXy9nQ3KiWMUQiijG/bDWA4lnOuWTLAHph33oP9WumzG98MILePnll3lw/spaHVAZMBP9K4a0f3PPQy+iR9eXdDOeCV86sWyDl8vy6Kr8KrBwJUMooljFR1OiGLdwhQcuXscpnxwuFW9/ZEOuTpZxVqlSBRMmTOCB+QdhKg8YirIQRP+kKoGQlv5m+PvjdbMsDwC6jrbh3EUuy6N/l57lh6cll+IRxSqGUEQxrugbh7E9jbvkUd5ko8Dny9z4ZZM+GoFeWYZXtmxZHpx/q09iPRaB6J8MRQIhLf39891SWlfL8jJOKhj7uZMhFP3LtZ9L8a4X25VQ1F2qWQKKxg/aOn2z2G37Ony2zIM76xvgZ9XoGjd9R48rGDrDoZsxPf/881yGdy2WG4CcDcE/nBoASLx/Je2oXjVk1yeR1IgFvYp7HnoR3Tt/ixHjvtDFeMZ/4UTL+01oUt8AhauL6Xd/LMVryVoQxSqGUERx4JuVHoztlgATz3i6CkkCBqbYcfK8PnbDK1u2LJfh5fWwXeg2qGeDf5g8ctwPr8KEmrRTroSEBEuIgtCEmizoNQwfMR6/rliPTTsyNR+Lx6eizyQ7Fo8tjEIJDMIpgEvxiGIfH0mJ4kDRNw5jR/otuKMut6Oh/yXLwC+bvJj/q1s3Y3r33XdRrlw5HpxrKdwk0P9GBHdef73CjV83e1lP0oTiVzG5TyHUqBiaEEIk1GJRr3XjbymD5LGj8HCzl+HRwUr933Z5Me07F/q1TYDiZRge74QAvl7hAdjykCi2z3WWgKIVl+Rdn3vS6mB6/wQoftaC/s7mVHFru2xknNDHeoh77rkHa9as4YHJi+qFsrEWoNiC+jVf/upG62G5rCdp5tTiEihVNAS3pKoC6batEJaqLGoeOrd7FKmf/KKLsRRNEtj+STFULitB5Z1dfF/WANzaLoczoa4D+0FRNGJjcqI4sbb2AeQ6eHdHfycbBSYtcOkmgCpUqBAmTZrEA5MfwgiR1CDoX/Pk3abQLYUiuk7N7zOhbIkQvf8MRRhA5dPo5FRUKl9IF2PJtqkYmGJnk3LiUjyiOMEQiiiO/LKZu+TRn640Ix82Uz/NyDt16oQGDRrw4ORXoeCbMBdJEmh6h5G1JE288aQlZE2pQxHKxovCJapi5Lu9dDOe+b+6sXGvj3skxPND6ZWleEQU++c7S0AUPz75yQ2ZbaHoLwZNtUPRSVPqMmXKYNCgQTwo1/PQXbgxAgsYCk5RAkEAUaQlWATubxTCADSpIYt6HVq1/z/c3rCGbsbT92M7fGwZELdc3sBGOpR/XIpH0YohFPGDN46kN0nHxRwuyaPALKgdB334/Bf9NCMfPnw4ihZlN9LrknhTSC7l9zcyckkeRdwjtxtRJClU7zs/RNH7WNTrYkBy8jjdNIhdu9OLn9Z5+GVZnNqRrsDdgkvxiOIBQyiiOLNoFXfBIkCSgHd1tAyvQYMG6NSpEw/MdRKmcoA1+JkMRZIEHrmdS/Iosjq3DN1SPAgLRKFbWdTrdO+DT+G5pxrrZjx9P7YjO5dflsUbWQI+W+ZmIYji5TmEJSCKL3N+ckM2sA5x/cEvgDU7fPhujX6mvQ8bNowHpqDP3iWeDPp3KEogECCKlJJFBR69wxS6X5hYF5ALsbAFMHHCRyiUqI8bg4PHFMz9ycXZUHEm16liIftBEcXPswhLQNGMS/Ku37mmB3HsNJsuxDOvAnQfZ9PNeO6++240b96cB6aARJG7ATX46SSP3mFC+ZK8LaDIaNvMEtIm1FyKV3Dlqt2F1155VDfjGfO5k7Oh4syvm30o+sZhFoLPQBQneLdJFIdmLfZwB5o4JQTw3y1e7EjXx06Jsixj0qRJPDDBHNNCtwKGwsHfEAjgreesLCiFndEg8NqTFvhDlTOoCkTRh1nYIPQb8IFuZkMdP+vnbKg4IhuAOT9yKR5RPGEIRRSHvl3lgYutoeLW4FS7bsbyyCOPoGFD7mgV3B18IYhCtwX9a/wq8NIjJhhkJtQUXk3qGXBznRAGHnISROEmLGwQKlVroLvZUBcvczZUPDh9XkV6k3QWgiiOMIQiikPuFoew86DCQsSZwI54Cral6WMWlNFoxAcffMADEwrFmwEIfplt9coG3NuATeMovDq3tEBxhy5gEEUfAARvaYPVb8D7upoN9d0aztqOh/uSBcvZC+p6cSkeRTtesYkfxHFq1o9uTnWPM34VeG+WfmZBNW7cGLfeyt2sQnIjX7IFIMxB/x7Fq6Jfay7Jo/ApV0LCU/eYQ/cLVT9EmdYsbAhUqtYQbV9uqpvxTP3WBY+PxyWWqSrwxS9cikcUbxhCEcWpNTUP4FIOp7rHk4zjChat1sc3jkII9OrViwclVPU0lgSSbg7J72p6hwk33sCEmsLjreetKJwYwl8oJwaa81NI/GfgB5Bloy7GsmmfF2t3eiH4VWPM2ndUwcVmh1gIojjDEIooji1azZu7eCFLwMwf9PNtY/Xq1fHss8/ywISQKP0iQrEkTxJAr5cTWFAKuUIJAi89YoISwtXgougDgJzE4oZIpWoN8chD+umvNepTZ+ga2JPu7kumfstZUNeLK0AoFjCEIn4gx7E5P7l5cxcnbE4Vs3906WY8b731Fg9KiIkSzwAi+BkMfhV4pakZZYrzFoFCq83jZtSoHMKeQ1yKFxZDB/WGXm6qftnkwaFj7GEZq/cl365kPyiieMQ7TKI4dvaRg8g47mch4sBP6zw4n62PY221WtG5c2celBATxpIQhe8Kye9KSgAGtOVsKArheW8W6NsqAYo3hN98yAlcihcGje9rgRrVKuhmPJ/+7GaD8li7XglgyXovirxxmMUgikMMoYji3Owf3ZD5SRDTZBmYuEA/s6CeeOIJWCwWHphwXNTLdwbU4Dv5KgrQ4RkLZ0NRyDS704QbKoay15gKUawpl+KF43NEAG926KCb8Xz+ixtuL49LLPGrwKSvuRTvenHlB8XMdYYlIH4wx7c5P7phc7IOsezMBT/W79bPHXzPnj15UMKlyF2AsVRIflWCFejfhrOhKHhmo0C/1tbQzoKCBFG+E4sbJq+3fQ4mk0kXYzlyUsH2dG6TF0syTvhxrulBFoIoTjGEIopzxdofxpINHjYoj2Ff/Nejm95fJUuWxF133cWDEi5yEkSZNghFg3JFATo252woCt6LD5vRpGGId1yzVoUodDuLGyalytdHw4aNdDOeT5e6uCQvVi5TMjB7MWdBEcUz3lkSESYtcENlg/LYvNmTgG9X6udmr1WrVpAkXnrCSZRrF5IG5QBnQ1HwCiUIvNcxAYorhBcZVYEo/Sog+FkSTm1efUk3Y/l6uQcu9rCOCZdyVMz5kSEUUTzj1ZtiCpfkFcy5pgexP5O7z8SiXIeKNTv0sxTvqaee4kEJM2GuBFHkXgDBP/RfmQ1VtbzMwlKBtGlmRpUKIX7/GIpClGnF4obZ8889A6GTadJnL/mx5zDvU6L++iSA79Z4Uaw9G5LzGYfiGUMoIgIATPzKDZnPmTFn1XavbpbimUwm3HHHHTwokbi4VxkUst+VYAXGdktkUem6lSkuoU/rEO+IBz9EqRYQxhIscLiPX7lqqFq1qm7G898tnAoVC6Z952IRiOL9PpUlICIAWFPrALJzuSYv1ny/Rj837TfffDOKFCnCgxIJSQ0gEushVLOhWtxnQqNaBtaVrst/Xk1A1Yoh/nZDGCHKdWRxI+TRRx/VzVhWbvOyL1SU23VIwaVmh1gIojjHEIpiDqerFtyC5R7e4MXSB7wA1uloV7z777+fByWSx79SX4QihAIAAWBMt0SYjfyAoPypX01GxxaW0M+CKnIPREIdFjhC7rxTPxtJbNjrg5OToaKWbABGf8ZZUHy2IWIIRUR/MelrNzzcBTlmONzAwWP66aFx00038aBEUomnIArdgVDslOdXgYfuNuGFh02sK+VJCOD9TolItIb8MRZSlcEscAQ1vr2BbsZy2eZHGvtXRq2TZ1VsvyWNhSAihlBE9Cdvy0NYt9sHwe9bYsKRk4quQsVGjRrxoET6Il9tJIDQLIdSHCre75iICqV460DX9sy9ZjR/1AwllHmBqkAUbwYkNWCBI6j2jXV0taPp1jQvD0o0XoskIOVbzoIiot8/E1gCikWctlpwYz5z6qaRNQVnz2F9TWurXbv2/7N373FS1nX/x9/Xdc3s7HkXljOInE8eQAUsExQ6aaWoWWHmObM8lHnEu9ssrZ+paZaHsjJTNLtLU8HSDoKK3ncJKoiwC7sgxwVhEfY4uzNzzfX7Y3YXUFDYmWvmuuZ6PR8PH4pwe2/fa+bz/Xzf8/1+h4eSbaUTUwt3JzOvhUMHW/rRJSUy6R6wH4P7mvrFd0tkt2Z4IgmVyxx5GwOcdWENHTrUMz/NynfYCeVHbe3SH//JWUrWNEAKbSSAvbxzfK3eqU8yEHlg+RpvNesFBRzlyslEP/I2KVyljFxSHnd0/ucjOuljPEt8UNcxvKGDMnwZuROX0f9rUsFABjkHRo8e7ZmfZcNW+hPfzUGG9Py/4wqdtYbBAJCqCwwBgPf79dMdsizGwe+aWtnSBkkFA2UNvTxjx2ydpHT7ZSXqW0kLgb2dcnxE538ukuHLyB0pcoiMQ65hgHMkHvfOEbj6HYRQfhNLSHc+HmUgeoBdUMhXdJCgcOMDnh1crYZdBBh+t6SGuzOCKJFIqL6+XuvXr+/+q6noHJm9p8oqMNL+BsykIx02JqQbLyzm/jh0G9TH1D1XlcjJ0NRhGJIVNmSFw7LG3CwjVMkgQ/UNhFB+YhjSkpqEdp5Ux2AA6BZiCADsy++e7dB1ZxfKpt/zrUiYhCAoGhsbtXnzZm3btk1vvPGGlixZopaWlu7fHzN2vCaPGqHDS/+tCcMtWSHJTuOaKLvD0RVfLtK/Fsc1b1EHDyDgCsKGfvTN1DG8TOyCMk3JsAy9s9FWuM80JRun6N3Vi7t/v6SkRP369VOfPn0Y/KwECd6ZS9Zv4U4oP0k60j1/7pCOYiwA7EYIBWCffv1Mh74xK6KyYoIMZEZLS4tKS0sZiAxpaGjQ5s2btWnTJi1cuFALFy7UG2+8se8/PH++JOnosSFdfmaRPndcgfpXGWkFUY7t6J6rSrSsNq713NMSaF/9TEQXZOgYnmlKsbj0/KIO/WZeu8qH91ZL42VavPi17j8zaNAgTZ48WTNmzNDIkSM1ePBgDRo0iAfhEtsm+EHPvFOf1LKjVjEQPcCJDuQzXtzIe+Ou3cC5sh6aU3i4zj2pgG/L86lPXtGol970zpG8hQsX6sQTT+TB9FAikdDmzZu1efNmrVixQkuWLNHChQtVW1t70P+ti2cV6pZvlKh/LyOt3Y5W2NC8lzp01veb1dZOoQiiYyeE9Nc7K9S73Eh7rjCN1P0xDzwd1Xd+1npA/zcDBgzQjBkzNGPGDI0ePVpDhgzR4MGDVVRUxMPJkOHDh2vdunXeqYWvsAPOD6yQdO0vonp2cDWD0QOEUMhn7IQCsF+/fqZdZ326QBa3x/mS18LDJUuWEEIdpK5jdps3b9by5cv14osvasGCBWptbU3rv/ubZ9olSXdeUaLiwp73uXbc0amfjujbyxP6ydw2HljA9K009YurS1XVK71ddd3hQvLgAihJ2rp1qx5//HE9/vjjkqQTTjhBM2bM0HHHHad+/fpp8ODBHNtLQzQa9VQAZdKP+MaW7Q4BFIB9IoQCsF/vfbZOL795pGZODmXssllkT3HEWx+iPf/887rmGr7h6kMX4YmEtm/frvr6eq1Zs0aLFy/WwoUL9frrr2f8/9dvnmnXmEMsXXNOkew0NszZrY5uvaJEy9cktJVvrgqUcz9XqKkTw7IzsAvOMqW//1/8oAKofXnppZf00ksvSZLGjBmjGTNmaObMmRo6dKgGDRqkQYMGKRSi/T1QL7zwgqd+niF9SaH8wDKlXz7VIVUxFj3BLijkO17gCASO5PVc5XOj9OoD5YRQPnTFXa365V+887XIlmVp6dKlOvzww3k4e2hqalJ9fX33peJdwdOWLVtc//8dDhla9cdeGjbQTGvnnGlISUlb+eaqQBnc35KdSH9yMAypNero2It2qXq9O/cPlZaWaubMmZoxY4aOOOKI7nukysvLeZAf4vTTT9fTTz/tmZ/nM8cW6G938sy8riXqaMqFTbJmr2EweoAQCvmOj4IAfKhdJ9fp7bUTdfgIiyDKZ0YO9tYnxrZt6+abb9ajjz6qgoKCwD6XRCKh+vp6bd++3fXdTh8lnnB0zT0t+uOPymWm0fImHcmypMEDLN54AeIkMjcpPPB0u2sBlJT6YoR58+Zp3rx5kqRjjjlGM2bM0JQpU9gltR/19fVasGCBp36mfpWszb3OMqXH/xEjgAKwX1RyBAa7oXruyDfG6vGbSwihfOblpXHNvLzRcz/XQw89pPPPPz9Qz6KhoaE7eFq+fLkWLlyoxYsXZ2W304F49qcV+tzHw3wJAXJi+Rpbx160S7FEbl6A+9ol1adPn0DfJRWLxfSNb3xDDz/8sKd+rru+XaJvf5lL572spc3R0Rc0qeCrhFA9wS4oBAEf9wD4SG8dvYrdUD50xMiQwiFD8YS3HtpVV12lQYMG6TOf+Uzejn1DQ4MaGhq0bds21dbWdu92Wr16tSd/3qt+0aLpkyrTuqQc6KlbHmrLWQAl7XuX1OTJkzVlyhQddthh6tu3r/r27Ruoo3t/+MMfPBdASdKUCWHeMB5mGtITC+MEUAA+FN0mAoOdUOlhN5T/WJY09aJGLV4Z99zPVlZWpieeeCJvgqimpiZt375d27dv14YNG7RgwQItWbIkJ0fsDsaAKlPDBpgaPtjSbZeWaFAfLv1F9l18a4vqNtuq357Ums22p3620tJSTZ48uTuUGjlyZHcoVVSUnzty/vGPf2j27NnauXOnp36uqnJDm+dXKcSpX8+yk9LUi5rUcVodg9ED7IJCUPBCR6AQRKXnT0dO1GHshvKVe/4c1Xd/3urJn628vFxz587Vpz/9ad8t5nbs2KGGhgZt375dW7du1eLFi7v/amlp8fTPXlVhauRgUxOGhzTjmLBOm1ag8iGWtCsp2+Y9g+yzeptydjlasCSmR//eoZXvJLTh3aQnv21x4MCBmjp1qiZPnqypU6eqT58+6tu3r/r06eP7UCqRSOjFF1/UF7/4RTU1NXnu5/vW6YW675pSjg17dVFpSAteT+iKjW8xGD1ECIXA1AuGAEFCCJWeiW+O1WM/KGEgfGTrjqTGzd6plqh3X/q33HKLZs2apSOOOMKTP180GlVDQ4N27dqlhoYGrVu3rjtwWrJkiS9eB1UVpgZWmRo71NTMyQX62mcjqeCpw5HaHdkJ3ivILcuSVGBIxYaaNtl6elFMC1+PezqQkvYdSlVWVqpPnz6+Or63detWPfXUU5ozZ44nAyhJeun+Sn3iSG4S8So7KZ14aZN2nswuqJ4ihEJQ8EJHoBBCpe8vR0/SmEM4suObhV1IuuTWFv36mXZP/5xjx47V9ddfr+OOO05Dhw7N2Y6CrsCpra1Nu3bt0saNG1VTU6MlS5aopqZGq1at8s2zH1Blqk/F7uBpxjFhjT8qnAqeogRP8HbdUqEhRfwVSEmpUGrcuHGaMmWKpkyZogEDBqiiokJ9+/ZVRUWF53ZLRaNRVVdX66677tJjjz3m2XE9bLilt//cW3Y7bZwnF5TsgkobARQCVTMYAgQNQVR6TlwzTr+8rpgFrI+s22Jr4jm71OqD5n3y5MmaNWuWTjzxRA0aNMi13QTRaFSNjY3dYVNjY6N27NjRHTht3rxZNTU1nj9a934DqkwN7b/7qN2U8aHdwVNMsjsof/CXDwukGnY5Wv+u7fljpGPHjtXkyZM1btw4TZ06VRUVFaqsrFRxcXHOjvHt2LFDdXV1+uc//6n777/fM9/UuT9/vKVMZ86I8IbwKHZBpY8QCkHCix2BQwiVvn8dP0kD+5jcDeWXRVzY0OW3N+u+J9t99XPPmDFjr90ExcXFqqysVDic+nak/X19ejweV2NjY/evd+3apXg8rra2NrW1tWnz5s3dIVN9fb1qamo8vwDb77O1pEP7W+pTaXzwjqcOR4oTPCGPatn7AqnF1Qk9syimN1clVN+Q1JYdSUV98HovLS3VuHHjNHjw4O5wqqqqShUVFSopKVFxcbEqKioUDoczFlB17fKsr6/Xxo0btWDBAs2dO9cXQfvHDw/plQcq6Tm8uphkF1TaCKAQuLrBECCICKLSc1zNOP1mTjENoY+815jUxy5u1Np6/9483XXMpWtn1OTJk/f555qbm/c6NldTU6OmpibfBk3vV15iaGAfU30rTB01NqRZ0wo0ZXyIO54QKFZIUtiQiozuS80XvB7X/y6Pa8uOpBp2OdrRmPTV/6aBAwdq8ODBGjx4sMaOHauysrLumldcXKzi4mJJUjgcVmVl5X7/O21tbWptTX0hRUNDg5qamrp3eb7wwgu+2uHZp8LUi/dXaMIwiwvJPYpdUOkjhELQ8IJHIBFCpY9vyvPfgu2F1+KafWOzGny2MMPui8X7VBr67LEFmjk5rCnjwzIqDSnqSHGCJwS4vnVdah4xpISj116Pa0l1QguWxLS2PrVDysv3SB2ogQMHSkp9s+i4ceP2++e6dntK8nX4HrKkn15Rqu+cXcSOTq8uJNkFlRGEUAhc7WAIEESEUOmbtDT1TXmEUD5aqBUZ+tkjUV13b4sSNuPhZYURIxU6VRgaPyykKRNCmnlMWBPGh6SQ0XnUzvH8XThAtpmGZEQMKSwpYmhTTUIvvB7XgiVx1W2yO3dJJdXcxuTlZSFLuvCUQj1wfSl1zsOSSemEy5q08yR2QfUUARSCiBc9AosgKn1/mjhRhw1nN5SfWJZ0yW0tenB+O429x/QuNzWwylBVpanjjgjrk50Xi1ccYkmx1MXiTszhSApwMDUvbEgRSRFDznuOXlgS0+LquF5YEteORicVSjUmqYce0h1Afa+Mmufl95Yp/f0/cV1Zv5zBSAMhFIKIFz0CixAqfeyG8h/TkIwCQ5ff1qLH/9Gh95o4mpcrZcWG+lSmjtmNGmLtvdspvMduJ47ZAZlZNHcd2yswpAJpU3Vql9Ti6oTeXJVQQ2PqLinqYm6f0UUEUL7Q2u7o+EuaFT+DXVA9RQCFoOKFj0AjiEofu6H8xzQko9LUvb9r012PR/VOPVsAsqErdOpTYWhIP1NTxoc0ZXxYn5xcIKO3wW4nIMu6d0mFU5ebv1adCqQWr0yobpOthsaktjRwdC9b+vc2debMiO69vpQ66PX3jin9+pkO/Sy5gsFIAyEUgooXPgKNECp9k5aO1cM3lsgyGQvfNZFlhv71Ykz/9atWLV9rq52LXzNqf6HTlPEhVQy1pLg6gyfudgJyXg8tpXYghiUVpI7uvVYd14IlMS2uTmjTtqQaWx12SrnVS4wO6crZRTpvdpGcXUkCKI9rbXd09PlNCp+1hsFIAyEUgooXPgKPICp99w49UjOODrEbyo8LryJDjTuS+smjUf3lxQ6t3kAa0lO9y1PfXldR8hGhE0fsAO/Xxq5QqvOS88YNtmo22B/YKdXY4nCnVBqG9DM185gC/fiSYg0ZZsluoZHww3vj10+zCypdBFAIMl78CDxCqAwsvv8+SgvvLWc3lF8bypCkUlP/+b+Y7nuyXf9eEVftRlZUH6awwFBVhaHyEkNVFaaGD0zd6TR1fEjjDrUInYB8rJOh3Tulku8ltXhlQtXrbb22MqGa9QntaHS0ozGpplaHI3wfYXBfUxNHhXThKYX64umFUpMjO86Y+cGORkfHXcIuqHQRQiHIePEj8AihMuO+oUdq5jEh2ZxS8O8iq9CQSgz955XdYdTGd5NqjwX7LbJn4FRRaqp/L0PjDrU0ZUJY44ZZOmx8SCrsvNMpLilB6ATkfb3s2ikV2v33jdWJ7kBq1fqkajfZamxJhVI7Gp3A11LLkkYMsjR6iJUKn06KSIZkt9KG+ekZXn9fVPMGVjMYaSCAQtDxBgBEEJUJvf8+Ss/dVaaSQsqK75vMPcKop17q0EtLE9q6w9bGbfl95MSypOLI7t1NxYXGBwKn8YdaMqtMKSEp7kgJLhIH0FlDwqlv3VMoFUol30uqer2tmnW2Fq+Mq77B0Ttb7M5QKqloh9TWnt/hlGVJVRWmDulnauqEsM47OaJjjwlLhuS0UTt9tWg0Urugpi98k8FIEyEUAl9PGAKAECpTrrIO08WzItyNkS+Lh0JDKjSUbEzqhcVxPfVyTMvXJPTue0ntaPTv5byFBYaKCw0VRaTyktQ/l5cYGndoSIP7pv4+dUJIg/uaHwiclOAScQAHWEMtdQdSChuSJand0cbOI3z1DUlt3mbrtepEdyCVD+FU73JTVRWpMP+oMal6evr0AlUMtqSoI6eD8Mmvrr03qucOYRdUugihEHS8AYBOBFHpiz8+UosfLFd5CaUl7xZSBUb3kbP/LInrtc7Leb34qX5hQer1V15qKGylgqZwKHWkTpKmjg9pcD9Lg/qYGjfM0pA+pn1ofw0AACAASURBVCoOtVIhU1JSwpFikpIETgAyyzQkI9S5Y8qUZKXumUo2JLV5e3KvcKpmva2mttRRPkna0Zjs/Hvq17mutXvuHu06rjx6yO778aZMCMmsNFMhfjvHlH29YDSkletsfWnpMgYjTQRQACEU0I0QKjPObpyg/76wkGYznxdQkd2X8+7vU/09F0pNrUnFO18PXUFVT3TtXtr718YHfm/q+FDqPT0spLJiQ+OGWSovNnRI579XXJLtdAZOqX/m9Qoglyyrs8DuGU6FUp36xs6a+trK1N8Xr4ynFrOdIVU8ITV13qsUTzjd/5xuzQ2HtNeHSlUVqW8fSQX72mv3aPdx5d7m7vvx4gT5+cJOSuff0qo3J61iMNJECAUQQgF7IYjKjAXTj1L/3oYcRjPv7e9TfUna0LlgqlmXUFNb6t/VNyS1aVvPViVDOncv7f612f3rIf1MmV2/F+/8AwlHctS9w4lvXgLgR1a4s10v6PwXXb/uDKnU5mjDulRdbW5zVL1ud41Np+aWFxsaNyzU/eupE1L/PHSYJRUbe+8e5bhy/r7+TGnhGwlduv4tBiNNBFBACm8EYA+EUJkxbfU4/eq6YkIoFk67F0pd2VFXUNUTXbuXun/d+ZfE0TkAgdX9YUBXjQ3t+Ztp1FxHqYCpS6zzXye40ylI2todnXxVi3Z8tpbBSBMhFLB7aQAAGbVoTI2Wr5moI0ZaBFEB1r3zKL6vlQ0AIBOSjlL3LnXpoOYiMyxL+uO/YgRQGUAABexmMgQAE4Qbrr+vTckk4wAg8wwjdUSEvz74FwBkqs5u3+no9kfbGQwAGcVOKACuWD+9Vv947Qh97uNh2YRRADIonpBicUcmocteOuJSBd9OCiADHEe68/F2hc5aw2CkiQ+5gb3xhgD2gbuhMrQgemykXn+ofK9v1wGAdL3X5Ojhv7UrFhdBVKdY3NGE4SGdfkIBgwEgvQWiIVWvT+rMN5cyGBlACAXsjZ1QAFwTOXuNfvnUBP3X+YWyE4wHgMwoCEsvL41r/isxBqNTUcTQ/9xSxkAASJttSzc/GJWOZiwAZB6fHwL7wCcWmTO3bKU2bk3KYEQBZEh5saF5P6vQBV8oVMhiPHqVGXrqJ2U6ZWaEwQCQ3uLQlF56M6G3jl7FYLCmANypMwwBALddf39Uts04AMiMpCM5MUe/u6lM55xcqHAouD1+rzJD37+oRJ+dHpHdzklyAOlpjTq65t42BgKAawihgP3gk4vMeXPiKr30ZoK7WwBkzJ5B1JkzgnkPUu9yU9+/qERXXlAkO0oABSA9Vkj6/V9j6jitjsFgLQG4hiUhgKy45t42tUYdvg0BQMZ0BVF3X1mi6ZPCgfrfHrKkG84tSgVQzQRQANJjGNLGrUndZ61gMAC4ihAK+BB8gpE5HafV6fd/jYmlEoBMSjpSvypTT/2kXB8/PBjftxIOSeecXKhrziaAApChWppMXZ8A1hCA2wihAGTNfdYKrd7IJeUAMstOSL0rDT32w3KNGJT/N5V/5VOF+t33y+QkefYA0meZ0r+WxPXmRC4jB+A+QijgI/BJRmb98MGokiycAGSYnZCGD7E096YyDazK3/bm+CND+s2cUjlxR0k2QQFIkyFpV4ujy37KZeSsHYDsIIQCkFXLjlqlfy2Jy+Jr1QFkmB13dNwxYd19ZYl6leXfGmDS6JCevq1ChRERQAHIDEO654kOFXx1DWMBICsIoYADwCcamXXZT9vUsItLygFknt3u6MufL9QN5xYrlEdh98AqU/dcXaqqXoZsm+cMIAMLQVN6e62tP1SsZDBYMwDZqz0MAYBsK/jqGt3+aLsMKhAAF9htjq79WpG+dlJhXvzv6VVm6O4rS3T85LDsBM8XQGa0Rh3NuZ9jeACyiyUggJyYP6hai6sTMqlCAFzgJKWHbirT8Uf6+xvzwiHphnOL9eXPF8pu5wwegMywQtJj/4jpneNrGYwMYRcUcGBY/gFMLDlz8a1tao1yLA9A5iUdyYk7evq2Cl9/Y95XPlWoa79WJLuNAApAhhaAhrT53aR+8NsogwEg+zWIIQCQK7HT6/TIczGRQgFwQ9KRqnoZeuSmMl9eVH702JB+PadUDt8oCiCD2uPS1fdEVXnhWgYjQ/iwGjhwhFAAE0xO3WOs0Ip3bI7lAXCFnZA+cUxY159TrLCPTuYNqDL14PfKVMQ34QHIIMuS/vpqXMuOWsVgAMgJln0Acm7O/RzLA+Aeu93R9V8r0uknRHzx8xZFUheRTxoX4pvwAGSMYUjv7nB0w6+4jDyT+JAaODiEUAATTc6t/UQtx/IAuMpxpF98t0QTR3l/O9R5n4voK58vlB1jCxSAzLGT0g9+F1Vo9hoGA0DOEEIBPUAQlXkcywPgpqQj9e9j6p6rS1Va7N0SfvTYkO68opSLyAFklGVJC1+P68WRNQwGawIgp1juAfAMjuUBcJOdkKZNCevbXyqS6cFC07cydQ9UcRHPCkDmdB3Du/QOjuEByD1CKKCH+OQj89Z+olZzn+dYHgD32O2OfvzNEs2cXOCpnysckn7w9WLugQKQccmk9MPfRRX+KsfwWAsAuUcIBcBTfqEVWsmxPAAucpKOfnltifr39k6hOW16RN88nXugAGSWZUn/XBzXQo7hAfAIlnlAGvgExB1zfhlVWzsbogC4I+lIow4N6e4rSxT2wD3l/XubuueqEmoegMwu9AypfrujC+87isFgDQB4pzYxBAC8Zs1xq/XQsx0ymN4BuMSOO5r9hUKdNj2S058jHJLuvrJE/fuYSrIJCkAGdcSlq+9pU+UZjzAYADyDEApIE5+EuOM+a4VeX2XLokoBcInd5uieq3J7LO+06RHN/kKh7ATPA0DmWCHpmUUxLZ20isGg9wc8heUdAM+6+NZWNbY67IgC4Jr+fcycHcvrOoZnt7EFCkAGF3imtGFLUlfezbfhAfBgjWIIgPTxiYg72k+r0/1/6ZCdZCwAuMNOSLO/UKhZ07J7LC8ckn72ndQxPADIFENSW7t06R2tqrxwLQNCzw94Dp0PAE97pHSlXnozIctiLAC4o+tYXlVF9tqiWdMiOusUjuEByCzDkH7/1w6t+UQtgwHAkwihgAzhkxH3fOv2Vm1pcGQywgBcMqCvqR98vTgrdaaqgmN4ADLPsqQ3Vtu611zBYNDrA55FCAXA80JnrdHV97QplhBfYQ7AFXZC+tYZhTrxmAJ3Gy9D+sHXizWgLy0YgMzWlm3vObr41lYGA4C36xVDAGQOn5C4582Jq/TkizEuKQfgalP0q+tKVFrkXqE58ZgCfesMjuEByBxDUkdc+uHvoorOqmNA6PEBz/dbAOALt7S8rTdW27KoXABckHSk0YeGdPmZha7890uLDP3quhKaLwCZZUjzXolpwYgaxsIFBFBAZtEHAUxUvnLxT1r1XrPDjigArrDjjm69tFTjDs38tyFc+sVCjT40pCRXQQHI1GLOlGrW27ryZ20MBgB/1C2GAMg8gij3RE+t051/aFcszv1QANzhJB3ddmmJiiKZqzLjDrV022WlsuMkUAAywzCk5lZHc+6PquLCtQwIPT3gC4RQAHznL/2qNf9VUigA7kg60qmfimj2pyIZ+e+FQ9Jtl5bIYQsUgEzWqqR0/1Mdqv34agYDgG8QQgEu4ZMTd33nrla9vZb7oQC4w446+tElxaqqSL/IfO64Ap36qQjH8ABkjGVJC16P6+GSlQwGvTzgKyzfAPhSxYVr9e272rgfCoBrBvUzddNFxenVqlJDt11aIjtKAgUgMyxT2vRuUufe3MpgAPAdQijARXyC4q53P1XL/VAAXGMnpEvPKNThI3p+Sfl1Zxdr7PAQgwkgIwxDeq/Z0bfuaFOvi7gHih4e8B9CKAC+9pd+1Xr2f0mhALjUKBnSPVeVKdyDHGnsUEtzzi3iMnIAGROLS3c93q6647gHyi0EUIDLvRVDADCR+d2372rVsjruhwKQeUlHOvHYsE7+eMHBNViGdNtlJeTjADLGMKRn/zeuJ/tWMxgAfIslG5AFBFHuqrhgrb7+/1rV0OjIZKQBZJjd4ej2y0pUUXrgBWb6UWHN4jJyABlimdKKd2x9+y7ugaJnB/yNEApAXmg7tU7f/01U0Q5xUTmAjBs7PKTvzj6wS8pLigw9cH0pl5EDyMyCzZAaGh19+642VVzAPVAAfF7TGAIgO/hkxX0LR9bokec7lEwyFgAyy447uvIrhRo1+KMvKb9kVqHGDOMycgDpMwwp2iF9/zdRbf1kLQNCrw74HiEUgLzyc2eFFr6RkGUxFgAyq6LE0PcvKpb5Id1T316mbvp6CZeRA8iIZFJ65PkOLRxZw2AAyAuEUEAW8QlLdpx7c4vWb0lyUTmAjLKT0jmnFeq4I8L7/TN3XFai8mLGCkD6DENa+EZCP3dWMBj06EDeYIkGMMnlncoL1+q8H3FROYDMs9sc3fXtEhVGPlhcJgyz9NXPRmRzJBhAmixTWvmOrXNvbmEw6M2BvEIIBSAvvfvJWt3026iiMS4qB5BZU44I64snFuzdUBnSvdeUKkRnBSDdBVrXReQ/a1PlhVxEDiDPahxDAGQfn7hkx4IRNZrLReUAMsyOOfqv84pVXrK7lE+bFNaMYwuU5CooAGkwDCkak276bVRbZnIROT05kH8IoQDktbuTK/Timwl2QwHIqAkjLX13duryp8ICQw9cXyq7gwQKQHpicWnu8x1aMIKLyAHkJ0IoIEf45CV7zvlhi5avsfnGPAAZY8elK79SqKpKU1/9TERjh1NgAKS5MDOkv/1fXHcnuYicXhzIX7zxgBwbd+0GPjrPgpL5ozTv9lIN7GNyPA9ARlhmasfCaSdEVBxhPACkUU8s6fUaW6de26zyC7gHym0EUEDusBMKQCC0nlKnS+9oU2ML35gHIDPspHTOrEKVFTEWAHrOMqWN7yZ11k0tBFAA8h5LMcAD2A2VPWdsG6/vnV+kwgLJYdQBAEAOmYb0XrOjM/+rRVs/yUXk2cAuKCDHdY8hAJgMg+Qv/ar12N87FE8wFgAAIHcMQ2qJOrrpt+0EUPTcQGAQQgEInLvsFZr/SpxjeQAAICcMQ4onpAeeiemF4dUMCIDAIIQCPIJPZrLrxl3LtWSVLYNRBwAAWZZMSk+/HNODhXwTHr02ECyEUACTY2Cdem2zqtfZsvhmdQAAkK0FmCG9vDShHzS9zWDQYwPBq4EMAYCgqrxwrb7zszZt2paURTUEAAAusyzpjdW2zvlhC4MBIJBIhAEP4tvysmvggtF64sel6lVuKJlkPAAAQOZZlrRpW1KTL2xSrwvXMiBZwi4owFv47B9gsgy8LTNr9YMH29XU4nBHFAAAyPyiy0wFUOfe3EoABSDY9ZAhAADpn8OqdccfOtQeE0EUAADI3ILLlJpaHJ17c6u2zKxlQLKID3YBD9ZEhgBg0kTKk31X6g//iCmeIIgCAAAZWGwZqQDqjj90EEDRSwMQIRQA7OXOxNt6ZlFc8QRjAQAAes4wpJb2VAD1ZN+VDAgAiBAK8DQ+wcmNmxqXa/4rcXZDAQCAHjEMKZ6QfjsvRgBFDw1gD4RQAJMo9uHGXcu1tNYmiAIAAAelK4Ca/0pcvy5YwYDQOwPYAyEUwGSK/fjCNc0EUQAA4KB0BVA37lrOYADA+xBCAcB+VFywliAKAAAcMMMggMolPrgFfFAnGQLAP8Zdu8FhFLKv8aEReu6uMk0cbcm2GQ8AALCPhZUhLa21dfaKZQxGDhBAAf7ATiiAyRUfoeKCtfrKjS3avD0py2I8AADA3roCqC9c08xgAMCHIIQCgANpLr+8Rufd0qotDUlZVE4AANDVIxjSsjpbp1zTrIoL1jIgOcAHtYCPaiZDAPgPx/JyZ/CLozX3+yUaWGXKTjIeAAAEejHVGUB94epmlRNA5QQBFOCzuskQAP5EEJU7BFEAAIAAKvcIoAD/4VAJABykzSfW6pybW7VlB0fzAAAIIgIoAOhh/WQIAP9iN1RusSMKAIAALqAIoDyBXVCAT2soQwD4G0FUbhFEAQAQoMUTAZQnEEAB/sVBEoBJGGngaB4AAMFAAAUA6WPJBABp2nxirc69pVVbCaIAAMhLhiEtX2PrlGsIoHKND2ABn9dThgDIDxzLy70hL43W3BtLNICjeQAA5M+CqTOA+vzVzSo7nwAqlwiggDyoqQwBkD8IonKPIAoAgDxaLBFAeQYBFJAfODgCMDkjgzadUKtzuo7mWYwHAAB+RQAFAJlHCAUAGdYVRG3YmpRBLAgAgK8YBgGU1/BBK5A/CKEAJmm4YNMJtfrMlc1avsYmiAIAwCcMQ4onpKW1BFD0tgBcqbMMAZCfuB/KG5p/P0J/u6tMh4+w5PBEAADw7sLIkBIJ6W//juuGhuUMiAcQQAH5h51QAJM2XFR2/lp97qpmvb3W7t7eDwAAvIUACgCygxAKAFzWFUS9udpWIkEQBQCApxZEhhTtcAigPIYPVIH8xBsbyHMcy/OWW/scoc99LKxQSBzPAwAgx0xDaok6evDZmB4Ir2BAPIIACshfvLmBACCI8pZb+xyhzx4bVmFYSvJkAADICcuUmtsc/ex/OvR45UoGxCMIoID8xnE8gMkcWXZDw3L98Z8xtUQdmTwZAACyzjKld98jgAKAbCOEAoAcuD32tu7+U4eaWh2ZVGIAALLGMqVtOx2dd0sLAZTH8MEpkP94kwMBwrE87/n85vG67uxC9e1lKJlkPAAAcHXxY0hbGpK66P+1av30WgbEQwiggGDg83eAyR059NfB1Tr35hZt3+nwrXkAALjEMFJ/rXzH1qevbCaAokcFkCOEUACTPHJs/fRanXtzi1a+Y3c3yQAAIDMMQ0okpGV1tk6+qkXOmWsYFADIVU1mCIBg4mie97Q8PFLP/rRU4w+1FApJDk8IAID0FjuGFO2Q/rUkrjnblzMgHsQHpECwsBMKADyi9Lw1mr18mZ77T1yxODuiAABIa6FjSq1RRw/O7yCA8igCKCB4eNMDAcZuKO+6oehwnX5CWKVFXFgOAMDBMk2pYZejXz/ToUfL+QY8LyKAAoKJNz4QcARR3vW1pgn65mkR9a4giAIA4IAXOIa0faej83/UonXTuIDciwiggODiOB5AE0AT4FGPlq/UZXe2att7fHMeAAAfxTBS9ylWr7N1+g3NBFAA4EGEUAAIojxs2VGrdfoNzapeZ8txuCcKAIB9MQwpFpf+d3lCJ1/Vop0n1TEo9J0AvFivGQIAXTia512tj4zUozeVaOqEkCJhKcmTAgBAUur+p5aoo6deiuvW6NsMiIcRQAGgCADoRgjlfTcUHa5Z08IqL+GeKAAALFPazgXkvkAABUAihALwPgRR3nfq1vG69quF6lVGCQcABHgRY0hbdyT19Vtb9c7x3P/kZQRQALpwJxQAmgSfmTegWufe3KJVG7gnCgAQPIYhJZLS22ttfeziZgIoAPBTDWcIAOwLO6K8r+2RkXrshyWaPC6kgnDqG4EAAMhnpim1Rh0teCOh67ctZ0B8gA84AeyJggBgvwii/OF7xYfr1OPDKuOeKABAntvZnLr/aW4Z9z/5AQEUgPejKAD4UARR/nDq1vG6enahqioMGZJ4aACAvFmwGFIyKa3eaOuae9o4fucTBFAA9oU7oQAgD8wbUK3Tb2jWqg22EknuiQIA5MlixZDaY9K/VyR08ndbCKB8hA8yAewLyxQANBF5pO2Rkbrv2mKdeFRIJUUczwMA+JdpSjubHD3+r5juNVYwID7FjigAe6IgADggBFH+cl7LBF18akSVZRzPAwD4bIHSuULZvtPRd3/eqjcnrWZQfI4gCkB3jWcIABwogih/GfHqGN15RbFGDDYVsvj2PACA95mG1BGX6jbZOuumViXOqGNQ8gRBFACJEArAQSKI8pfo3JG6/9piTZ/E8TwAgLeZprSr2dHf/i+uH7W+zYDkIYIoABQBAAeMAMq/zmuZoItOiaiqPFX2eZAAAM8sSDq//W77rqSu/kUbx+/yHEEUEGx8Ox6AA0IA5W8Pl67UGXNaVMO35wEAvLQY6fz2u/+sTOhjX28mgKKnBJDnWIYAoFkImDv6H6FpR4ZUXsrxPABAbhchO5sd/c+CmO4R334XNOyIAoJd/wFgnwig8tPMteN004VF6l1uyDS5tBwAkMUFiCElbGnNZlvX3hvVmuPY/RRUBFFAAOcAhgDA/hBA5bfwU6P0wHXFmjQ6pMICKcnTBgC4zDSlplZHr76V0HfXvyozUs6gBBxBFBAsvOEB7BMBVHB8xzhMZ84oUO8yQzLYFQUAcGHR0Xn5eEOjo1seimrBiBoGBd0IooDg4GJyAB9AABUsP3dW6Iw5LareYCsW59JyAECGFxym1Bp1tLg6oY99vYkACvSeQICx1ABAE4Bu3y89XCd/LKyyEkMGu6IAAOksNDp3P73X5OjuP7XrqX7VDAo+FDuigADMDQwBgC4EUJCkY5aN1fcuKNTwgZYKwgRRAICDZxpSW4ejt+psXXJ7m+Kn1zEoOCAEUUB+4w0OQBIBFPaW7GjSzX2P02ePDaus2JAhiRcIAOAjFxedu2h3tTh6cH5MDxWvYFBw0AiigDyeJxgCAARQ2J/Jb43Vf19QpGEDTYVD7IoCAOyfaUit7Y42bkvqm7e1adunaxkU9BhBFJCfeGMDAUcAhY/ygV1R3BUFANhzQdF599POZkd3/6lDf+m7kkFBRhBEAXk4ZzAEQHARQOFgdO2KGtrfVGGBlOTVAwCB17X76e21SV1yW6ti3P2EDCOIAvILb2ggoAig0BPxxo26ttdJOnNGgSpL2RUFAIFdRBhSwpYaW9j9BPcRRAF5NH8wBEDwEEAhXf3+OVq/ur5YQ/tbKo6wKwoAgrR4MEypuc3Rq28lNOf+KLufkBUEUUD+zCMAAoQACpl0UfQwXfD5AlWUGjJNdkUBQF4vHAwpnkjtfvrR79v1z2HVDAqyiiAKyIO5hCEAgoMACm6IPD1Kv7quRIcNN1VcaMiQxAsNAPJowdB59Lq5zdE/Xkvoxm2vyoyUMzDICYIowOdzCkMABAMBFNz26XXjdfmZER06wFQ4xK4oAMiHhYLRefH45u2Orr2vTbUfW83AIOcIogB/zy0A8hwBFLKlY+tb+snYs/WpySGVl3BEDwB8u0joPHrX1Oro53/u0JN9uHgc3kIQBfh0fmEIgPxGAIVc6P+v0br9smKNH2aqtMiQI8IoAPDF4uB9R+/m3N+myNlrGBh4EkEU4MN5hiEA8hcBFHLt0+vG67/PL1RZiaHCMN+iBwBeXhRw9A5+RBAF+G++AZCHCKDgFfHGjZpTdbLOOCHMET0A8OKCYI+jd/c80aE/V3H0Dv5CEAX4aM5hCID8QwAFLyp8ZpQeuK5E44aZKik0uo98AABytBAwpGQydfTuhSUJzVn/N4UrDmFg4EsEUYBP5h6GAMgvBFDwuqlvj9X3zi/S4L6GiiOGHEfiRQsAWVwAdH4I0NruqGZdUtff36atn6xlYOB7BFGAD+YghgDIHwRQ8JMv7ZigK86MqKzYUEGYXVEA4Hrjb6Sa/7aO1L1PP/59VK8dvoqBQV4hiAI8PhcxBEB+IICCH+15X1RJkaFwiDAKAFxp+g2pPSa1Rrn3CfmPIArw8HzEEAD+RwAFvyt8ZpS+d16RPjk5pLJiLi8HgIw1+52XjrdGHT3015ju2/W4IgOOZGCQ9wiiAI/OSwwB4G8EUMgnA14YrdsuLdbYoaZKigijAKDHTX7npeNNrY4WvJ7Qjx+Oqn1WHQODQCGIAjw4PzEEgH8RQCFvX9uvjdF/n1+ksUNNFUX4Jj0AOODmvjN8amt3tHpjUt+4rVXRUwmfEFwEUYDH5imGAPDpIp0ACgHw2Q3jdfkXIxpQZRBGAcCHNfXvC59+/HBUNVNXMzCACKIAT81XDAHgPwRQCBrCKADYTzPfWQ+jHY5q1hM+AftDEAV4ZN5iCAB/IYBCkBFGAUBnE79H+LR1h6N7n+zQ34dWMzDAhyCIAjwwfzEEgH8QQAEphFEAAtu8Ez4BaSGIAnI8jzEEgD8QQAEfRBgFIDBNe+edT+0xwicgXQRRQA7nM4YA8D4CKODDnbxxvC47M6IBvQ0VFhBGAcijZr0zfIp2pC4cf+zvMT13COETkC6CKCBH8xpDAHgbARRw4AijAORNk/6+8OnHv4+qmgvHgYwiiAJyML8xBIB3EUABPXPyxvG69IsR9e+VOqZnmoRRAHzSnBtSIpE6dle7ifAJcBtBFJDleY4hALyJAApI3/jXxuh75xdpzCGmImFDoRBhFACPNuSGFEtI7R2OFr6e0L1Ptqt+Ri2DA2QBQRSQ5TkPgLcQQAGZNf61MTrnpIhmHBNSYcRQQUiSI/FGA5DTRrzzyHAsIUXbHT3zSlz3PdGu1lPqGBwgywiigCzNfQwB4C0EUIB7SuaP0mVnFmrW8WEVRgxFwuLeKADZb8A773vqiDva+p6j+a/EdWf1jSo9cjaDA+QQQRSQhTmQIQC8gwAKyI6mRXfokiMe0jknFahfL0ORMPdGAchC421ICVuKxR3Vbkzq0b/H9LchfNMd9q3mjqEGvWFuxp1RAFycCxkCwBtoMoDcOK56rC4/s1CjhpiKFBgKWYRRADLcbBtSLC51xBwtfCOhuc93aOUULhvH/u0ZhNAj5nb8AbgwLwLILZoLIPeGvDhal32xUCccFVJhgaECjuoBSKfJ7jxyF4tL7XFHjz4f071PtMuavYbBwYfaVwBCr+iN5wAgA/MjQwDkFk0F4C17HtXrW5k6qmexOwrAgTbWhhRPpI7c1W3iyB0OzocFH/SM3noeANKYKwHkBs0E4G0TFo/R5WcW6ugxliIFhsIhdkcB2EdDvceup4546lvuHnu+Q5tOrGVwcMAOJPCgd/TmcwFwEHMmQwDkBk0E4B/2H0fqDXqZ+gAAFIZJREFU8jMLdcrxYfWtNFQQ5u4ogCZa+9z19Md3LlT5tGsZIBywgw056CG9/4wAfMT8CSC7aB4A/zp8yRidc3JEJxwVUkHYUNiSTEPiTQ0EpHnu3vXkKJaQ5r0S16PPd2jjCex6wsHrabhBL+mfZwXgffMoQwBkF00DkB92PXWuLp25RKd8IqxRQ0yFrNRl5nIIpIB8bJgd7d71tLY+qXufaNer41YxOOixdEMNekr/PTMAhFBAVtEsAPnpkJdG65TjC3TOSQUKW1K487gegRTg8ya587hdPOFo+y5Hz74a171PtMv8Ct9wh/RkKsygt/TvswMCPb8CcB9NgjcbCJ4LMm3P43pdgZRlcn8U4JvGuDN4SiQcxW2O28Gd/oMek+cIBHquBeAumgNvNw48H7hh11Pn6vPj/6NzTo5o0mhr9/1RBFKA95phQ7KTUjyeCp6eWRTX/EUxvT15NQME1/oPek2eJxDYeReAe2gK/NEw8Jzgpj3vjxoxyFSYQArIfQP8vuBpaa2tuc916K/Vx6ry9EcYJGSl/6Dn5LkCgZyDAdAM0CjwzJAdzp9G6pyTIjrl+LCGDzQVDhmyLMniG/YA9xvfruApISVsR0trbT36XIfmvRpXrwvXMkDIWf9B78nzBQIzFzMEAE0ADQLPDrnRFUhNmxTSpNGWQpahcEjcIQVkstk1pERn6BS3pWV1BE/wXu9BD8qzBgIzLzME/pfNiYYCy+QflMaAZ4hs2/m7ETr1E2F97eSIJo6yFLakkGUoFCKQAg62uXUkJexU8JTovFx8/qKYlh/DHU8IRs9MHxO8Zx6kNRBj7f95GryhKQhM+jQEPE94zBGvj9Ep0wp06ifCCoUkyzQUsiSTY3vAPhta25FsW4onHL3X7Gj+K3HNfyWmDdP5VjsEsx+mh2EtFNTXFWtS78/Z4E1NIeD50QjwXOFhQ18eremTwjrl+LCGDTRTO6RMKRSS5BBKIZgNrKNU6JSwHSWSqYvFFy1NaO7zHTK+vIZBAj0vPQyvAV4/gVuP+mUOB29sigDPktcYzxc+0XVsb9pRYZ36ibCszmN7lsVdUsjzptVIHbGzk1Kic7fTy0sTmr8oppeXJbjfCfS29DC8HnitBH5N6ov5nCHgjU0B4LnyeuI5w7/K/zZKpx5foGmTQpo4ylKoK5QyOboHnzepnd9kZ9uSnXSUSEgvL0to0dKE5r0SY7cT6GPpYXhd8LpgPerH+Z0h4M1NEeD58trhmSN/HLpodHcoNXygKdNMBVKWmVrUA16WdKRkUrJtR3Yy9U12Ly9N6OWlca2fxt1OoGelf+H1wWuA97bfMbC8wSkAPGdeKzx75KnGh0Zo2sSQTjgqrGmTQho2wEwFUpYh05Qsdkohx02onez6y1GS0An0HPQvvFZ45jzDQMz/4A1OAeB589rgdYCAOHRR6pLz6ZNCOnKU1blLKhVKmQa7peAex0kFTsmu0MmRFi1N6OWlCb20NK7Gk+sYJNBz0LvwmuE58yzzHAPIm5s3P8+d1wOvBwRYxXOjdMKksI4cZenIUVbqCJ+h7mN8pskY4eA5zh5H6zp3Oa3bmtSipQktq01o0bKEnC9xpxPoOehdeO3wXHmmQcOg8Qbnzc+z5/nzugC6NT40QkeOsjRxVEjTJ4V0xChLvcsMginst5FM7idweqvO1lt1NrucQL/BegYuvo54jtQHP/YO4A3Om5/XAM+c1wiwX/sKpnqVdt4rZRoyjNRRPsvkjql8l0zuDpySTury8PUETqDfYH2DrL+eeHbUCr9ikHiD8+bndcBz5rUC9Eiv50dp+qSwDh1g6tABpqZPCskwJMMwur+NzxA7p/zGcXYfp9t9rM7RrhZHb9XZWlZna8MWW8vW2Np5EoET6DVY6yCbry2eF/XD7xgY3uC88XktUNSpH0DGNP1+RGcgtTucOnKUpcpSQ6ZpdIdSBFS5tWfQJKV2NjlKhU3rtya1fmuSsAn0Gqx74JHXGM+HWpJPGBDe5LzxeT1QyKknQFb0en6UKksNHTkq9MGAypBkGN3f0NcVUhl8Y1+PJJOdf3d2/z0VPDlyHO0VNDW2OHqrLqFdLQ5hExDgRSM9i/deazwT6ko+YiB4k/PG5zVB8aa2ADlnPjFSFaWGJo60VFFmdodUFaWGJo6yUn/GNLqbl64dVF1hVfc/53Fn07V7SdodLkmSndz9B7r+/ctLE5LUHTKt32p3B0/l56/lBQewSKRn8fDrjudAnclnhFC8yXnT87qgYFNrAF/o9fwoSereTSWpO6x6/z9Lu0OrLtY+jv7tGWLts1HqYbC1Z2C0z9/XB39/z+NxXf9iz193BUrv/+eXl8YlSY0tjpJnruGFArAwpF/x6euPsafmBAFpP2903vS8LijS1BwgL3WFVl2mTwp/4M90HQfcn/cHWweqa9fRwfx+Y3NSy9bYu39NqATQY9CvANSfPBPYokthxf7e+Lw2KM7UIAAA6DGCjl4FoBa5IXCFl2KKD3vT8/qgIFOPAACgvwC9CkBtcgdfPQqAIkxtAgCA/gL0KQA1ynWBKMIUToDiS50CAIDeAvQpADUrt/K+GFMwAQouNQsAAHoL0KMA1K7cy9uCTJEEKLTULwAA6CtAjwJQy7yDb50CQHGllgEAQF8B+hOAmua6vCrOFESAokqzBwAAPQXoTQBqnDflTZGmEAIUUpo9AADoJ0BvAlDvvCsvijUFEKCA0vABAEA/AfoSgLrnbb4u2BQ9gMJJwwcAAL0E6EsAaqA/+LZwU+wACiZNH3UQAEAfAXoSgJroH74s4BQ5gCIJaiIAgD4C9CMA/FUbfVfEKW4AxRHURgAAPQToRwD4r076qphT1ACKIqiTAAD6B9CLAPBnzfRNUaeYARRDUDMBAPQPoA8B4N/a6YvCThEDKIKgfgIA6B1ADwLA33XU0wWewgVQ/EAtBQDQN4AeBEB+1FTPFnoKFkDRA3UVAEDfAPoPAPlTWz1Z7ClUAMUO1FgAAD0D6D0A5Fed9VzRp0ABFDlQbwEA9Aug7wCQfzXXU8WfwgRQ3EDtBQDQK4CeA0B+1l/PTAIUJICiBmowAIA+AfQcAPK3FhNCAaCxBLUYAECPAPoNgLrsOk9MChQhgCIGmkMAAD0C6DUA5Hd9zvnEQPEBKF6gQQQA0B+APgNA/tfqnE4QFB2AogWaRAAAvQHoMQAEo27nbKKg2AAUK9AoAgDoCwD6CyA4NTwnEwZFBqBIgWYRAEBPANBbAMGq51mfOCguAMUJNIwAAPoBgL4CCF5dJ4QCQMMJajsAgF4A9BQANd51WZ1IKCgABQk0jgAA+gCAfgIIZr3P2oRCIQEoRKB5BADQAwD0EkBwa39WJhYKCEABAg0kAIC5H6CPAII9DxBCAaAJBY0kADDvM++D/gGA63OC65MNRQOg6ADMCwDAnA/QOwDMD65OOhQLgGIDMEcAAPM9QN8AMFdILoZQFAmAIgMwXwAAcz1AzwAwZ3QhhAJAUwqaSwBgjgfoFQC4Poe4MiFRGACaU4B5BACY3wH6BID5ZE8Zn5goCAANKsCcAgDM7QA9AsC88n6EUADFBKDZBADmdIDeAIDr84xBEQAoIgANJwAwnwP0BQDcnm8IoQAKCEDjCQDM4wD9AADX5x+DNz5A4QBoPgGAORygFwDg9lwU4g0PUDCAfHptMycBYO4GAMCbMjKp0fADNLGAFzE/AWDeBpjzAXhnjjJ4swMUCYDGFACYrwHmeQBuz1eEUAAFAqBRBQDmaYC5HYDr85fBmx2gMAA0rQDA/AwwlwNwey4jhAIoCgCY0wAwLwPM3wBcn9sM3uwAxQAAcxwA5mOA+RqA2/McIRRAIQDAfAeAeRhgjgbg+rxn8GYHaHwBMP8BYP4FmJMBuD0HEkIBNMAAmAsBMO8CzMMAXJ8TDd7sAI0wAJphAMy3AHMuALfnR0IogIYYAM0xAOZYgHkWgOtzZog3OwAA7k7CzJ9A/jXRAADg4B3UJEsTDdAsA0gPcynAPAqAeRQI6pwaYpgA/0/ENNCAfydnmmnAm00yAADIvAMOoWiSAQBwfzHMfAu4/z4D4E/MkYD/GbzhARpsADTcAHMiAOZEAG7PwSHe7AAA+GciZ04GDr7hBeB/zH9AfjB4wwM04QBoygHmOgDMdwDcnqu5mBwAgDyb5GnUEZRGFgAA+MtHhlA0sgAA+H/RznwOv752AYA5DMgfBm94gAYeAE09wHwFgPkKgNvzPMfxAACgOaDZR9ZfZwAAIHg+tCmgCQVo+AGAvgDMPQCYewBkoi9gJxQAAEirmWCRwGsAAADg/b3hvvqGEM0kAABIFwFVMJ4lAABAOmgYARYRAJBz9B3MDQDA3ADkf9/BcTwAAODJJoVFSebHDgAAIJcIoQAAgK9kKnTJdZhFeAQAAPLZvu6F4quZARZqAAAAgOcWr4wCkH9rUpMhAQAAAAAAgNsIoQAAAAAAAJBx79/VSAgFAAAAAAAA130ghOLsLZA/eD8DAACAHhaAV7ATCgAAAAAAAK4jhAIAAAAAAIDrCKEAAAAAAADgij2P2Jr7+w0AAAAAAAAgU9gJBeQ5wmUAAADQuwLwAkIoAAAAAAAAuI4QCgAAAAAAAK4jhAIAAAAAAIBruo7aEkIBAAAAAADAdd0hFBfAAQAAAAByhTUpkP/YCQUwoQMAAAAA4DpCKAAAAAAAALiOEAoAAAAAAACuI4QCAAAAAACA6wihAAAAAAAA4DpCKAAAAAAAALhq3LUbHLPrHxgOAAAAAAAAuIWdUAAAAAAAAHAdIRQAAAAAIKc4nQMEAyEUAAAAAAAAXEcIBQQEny4BAAAAAHKJEAoAAAAAAACuI4QCAAAAAACA6wihAAAAAAAA4DpCKAAAAAAAALiOEAoAAAAAAACuI4QCAAAAAACA6wihAAAAAAAA4DpCKAAAAAAAALiOEAoAAAAAAACuI4QCAAAAAACA6wihAAAAAAAA4DpCKAAAAAAAALiOEAoAAAAAAACuI4QCAAAAAACA6wihAAAAAAAA4DpCKAAAAAAAALiOEAoAAAAAkFM1dww1GAUg/xFCAUzsAAAAAAC4jhAKAAAAAAAAriOEAgAAAAAAgOsIoQAAAAAAAOCqmjuGGoRQAAAAAAAAcJ0pcWExAAAAAAAA3MVOKAAAAAAAALiOEAoAAAAAAACuI4QCAAAAAOQc18QA+Y8QCgAAAAAAAK4jhAICgE+VAAAAAAC5XpMSQgEAAAAAAMB13SEUOyUAAAAAAADgFnZCAQAAAAAAwHWEUAAAAAAAT+CEDpDfCKEAAAAAAADgOkIoIM/xaRIAAAAAwAtrUpPFKgAAAAAAANzGTigAAAAAAAC4jhAKAAAAAOAZnNAB8hchFMAEDgAAAACA62tSQigAAAAAAAC47gMhFDsnAAAAAAAAkGnshAIAAAAAeAqbI4D8RAgFMHEDAAAAAOD6mtRk8QoAAAAAAAC3sRMKAAAAAOA5bI4A8g8hFAAAAP5/O/diFDkQBFEweqzBQRzGEc6Bu9ufWjVSZxoAgZbHqia0AAAc5l+HyA6hYFDwAAAAkLKMWAAAAHZkl8K9eBIKAAAAgEP87/DYIRQMCh4AAABSljELAADAruxSuA9PQgEAAADwsUeHxg6hYFDwAAAAkPLwEMqoBQAAIMkuhXvwJBQAAAAAH3nmsHgd9YWA/YMHAAD3u0CKJ6EAAAAAeNuzh8QOoWBQ8AAAAJDy9CGUkQsAAECSXQrX5kkoAAAAAN7yyuHw6vrCwH7BAwCA+18gxZNQAAAAALzs1UPh1f0NgH2CBwAA98FAiiehAAAAAHjJO4fBDqFgUPAAAOB+GEhZYgcAAADgWe+eC3kSCgYFDwAA7ouBlCV2AAAAAJ7xyXmQJ6FgUPAAAOD+GEhZYgcAAADgkU/PgQ45RPr6/vn1UsD+wQMAwF3ZpbD/HvVxPAAAAADaHfZUhVNn6OUpKAAAsEvhynvUk1AwKHgAAHDfDKQssQMAAADwN0ee9xx+cOTxR9g3eAAAmMAuhT33qI/jAQAAYDgD7ZbYwZsnAAAAdO9RT0LBoOABAMD9NJCyxA4AAMAd2aawVztL7ODNEgAAALr3qI/jwaDgAQDA/TWQ6mWJHQAAAMMa6LbEDt4cAQAAsEe7v8dpg/fr++fXSwrZ4AEAYDK7FLJ71P+EgkHBAwCA+24g1cUSOwAAAAY30O30+Dz+CN4EAQAgzTaF8/fouvsPCIIHAACA/B6NDWCnzgjeARQAACTZpdij5/KPyWFQ8AAAgPty/N6nvnc0OKfOCB4AAEizTbFHz7Em//AAAABgm+L3/BxbhObUGdEDAAC2Kdx7iy4XA/yeAwAA7tmh21aBOXXGmxkAAGCbwj33aIkd5gQPAADYptijKSV2mBM8AABgm2KPppTYYU7wAACAbYotmlJih1nRAwAAtim2aEKJHWZFDwAA2KbYogkldpgVPQAAYJtiiyaU2GFW9AAAgG2KLZpQYodZ0QMAALYptmhCiR3mBA8AANim2KMpJXaYEzwAAGCfYo+mlNhhTvAAAIBtii2aUmKHWdEDAAC2KbZoQokd5gQPAADYp9ijKSV0mBM8AABgn2KLppTYYVb0AACAbYotmlBihznBAwAA9im2aEqJHWZFDwAA2KbYogkldpgVPQAAYJ9ihyaU0GFW9AAAgH2KLZpQYgcHUAAAgH2KHdqtxI7oAQAA7FPs0G4ldEQPAABgo2KLdiuhC13wAAAA9im2aDcXQeyiBwAAsE+xQ9u5GGIXPQAAgH2KHdrORRG76AEAAOxT7NB2Lo7YRQ8AAGCjYoe2c5GELnoAAAAbFRu0nQsmdNEDAADYqNih7Vw4oYseAADATsUGbeciCl34AAAAdir2ZzsXVOjCBwAAsFOxP9u5uEIXPgAAgJ1qf9LOhRa68AEAAGxV25N2LrzIhQ8AAMBtN6vtuQ8vhMCFDwAAwOV3q825Py+QwP0BAAAA4BIb1s68Ni+esP0RAAAAANo5PLipIw6rHC4BAAAAR/kD6Aa71XddYJQAAAAASUVORK5CYII=;fontColor=#9C9C9C;" vertex="1" parent="1">
          <mxGeometry x="975.38" y="593.63" width="119.05" height="119.25" as="geometry" />
        </mxCell>
        <mxCell id="pBvcmqWuUnF4bjznlYPL-67" style="edgeStyle=orthogonalEdgeStyle;rounded=0;orthogonalLoop=1;jettySize=auto;html=1;entryX=0.995;entryY=0.63;entryDx=0;entryDy=0;entryPerimeter=0;strokeColor=#9C9C9C;" edge="1" parent="1" source="pBvcmqWuUnF4bjznlYPL-65" target="pBvcmqWuUnF4bjznlYPL-22">
          <mxGeometry relative="1" as="geometry" />
        </mxCell>
        <mxCell id="pBvcmqWuUnF4bjznlYPL-65" value="&lt;b&gt;MQTT (Publish)&lt;/b&gt;&lt;br&gt;&lt;i&gt;Telemetry data&lt;/i&gt;" style="rounded=1;whiteSpace=wrap;html=1;fillColor=#1ba1e2;fontColor=#FFFFFF;strokeColor=#006EAF;" vertex="1" parent="1">
          <mxGeometry x="1339.5" y="407" width="120" height="60" as="geometry" />
        </mxCell>
        <mxCell id="pBvcmqWuUnF4bjznlYPL-70" value="MQTTNET Client" style="sketch=0;html=1;dashed=0;whitespace=wrap;fillColor=#2875E2;strokeColor=#ffffff;points=[[0.005,0.63,0],[0.1,0.2,0],[0.9,0.2,0],[0.5,0,0],[0.995,0.63,0],[0.72,0.99,0],[0.5,1,0],[0.28,0.99,0]];verticalLabelPosition=bottom;align=center;verticalAlign=top;shape=mxgraph.kubernetes.icon;prIcon=api;fontColor=#9C9C9C;" vertex="1" parent="1">
          <mxGeometry x="1204.5" y="593.25" width="110" height="120" as="geometry" />
        </mxCell>
      </root>
    </mxGraphModel>
  </diagram>
</mxfile>
